<svg width="33" height="32" viewBox="0 0 33 32" fill="none" xmlns="http://www.w3.org/2000/svg">
<rect x="0.75" width="32" height="32" rx="6" fill="#282A30"/>
<path d="M18.9929 6.93012L19.7392 6.85549V6.85549L18.9929 6.93012ZM18.9133 6.38231L19.6301 6.16167V6.16167L18.9133 6.38231ZM19.1439 7.90964L18.4506 8.19571L18.4506 8.19571L19.1439 7.90964ZM20.7794 8.5871L21.0674 9.27961L20.7794 8.5871ZM21.5791 8.00104L22.054 8.58151L21.5791 8.00104ZM22.0232 7.66961L21.6724 7.00668L22.0232 7.66961ZM23.2994 7.73326L23.7144 7.10852L23.7144 7.10852L23.2994 7.73326ZM23.7082 8.10713L23.1779 8.63746V8.63746L23.7082 8.10713ZM24.6459 9.04487L25.2065 8.5466L25.1919 8.53013L25.1763 8.51454L24.6459 9.04487ZM24.646 9.04488L24.0854 9.54316L24.1 9.55963L24.1156 9.57521L24.646 9.04488ZM25.019 9.45263L25.6435 9.03736L25.6435 9.03736L25.019 9.45263ZM25.0827 10.7299L25.7454 11.081L25.7454 11.081L25.0827 10.7299ZM24.752 11.1729L24.1715 10.6979L24.1715 10.6979L24.752 11.1729ZM24.1672 11.9706L23.4749 11.6822L23.4749 11.6822L24.1672 11.9706ZM24.8451 13.6072L24.5595 14.3007L24.8451 13.6072ZM25.8225 13.7578L25.7479 14.504H25.7479L25.8225 13.7578ZM26.3691 13.8371L26.1488 14.554L26.1488 14.554L26.3691 13.8371ZM27.2274 14.7855L26.4921 14.9334V14.9334L27.2274 14.7855ZM27.2275 17.216L27.9628 17.3638V17.3638L27.2275 17.216ZM26.3689 18.1648L26.589 18.8818L26.589 18.8818L26.3689 18.1648ZM25.8229 18.244L25.7482 17.4977L25.7238 17.5002L25.6996 17.5042L25.8229 18.244ZM25.8228 18.244L25.8975 18.9903L25.9219 18.9878L25.9461 18.9838L25.8228 18.244ZM24.8465 18.3943L24.5611 17.7008L24.5611 17.7008L24.8465 18.3943ZM24.1684 20.0314L24.8607 19.7428L24.1684 20.0314ZM24.7529 20.8286L25.3334 20.3537L24.7529 20.8286ZM25.0837 21.2717L24.4209 21.6228L24.4209 21.6228L25.0837 21.2717ZM25.02 22.549L24.3954 22.1337H24.3954L25.02 22.549ZM23.3002 24.2685L23.715 24.8934L23.715 24.8934L23.3002 24.2685ZM22.0244 24.3322L21.6739 24.9952L21.6739 24.9952L22.0244 24.3322ZM21.5798 24.0003L22.0547 23.4199H22.0547L21.5798 24.0003ZM20.7791 23.4136L20.4914 24.1062L20.7791 23.4136ZM19.1442 24.0909L19.8374 24.3772L19.8374 24.3771L19.1442 24.0909ZM18.9929 25.0715L18.2467 24.9969V24.9969L18.9929 25.0715ZM18.9133 25.6199L18.1965 25.3991V25.3991L18.9133 25.6199ZM17.9659 26.4772L17.8175 25.7421H17.8175L17.9659 26.4772ZM15.5345 26.4774L15.6823 25.7422L15.6823 25.7421L15.5345 26.4774ZM14.5858 25.6189L13.8689 25.8391L13.8689 25.8391L14.5858 25.6189ZM14.5066 25.0726L15.2528 24.998L15.2519 24.9888L15.2508 24.9796L14.5066 25.0726ZM14.5066 25.0726L13.7603 25.1472L13.7612 25.1564L13.7624 25.1656L14.5066 25.0726ZM14.3563 24.0965L15.0499 23.8112L14.3563 24.0965ZM12.719 23.4183L12.4302 22.7261H12.4302L12.719 23.4183ZM11.9227 24.002L11.4478 23.4216H11.4478L11.9227 24.002ZM11.4809 24.332L11.8322 24.9946L11.8322 24.9946L11.4809 24.332ZM10.2026 24.2682L10.6182 23.6438L10.6182 23.6438L10.2026 24.2682ZM9.79581 23.896L9.21964 24.3761L9.24142 24.4023L9.26548 24.4263L9.79581 23.896ZM9.79579 23.896L10.372 23.4158L10.3502 23.3897L10.3261 23.3656L9.79579 23.896ZM8.85711 22.9573L9.38744 22.427V22.427L8.85711 22.9573ZM8.48401 22.5494L9.10857 22.1342L9.10857 22.1342L8.48401 22.5494ZM8.42031 21.2722L7.75753 20.9212L7.75753 20.9212L8.42031 21.2722ZM8.75097 20.8293L8.19811 20.3225L8.18386 20.338L8.1705 20.3543L8.75097 20.8293ZM8.75098 20.8293L9.30385 21.3361L9.31809 21.3205L9.33145 21.3042L8.75098 20.8293ZM9.33606 20.031L8.64366 19.7428H8.64366L9.33606 20.031ZM8.65833 18.3948L8.9441 17.7014H8.9441L8.65833 18.3948ZM7.67995 18.2441L7.60532 18.9904H7.60532L7.67995 18.2441ZM7.13252 18.1646L7.35304 17.4478L7.35303 17.4478L7.13252 18.1646ZM6.27461 17.2166L7.00984 17.0685H7.00984L6.27461 17.2166ZM6.27467 14.7849L5.53947 14.6366L6.27467 14.7849ZM7.13225 13.8373L7.35293 14.5541L7.35293 14.5541L7.13225 13.8373ZM7.68051 13.7577L7.75514 14.5039L7.79164 14.5003L7.8276 14.4931L7.68051 13.7577ZM7.68053 13.7577L7.6059 13.0114L7.56941 13.015L7.53344 13.0222L7.68053 13.7577ZM8.65943 13.6068L8.37363 12.9134H8.37363L8.65943 13.6068ZM9.33714 11.9707L8.64474 12.2589L8.64474 12.2589L9.33714 11.9707ZM8.75201 11.1724L8.17154 11.6473L8.17154 11.6473L8.75201 11.1724ZM8.42131 10.7294L9.0841 10.3784L9.0841 10.3784L8.42131 10.7294ZM8.48501 9.45223L9.10958 9.86746L9.10958 9.86746L8.48501 9.45223ZM10.2034 7.73359L10.6191 8.35785L10.6191 8.35785L10.2034 7.73359ZM11.4821 7.66981L11.1306 8.33233L11.1306 8.33233L11.4821 7.66981ZM11.9234 7.99933L12.3984 7.41887L12.3984 7.41887L11.9234 7.99933ZM12.7186 8.58244L12.4296 9.27452L12.4297 9.27452L12.7186 8.58244ZM14.3566 7.90398L13.6628 7.61895V7.61895L14.3566 7.90398ZM14.5066 6.929L13.7672 6.80315L13.7629 6.82865L13.7603 6.85438L14.5066 6.929ZM14.5066 6.92899L15.246 7.05484L15.2503 7.02934L15.2529 7.00361L14.5066 6.92899ZM14.5857 6.38332L13.8687 6.16328L13.8687 6.16328L14.5857 6.38332ZM15.5348 5.52445L15.3872 4.78911L15.3872 4.78911L15.5348 5.52445ZM17.9656 5.52465L17.8174 6.25986V6.25986L17.9656 5.52465ZM19.7392 6.85549C19.7141 6.60486 19.6943 6.37023 19.6301 6.16167L18.1965 6.60295C18.2057 6.63285 18.2145 6.68394 18.2466 7.00475L19.7392 6.85549ZM19.8372 7.62358C19.8392 7.62836 19.8251 7.59451 19.8049 7.45291C19.7854 7.31596 19.7668 7.13201 19.7392 6.85549L18.2466 7.00474C18.273 7.26809 18.2949 7.48904 18.3199 7.66447C18.3442 7.83523 18.3786 8.0212 18.4506 8.19571L19.8372 7.62358ZM20.4915 7.89458C20.236 8.00082 19.9428 7.87937 19.8372 7.62358L18.4506 8.19571C18.8727 9.21878 20.0455 9.70454 21.0674 9.27961L20.4915 7.89458ZM21.1042 7.42057C20.889 7.59662 20.7457 7.71363 20.6351 7.7967C20.5206 7.88262 20.4867 7.89657 20.4915 7.89458L21.0674 9.27961C21.2417 9.20712 21.3976 9.09991 21.5355 8.99634C21.6773 8.88994 21.8491 8.74917 22.054 8.58151L21.1042 7.42057ZM21.6724 7.00668C21.4794 7.10881 21.2993 7.2609 21.1042 7.42057L22.054 8.58151C22.3038 8.37712 22.3462 8.34718 22.3739 8.33254L21.6724 7.00668ZM23.7144 7.10852C23.1038 6.70296 22.3203 6.66388 21.6724 7.00668L22.3739 8.33254C22.5359 8.24683 22.7318 8.2566 22.8844 8.358L23.7144 7.10852ZM24.2385 7.5768C24.0603 7.39856 23.8963 7.22935 23.7144 7.10852L22.8844 8.358C22.9105 8.37532 22.9497 8.40931 23.1779 8.63746L24.2385 7.5768ZM25.1763 8.51454L24.2385 7.5768L23.1779 8.63746L24.1156 9.5752L25.1763 8.51454ZM25.2065 8.54661L25.2065 8.5466L24.0854 9.54314L24.0854 9.54316L25.2065 8.54661ZM25.6435 9.03736C25.5229 8.85595 25.3541 8.69236 25.1763 8.51455L24.1156 9.57521C24.3432 9.8028 24.3771 9.8419 24.3944 9.86791L25.6435 9.03736ZM25.7454 11.081C26.0889 10.4326 26.0497 9.64831 25.6435 9.03736L24.3944 9.8679C24.496 10.0207 24.5058 10.2168 24.4199 10.3789L25.7454 11.081ZM25.3325 11.6478C25.4918 11.4531 25.6434 11.2735 25.7454 11.081L24.4199 10.3789C24.4053 10.4065 24.3754 10.4488 24.1715 10.6979L25.3325 11.6478ZM24.8595 12.259C24.8575 12.2638 24.8715 12.23 24.9572 12.1158C25.0401 12.0054 25.1568 11.8625 25.3325 11.6478L24.1715 10.6979C24.0043 10.9024 23.8638 11.0738 23.7576 11.2152C23.6543 11.3529 23.5473 11.5083 23.4749 11.6822L24.8595 12.259ZM25.1307 12.9137C24.8746 12.8082 24.753 12.5147 24.8595 12.259L23.4749 11.6822C23.0489 12.7048 23.5352 13.8788 24.5595 14.3007L25.1307 12.9137ZM25.8971 13.0115C25.6212 12.9839 25.4377 12.9654 25.301 12.9459C25.1597 12.9258 25.1259 12.9117 25.1307 12.9137L24.5595 14.3007C24.7336 14.3724 24.9192 14.4067 25.0896 14.431C25.2646 14.4559 25.4851 14.4778 25.7479 14.504L25.8971 13.0115ZM26.5895 13.1202C26.3813 13.0562 26.1472 13.0365 25.8971 13.0115L25.7479 14.504C26.068 14.536 26.119 14.5448 26.1488 14.554L26.5895 13.1202ZM27.9627 14.6376C27.818 13.9182 27.2909 13.3358 26.5895 13.1202L26.1488 14.554C26.3242 14.6079 26.456 14.7535 26.4921 14.9334L27.9627 14.6376ZM28.002 15.3373C28.002 15.086 28.0056 14.851 27.9627 14.6376L26.4921 14.9334C26.4983 14.964 26.502 15.0156 26.502 15.3373H28.002ZM28.002 16.6649V15.3373H26.502V16.6649H28.002ZM27.9628 17.3638C28.0056 17.1505 28.002 16.9159 28.002 16.6649H26.502C26.502 16.9862 26.4983 17.0377 26.4922 17.0683L27.9628 17.3638ZM26.589 18.8818C27.2908 18.6662 27.8182 18.0835 27.9628 17.3638L26.4922 17.0683C26.456 17.2483 26.3242 17.394 26.1487 17.4478L26.589 18.8818ZM25.8975 18.9903C26.1473 18.9653 26.3811 18.9456 26.589 18.8818L26.1487 17.4478C26.1189 17.457 26.068 17.4658 25.7482 17.4977L25.8975 18.9903ZM25.9461 18.9838L25.9462 18.9838L25.6996 17.5042L25.6995 17.5042L25.9461 18.9838ZM25.1319 19.0879C25.1272 19.0899 25.1609 19.0758 25.302 19.0558C25.4385 19.0363 25.6219 19.0178 25.8975 18.9903L25.7482 17.4977C25.4857 17.524 25.2655 17.5458 25.0907 17.5707C24.9205 17.5949 24.7351 17.6292 24.5611 17.7008L25.1319 19.0879ZM24.8607 19.7428C24.754 19.4871 24.8757 19.1934 25.1319 19.0879L24.5611 17.7008C23.5363 18.1225 23.0497 19.2972 23.4762 20.3201L24.8607 19.7428ZM25.3334 20.3537C25.1578 20.1392 25.0412 19.9963 24.9583 19.886C24.8726 19.7718 24.8587 19.738 24.8607 19.7428L23.4762 20.3201C23.5486 20.4938 23.6556 20.6491 23.7588 20.7866C23.8649 20.9279 24.0053 21.0992 24.1724 21.3036L25.3334 20.3537ZM25.7464 20.9206C25.6444 20.7281 25.4927 20.5484 25.3334 20.3537L24.1724 21.3036C24.3764 21.5528 24.4063 21.5952 24.4209 21.6228L25.7464 20.9206ZM25.6445 22.9643C26.0508 22.3533 26.0899 21.569 25.7464 20.9206L24.4209 21.6228C24.5068 21.7849 24.497 21.981 24.3954 22.1337L25.6445 22.9643ZM25.1773 23.4871C25.3551 23.3093 25.5239 23.1457 25.6445 22.9643L24.3954 22.1337C24.3781 22.1597 24.3442 22.1988 24.1167 22.4264L25.1773 23.4871ZM24.2398 24.4246L25.1773 23.4871L24.1167 22.4264L23.1792 23.3639L24.2398 24.4246ZM23.715 24.8934C23.8972 24.7724 24.0614 24.603 24.2398 24.4246L23.1792 23.3639C22.9507 23.5923 22.9115 23.6264 22.8854 23.6437L23.715 24.8934ZM21.6739 24.9952C22.3215 25.3376 23.1046 25.2986 23.715 24.8934L22.8854 23.6437C22.7327 23.745 22.537 23.7548 22.375 23.6691L21.6739 24.9952ZM21.1049 24.5808C21.3003 24.7407 21.4806 24.893 21.6739 24.9952L22.375 23.6691C22.3473 23.6545 22.3048 23.6245 22.0547 23.4199L21.1049 24.5808ZM20.4914 24.1062C20.4866 24.1042 20.5206 24.1182 20.6352 24.2042C20.746 24.2874 20.8894 24.4045 21.1049 24.5808L22.0547 23.4199C21.8495 23.252 21.6775 23.1111 21.5356 23.0045C21.3975 22.9009 21.2414 22.7935 21.0669 22.721L20.4914 24.1062ZM19.8374 24.3771C19.943 24.1215 20.236 24.0001 20.4914 24.1062L21.0669 22.721C20.0453 22.2966 18.8732 22.7821 18.451 23.8046L19.8374 24.3771ZM19.7392 25.1461C19.7669 24.8693 19.7855 24.6851 19.805 24.548C19.8252 24.4062 19.8394 24.3724 19.8374 24.3772L18.451 23.8046C18.3788 23.9792 18.3444 24.1654 18.32 24.3364C18.295 24.512 18.273 24.7332 18.2467 24.9969L19.7392 25.1461ZM19.63 25.8407C19.6943 25.6319 19.7141 25.397 19.7392 25.1461L18.2467 24.9969C18.2145 25.318 18.2057 25.3692 18.1965 25.3991L19.63 25.8407ZM18.1143 27.2124C18.8327 27.0674 19.4143 26.5411 19.63 25.8407L18.1965 25.3991C18.1425 25.5742 17.9971 25.7058 17.8175 25.7421L18.1143 27.2124ZM17.4123 27.252C17.6645 27.252 17.9002 27.2556 18.1143 27.2124L17.8175 25.7421C17.7868 25.7483 17.7351 25.752 17.4123 25.752V27.252ZM16.0858 27.252H17.4123V25.752H16.0858V27.252ZM15.3867 27.2127C15.6 27.2556 15.8347 27.252 16.0858 27.252V25.752C15.7644 25.752 15.7128 25.7483 15.6823 25.7422L15.3867 27.2127ZM13.8689 25.8391C14.0844 26.5408 14.667 27.0681 15.3867 27.2127L15.6823 25.7421C15.5023 25.706 15.3566 25.5742 15.3028 25.3987L13.8689 25.8391ZM13.7603 25.1472C13.7853 25.3972 13.805 25.6312 13.8689 25.8391L15.3028 25.3987C15.2936 25.3689 15.2848 25.3179 15.2528 24.998L13.7603 25.1472ZM13.7624 25.1656L13.7624 25.1656L15.2508 24.9796L15.2508 24.9796L13.7624 25.1656ZM13.6627 24.3818C13.6607 24.377 13.6747 24.4107 13.6948 24.5519C13.7142 24.6883 13.7327 24.8717 13.7603 25.1472L15.2528 24.998C15.2266 24.7355 15.2047 24.5154 15.1799 24.3406C15.1557 24.1704 15.1215 23.9851 15.0499 23.8112L13.6627 24.3818ZM13.0077 24.1105C13.2635 24.0038 13.5572 24.1255 13.6627 24.3818L15.0499 23.8112C14.6283 22.786 13.4533 22.2993 12.4302 22.7261L13.0077 24.1105ZM12.3976 24.5825C12.6119 24.4072 12.7545 24.2907 12.8647 24.208C12.9787 24.1224 13.0124 24.1085 13.0077 24.1105L12.4302 22.7261C12.2567 22.7985 12.1015 22.9053 11.9641 23.0085C11.8229 23.1145 11.6518 23.2546 11.4478 23.4216L12.3976 24.5825ZM11.8322 24.9946C12.0242 24.8927 12.2034 24.7414 12.3976 24.5825L11.4478 23.4216C11.1992 23.6249 11.157 23.6547 11.1295 23.6694L11.8322 24.9946ZM9.78709 24.8926C10.3984 25.2994 11.1835 25.3386 11.8322 24.9946L11.1295 23.6693C10.9673 23.7554 10.771 23.7456 10.6182 23.6438L9.78709 24.8926ZM9.26548 24.4263C9.44289 24.6037 9.60614 24.7721 9.78709 24.8926L10.6182 23.6438C10.5922 23.6266 10.5532 23.5927 10.3261 23.3656L9.26548 24.4263ZM9.21963 24.3761L9.21964 24.3761L10.372 23.4158L10.372 23.4158L9.21963 24.3761ZM8.32678 23.4876L9.26546 24.4263L10.3261 23.3656L9.38744 22.427L8.32678 23.4876ZM7.85945 22.9647C7.98009 23.1461 8.14892 23.3098 8.32678 23.4876L9.38744 22.427C9.15979 22.1993 9.12587 22.1602 9.10857 22.1342L7.85945 22.9647ZM7.75753 20.9212C7.41417 21.5695 7.45328 22.3537 7.85945 22.9647L9.10857 22.1342C9.00702 21.9814 8.99724 21.7854 9.08309 21.6233L7.75753 20.9212ZM8.1705 20.3543C8.01123 20.549 7.85952 20.7286 7.75753 20.9212L9.08309 21.6233C9.09771 21.5957 9.12757 21.5534 9.33144 21.3042L8.1705 20.3543ZM8.19811 20.3225L8.19811 20.3225L9.30384 21.3361L9.30385 21.3361L8.19811 20.3225ZM8.64366 19.7428C8.64565 19.738 8.6317 19.7719 8.54595 19.8861C8.46302 19.9966 8.34624 20.1396 8.17051 20.3543L9.33145 21.3042C9.4988 21.0996 9.63932 20.9281 9.74555 20.7866C9.84895 20.6489 9.95601 20.4933 10.0285 20.3193L8.64366 19.7428ZM8.37255 19.0883C8.62853 19.1938 8.75007 19.4872 8.64366 19.7428L10.0285 20.3193C10.4541 19.2969 9.96795 18.1234 8.9441 17.7014L8.37255 19.0883ZM7.60532 18.9904C7.88152 19.018 8.06527 19.0365 8.20206 19.056C8.34352 19.0761 8.37734 19.0902 8.37255 19.0883L8.9441 17.7014C8.76981 17.6296 8.58406 17.5953 8.41352 17.571C8.23831 17.546 8.01762 17.5241 7.75458 17.4978L7.60532 18.9904ZM6.91201 18.8815C7.1204 18.9456 7.35486 18.9653 7.60532 18.9904L7.75458 17.4978C7.43398 17.4658 7.38291 17.457 7.35304 17.4478L6.91201 18.8815ZM5.53938 17.3647C5.6842 18.0837 6.21097 18.6658 6.91201 18.8815L7.35303 17.4478C7.17776 17.3938 7.04605 17.2483 7.00984 17.0685L5.53938 17.3647ZM5.5 16.6641C5.5 16.9158 5.49633 17.151 5.53938 17.3647L7.00984 17.0685C7.00367 17.0379 7 16.9862 7 16.6641H5.5ZM5.5 15.338V16.6641H7V15.338H5.5ZM5.53947 14.6366C5.49632 14.8506 5.5 15.0861 5.5 15.338H7C7 15.0155 7.00368 14.9638 7.00987 14.9331L5.53947 14.6366ZM6.91158 13.1205C6.21089 13.3362 5.68439 13.918 5.53947 14.6366L7.00987 14.9331C7.0461 14.7535 7.17774 14.608 7.35293 14.5541L6.91158 13.1205ZM7.60589 13.0114C7.35502 13.0365 7.12019 13.0562 6.91158 13.1205L7.35293 14.5541C7.38283 14.5449 7.43401 14.536 7.75514 14.5039L7.60589 13.0114ZM7.53344 13.0222L7.53343 13.0222L7.8276 14.4931L7.82762 14.4931L7.53344 13.0222ZM8.37363 12.9134C8.37845 12.9114 8.34461 12.9255 8.20304 12.9457C8.06615 12.9652 7.88227 12.9837 7.6059 13.0114L7.75515 14.5039C8.01837 14.4776 8.23918 14.4557 8.41447 14.4307C8.58507 14.4064 8.77089 14.3721 8.94523 14.3003L8.37363 12.9134ZM8.64474 12.2589C8.75113 12.5145 8.6296 12.8079 8.37363 12.9134L8.94523 14.3003C9.96902 13.8783 10.4551 12.7048 10.0295 11.6825L8.64474 12.2589ZM8.17154 11.6473C8.34728 11.8621 8.46408 12.0051 8.54702 12.1156C8.63277 12.2298 8.64672 12.2637 8.64474 12.2589L10.0295 11.6825C9.9571 11.5084 9.85004 11.3528 9.74662 11.2151C9.64038 11.0735 9.49984 10.902 9.33247 10.6975L8.17154 11.6473ZM7.75853 11.0804C7.86052 11.273 8.01225 11.4526 8.17154 11.6473L9.33247 10.6975C9.12859 10.4483 9.09872 10.406 9.0841 10.3784L7.75853 11.0804ZM7.86044 9.037C7.4543 9.6479 7.41519 10.4321 7.75853 11.0804L9.0841 10.3784C8.99826 10.2163 9.00804 10.0202 9.10958 9.86746L7.86044 9.037ZM8.32781 8.514C8.14994 8.69186 7.98109 8.85552 7.86044 9.037L9.10958 9.86746C9.12688 9.84144 9.1608 9.80232 9.38847 9.57466L8.32781 8.514ZM8.32781 8.51399L8.32781 8.514L9.38847 9.57466L9.38847 9.57465L8.32781 8.51399ZM9.26675 7.57506L8.32781 8.51399L9.38847 9.57465L10.3274 8.63572L9.26675 7.57506ZM9.78769 7.10934C9.60699 7.22966 9.44395 7.39786 9.26675 7.57506L10.3274 8.63572C10.5542 8.40891 10.5932 8.3751 10.6191 8.35785L9.78769 7.10934ZM11.8337 7.00729C11.1847 6.66296 10.3992 6.70214 9.78769 7.10934L10.6191 8.35785C10.772 8.25604 10.9684 8.24625 11.1306 8.33233L11.8337 7.00729ZM12.3984 7.41887C12.2044 7.26018 12.0254 7.10904 11.8337 7.00729L11.1306 8.33233C11.1581 8.34692 11.2002 8.37669 11.4485 8.5798L12.3984 7.41887ZM13.0076 7.89035C13.0124 7.89233 12.9786 7.8784 12.8649 7.79294C12.7548 7.7103 12.6123 7.59395 12.3984 7.41887L11.4485 8.5798C11.6523 8.74654 11.8232 8.88654 11.9641 8.9924C12.1014 9.09545 12.2563 9.20216 12.4296 9.27452L13.0076 7.89035ZM13.6628 7.61895C13.5575 7.87543 13.2635 7.99719 13.0076 7.89035L12.4297 9.27452C13.4531 9.70186 14.6288 9.21486 15.0503 8.18902L13.6628 7.61895ZM13.7603 6.85438C13.7328 7.12961 13.7143 7.31271 13.6949 7.44903C13.6749 7.59001 13.6609 7.62373 13.6628 7.61895L15.0503 8.18902C15.1217 8.01528 15.1558 7.83019 15.18 7.66026C15.2048 7.48566 15.2267 7.26575 15.2529 7.00363L13.7603 6.85438ZM13.7672 6.80314L13.7672 6.80315L15.246 7.05485L15.246 7.05484L13.7672 6.80314ZM13.8687 6.16328C13.805 6.37101 13.7853 6.6047 13.7603 6.85436L15.2529 7.00361C15.2848 6.68405 15.2936 6.63313 15.3027 6.60335L13.8687 6.16328ZM15.3872 4.78911C14.6671 4.93365 14.0842 5.46118 13.8687 6.16328L15.3027 6.60335C15.3566 6.42781 15.5023 6.29592 15.6824 6.25978L15.3872 4.78911ZM16.0854 4.75C15.8346 4.75 15.6002 4.74635 15.3872 4.78911L15.6824 6.25978C15.7129 6.25365 15.7644 6.25 16.0854 6.25V4.75ZM17.4126 4.75H16.0854V6.25H17.4126V4.75ZM18.1139 4.78945C17.8999 4.74632 17.6645 4.75 17.4126 4.75V6.25C17.735 6.25 17.7867 6.25368 17.8174 6.25986L18.1139 4.78945ZM19.6301 6.16167C19.4145 5.46091 18.8326 4.93435 18.1139 4.78945L17.8174 6.25986C17.9971 6.29609 18.1426 6.42774 18.1965 6.60295L19.6301 6.16167ZM18.1027 16.001C18.1027 16.7466 17.4982 17.3511 16.7525 17.3511V18.8511C18.3267 18.8511 19.6027 17.5751 19.6027 16.001H18.1027ZM16.7525 14.6508C17.4982 14.6508 18.1027 15.2553 18.1027 16.001H19.6027C19.6027 14.4268 18.3267 13.1508 16.7525 13.1508V14.6508ZM15.4023 16.001C15.4023 15.2553 16.0068 14.6508 16.7525 14.6508V13.1508C15.1784 13.1508 13.9023 14.4268 13.9023 16.001H15.4023ZM16.7525 17.3511C16.0068 17.3511 15.4023 16.7466 15.4023 16.001H13.9023C13.9023 17.5751 15.1784 18.8511 16.7525 18.8511V17.3511Z" fill="#00ECC3"/>
</svg>
