<svg width="33" height="32" viewBox="0 0 33 32" fill="none" xmlns="http://www.w3.org/2000/svg">
<rect x="0.75" width="32" height="32" rx="6" fill="#282A30"/>
<path fill-rule="evenodd" clip-rule="evenodd" d="M16.75 7C17.1919 7 17.55 7.31713 17.55 7.70833V9.25132C18.7172 9.46337 19.8589 10.0576 20.5784 10.8661C20.8518 11.1734 20.7921 11.6188 20.4451 11.8609C20.098 12.103 19.595 12.0501 19.3216 11.7429C18.7386 11.0877 17.673 10.6131 16.7227 10.5844C16.1749 10.5678 15.7397 10.6997 15.4435 10.9518C15.1518 11.2001 14.8834 11.6602 14.8834 12.5032C14.8834 13.1947 15.1464 13.5516 15.5027 13.8064C15.9233 14.1072 16.512 14.2961 17.2784 14.531C17.2983 14.5371 17.3184 14.5432 17.3386 14.5494C18.0284 14.7606 18.8759 15.02 19.536 15.4921C20.2796 16.0239 20.75 16.7908 20.75 17.8974C20.75 19.0914 20.2886 20.03 19.4959 20.6539C18.9365 21.0942 18.2548 21.344 17.55 21.4352V23.2917C17.55 23.6829 17.1919 24 16.75 24C16.3082 24 15.9501 23.6829 15.9501 23.2917V21.384C14.7302 21.1548 13.5562 20.4976 12.8614 19.4565C12.6366 19.1197 12.7628 18.6854 13.1431 18.4863C13.5235 18.2873 14.0141 18.399 14.2388 18.7358C14.7743 19.5382 15.7918 20.0158 16.7865 20.056C17.439 20.0823 18.0222 19.9183 18.433 19.595C18.8307 19.282 19.15 18.7546 19.15 17.8974C19.15 17.206 18.8871 16.8491 18.5307 16.5942C18.1101 16.2935 17.5214 16.1046 16.755 15.8697C16.7351 15.8636 16.715 15.8574 16.6948 15.8513C16.005 15.64 15.1575 15.3806 14.4974 14.9085C13.7538 14.3767 13.2834 13.6098 13.2834 12.5032C13.2834 11.3923 13.6449 10.5177 14.3347 9.93053C14.8011 9.53353 15.366 9.31197 15.9501 9.2191V7.70833C15.9501 7.31713 16.3082 7 16.75 7Z" fill="#00ECC3"/>
</svg>
