<svg width="33" height="32" viewBox="0 0 33 32" fill="none" xmlns="http://www.w3.org/2000/svg">
<rect x="0.75" width="32" height="32" rx="6" fill="#282A30"/>
<path d="M10.2932 11.7667C9.22036 11.0832 8.68394 10.3091 8.68394 9.44449C8.68394 8.79265 8.95554 8.28339 9.49875 7.91672C10.0465 7.54553 10.8024 7.35994 11.7666 7.35994C12.2691 7.35994 12.7557 7.41199 13.2265 7.51611C13.7018 7.6157 14.2586 7.81487 14.8969 8.11364L14.0753 9.5735C13.6588 9.3698 13.2559 9.20684 12.8666 9.08462C12.4773 8.95787 12.0835 8.8945 11.6852 8.8945C11.3547 8.8945 11.1057 8.95561 10.9382 9.07783C10.7708 9.20005 10.687 9.36528 10.687 9.5735C10.687 9.81795 10.8432 10.0601 11.1555 10.3C11.4679 10.5354 11.9364 10.8116 12.5611 11.1284C13.394 11.5539 14.0051 12.0451 14.3944 12.6019C14.7882 13.1587 14.9851 13.7992 14.9851 14.5235C14.9851 15.6959 14.666 16.5922 14.0277 17.2124C13.3895 17.828 12.4705 18.1358 11.271 18.1358C10.1664 18.1358 9.28147 17.8551 8.61604 17.2938C7.95514 16.7325 7.62469 15.9766 7.62469 15.0259C7.62469 14.2021 7.84197 13.5185 8.27654 12.9753C8.71563 12.4321 9.38785 12.0293 10.2932 11.7667ZM12.8666 14.6593C12.8666 14.2383 12.758 13.858 12.5407 13.5185C12.328 13.179 11.9839 12.878 11.5086 12.6155C10.9518 12.7739 10.5195 13.0591 10.2117 13.471C9.90842 13.8784 9.75677 14.3673 9.75677 14.9377C9.75677 15.3949 9.89258 15.7661 10.1642 16.0512C10.4358 16.3319 10.8092 16.4722 11.2845 16.4722C11.787 16.4722 12.1763 16.3183 12.4524 16.0105C12.7286 15.7027 12.8666 15.2523 12.8666 14.6593Z" fill="#00ECC3"/>
<path d="M22.1899 24.4176H19.9967C19.9967 24.0283 20.0601 23.51 20.1868 22.8627C20.3135 22.2154 20.4765 21.593 20.6757 20.9954L17.7831 13.4856H19.9356L21.0491 16.8331C21.1442 17.1138 21.2664 17.528 21.4158 18.0757C21.5652 18.6234 21.6716 19.0625 21.7349 19.393H21.7757C21.7938 19.1938 21.8662 18.8362 21.993 18.3201C22.1242 17.7996 22.26 17.3378 22.4004 16.935L23.5139 13.4856H25.6664L22.8621 20.9547C22.6584 21.4798 22.4954 22.0592 22.3732 22.6929C22.251 23.3312 22.1899 23.9061 22.1899 24.4176Z" fill="#00ECC3"/>
</svg>
