<svg width="160" height="34" viewBox="0 0 160 34" fill="none" xmlns="http://www.w3.org/2000/svg">
<g clip-path="url(#clip0_2141_2420)">
<path d="M56.2824 13.6394C55.8559 13.1158 55.3089 12.706 54.6397 12.4116C53.9706 12.1171 53.248 11.9699 52.4751 11.9699C51.4246 11.9699 50.4945 12.2225 49.6816 12.7311C48.8703 13.2379 48.2346 13.9254 47.7729 14.7953C47.3112 15.6635 47.082 16.6437 47.082 17.7361C47.082 18.8284 47.3212 19.8538 47.7997 20.7304C48.2781 21.6053 48.9271 22.2928 49.7451 22.793C50.5648 23.2931 51.4731 23.544 52.4735 23.544C53.2246 23.544 53.9221 23.3901 54.5678 23.0874C55.2135 22.7829 55.7839 22.343 56.2808 21.7675V23.2045H59.5461V12.3112H56.2808V13.6394H56.2824ZM55.9847 19.3085C55.7371 19.7618 55.3925 20.1181 54.9526 20.3774C54.5126 20.6367 54.0091 20.7655 53.442 20.7655C52.8749 20.7655 52.3698 20.6367 51.9315 20.3774C51.4915 20.1198 51.1453 19.7635 50.8943 19.3085C50.6418 18.8552 50.5163 18.3366 50.5163 17.7562C50.5163 17.1757 50.6434 16.6555 50.8994 16.2038C51.1536 15.7505 51.5016 15.3942 51.9415 15.1332C52.3815 14.8756 52.8816 14.7451 53.442 14.7451C54.0024 14.7451 54.5109 14.8739 54.9459 15.1332C55.3825 15.3925 55.7271 15.7471 55.978 16.1971C56.2306 16.6471 56.356 17.1657 56.356 17.7562C56.356 18.3467 56.2322 18.8552 55.9847 19.3085ZM92.3246 12.4584C91.7157 12.1339 91.0165 11.9699 90.2302 11.9699C89.444 11.9699 88.7448 12.1422 88.1342 12.4902C87.5253 12.8381 86.9549 13.3567 86.4229 14.0425C86.1319 13.4102 85.6501 12.9084 84.976 12.532C84.3018 12.1556 83.5474 11.9683 82.7093 11.9683C82.0937 11.9683 81.5183 12.0921 80.9863 12.3396C80.4544 12.5872 79.9191 12.9803 79.3805 13.5206L78.9606 14.1379C78.9137 14.0375 78.8636 13.9388 78.8084 13.8435C78.4571 13.2446 77.977 12.7812 77.3664 12.4551C76.7575 12.1305 76.0583 11.9666 75.2721 11.9666C74.4858 11.9666 73.7866 12.1389 73.176 12.4868C72.5671 12.8348 71.9967 13.3533 71.4648 14.0392C71.1737 13.4069 70.6919 12.905 70.0178 12.5287C69.3437 12.1523 68.5892 11.9649 67.7512 11.9649C67.1356 11.9649 66.5601 12.0887 66.0282 12.3363C65.4962 12.5839 64.9609 12.977 64.4223 13.5173V12.3045H61.1586V23.1961H64.4223V16.5701C64.4223 16.2005 64.5143 15.8642 64.6983 15.5598C64.8823 15.2553 65.1399 15.0128 65.4711 14.8354C65.8007 14.6581 66.1737 14.5695 66.5919 14.5695C67.2242 14.5695 67.7177 14.7702 68.0757 15.175C68.4337 15.5798 68.6126 16.1185 68.6126 16.791V23.1944H71.878V16.535C71.878 16.1737 71.97 15.8441 72.154 15.5464C72.338 15.2503 72.5906 15.0111 72.9151 14.8338C73.2379 14.6565 73.6126 14.5678 74.0375 14.5678C74.6531 14.5678 75.1466 14.7719 75.5146 15.18C75.8843 15.5865 76.0683 16.1469 76.0683 16.8545V23.1944H79.3805V16.5685C79.3805 16.1988 79.4725 15.8625 79.6565 15.5581C79.8405 15.2536 80.0981 15.0111 80.4293 14.8338C80.7589 14.6565 81.1319 14.5678 81.5501 14.5678C82.1824 14.5678 82.6759 14.7685 83.0339 15.1734C83.3918 15.5782 83.5708 16.1168 83.5708 16.7893V23.1928H86.8361V16.5333C86.8361 16.172 86.9281 15.8425 87.1121 15.5447C87.2962 15.2486 87.5488 15.0094 87.8733 14.8321C88.1961 14.6548 88.5708 14.5661 88.9957 14.5661C89.6113 14.5661 90.1048 14.7702 90.4728 15.1784C90.8425 15.5849 91.0265 16.1453 91.0265 16.8528V23.1928H94.2918V15.9612C94.2918 15.1449 94.1162 14.439 93.7649 13.8385C93.4136 13.2396 92.9335 12.7762 92.3229 12.45L92.3246 12.4584ZM104.548 13.6394C104.121 13.1158 103.574 12.706 102.905 12.4116C102.236 12.1171 101.513 11.9699 100.74 11.9699C99.6899 11.9699 98.7599 12.2225 97.9469 12.7311C97.1356 13.2379 96.4999 13.9254 96.0382 14.7953C95.5765 15.6635 95.3473 16.6437 95.3473 17.7361C95.3473 18.8284 95.5866 19.8538 96.065 20.7304C96.5434 21.6053 97.1924 22.2928 98.0104 22.793C98.8301 23.2931 99.7384 23.544 100.739 23.544C101.49 23.544 102.187 23.3901 102.833 23.0874C103.479 22.7829 104.049 22.343 104.546 21.7675V23.2045H107.811V12.3112H104.546V13.6394H104.548ZM104.25 19.3085C104.002 19.7618 103.658 20.1181 103.218 20.3774C102.778 20.6367 102.274 20.7655 101.707 20.7655C101.14 20.7655 100.635 20.6367 100.197 20.3774C99.7568 20.1198 99.4106 19.7635 99.1597 19.3085C98.9071 18.8552 98.7816 18.3366 98.7816 17.7562C98.7816 17.1757 98.9087 16.6555 99.1647 16.2038C99.4189 15.7505 99.7669 15.3942 100.207 15.1332C100.647 14.8756 101.147 14.7451 101.707 14.7451C102.268 14.7451 102.776 14.8739 103.211 15.1332C103.648 15.3925 103.992 15.7471 104.243 16.1971C104.496 16.6471 104.621 17.1657 104.621 17.7562C104.621 18.3467 104.498 18.8552 104.25 19.3085ZM109.496 23.2011H112.76V6.97998H109.496V23.2011ZM123.261 13.6394C122.828 13.1158 122.286 12.706 121.634 12.4116C120.981 12.1171 120.272 11.9699 119.506 11.9699C118.457 11.9699 117.522 12.2225 116.702 12.7311C115.883 13.2379 115.239 13.9254 114.767 14.7953C114.295 15.6635 114.061 16.6504 114.061 17.7578C114.061 18.8652 114.302 19.8856 114.785 20.7572C115.267 21.6304 115.913 22.3129 116.726 22.8047C117.537 23.2965 118.437 23.544 119.422 23.544C120.182 23.544 120.891 23.3885 121.55 23.0757C122.209 22.7628 122.781 22.3279 123.263 21.7675V23.2981C123.263 23.8803 123.131 24.3922 122.87 24.8354C122.607 25.2804 122.241 25.6233 121.774 25.8676C121.306 26.1135 120.764 26.2356 120.147 26.2356C119.466 26.2356 118.833 26.0867 118.253 25.7889C117.671 25.4912 117.231 25.0914 116.935 24.5862L114.275 25.8843C114.728 26.9264 115.456 27.7143 116.455 28.2496C117.455 28.7849 118.688 29.0526 120.157 29.0526C121.625 29.0526 122.778 28.8134 123.72 28.3349C124.663 27.8565 125.366 27.1974 125.831 26.3627C126.294 25.5246 126.528 24.5711 126.528 23.5022V12.3112H123.263V13.6394H123.261ZM122.964 19.3152C122.716 19.7652 122.37 20.1198 121.926 20.3774C121.483 20.6367 120.975 20.7655 120.401 20.7655C119.827 20.7655 119.34 20.6367 118.9 20.3774C118.46 20.1198 118.118 19.7635 117.868 19.3152C117.621 18.8636 117.497 18.3517 117.497 17.7779C117.497 17.2041 117.624 16.6772 117.88 16.2189C118.134 15.7622 118.482 15.4009 118.922 15.1382C119.362 14.8756 119.862 14.7451 120.423 14.7451C120.983 14.7451 121.483 14.8756 121.921 15.1382C122.361 15.4009 122.708 15.7588 122.959 16.2122C123.211 16.6655 123.337 17.1874 123.337 17.7762C123.337 18.3651 123.213 18.8619 122.965 19.3135L122.964 19.3152ZM136.908 13.6394C136.481 13.1158 135.935 12.706 135.265 12.4116C134.596 12.1171 133.874 11.9699 133.101 11.9699C132.05 11.9699 131.12 12.2225 130.307 12.7311C129.496 13.2379 128.86 13.9254 128.399 14.7953C127.937 15.6635 127.708 16.6437 127.708 17.7361C127.708 18.8284 127.947 19.8538 128.425 20.7304C128.904 21.6053 129.553 22.2928 130.371 22.793C131.19 23.2931 132.099 23.544 133.099 23.544C133.85 23.544 134.548 23.3901 135.193 23.0874C135.839 22.7829 136.41 22.343 136.906 21.7675V23.2045H140.172V12.3112H136.906V13.6394H136.908ZM136.61 19.3085C136.363 19.7618 136.018 20.1181 135.578 20.3774C135.138 20.6367 134.635 20.7655 134.068 20.7655C133.501 20.7655 132.995 20.6367 132.557 20.3774C132.117 20.1198 131.771 19.7635 131.52 19.3085C131.267 18.8552 131.142 18.3366 131.142 17.7562C131.142 17.1757 131.269 16.6555 131.525 16.2038C131.779 15.7505 132.127 15.3942 132.567 15.1332C133.007 14.8756 133.507 14.7451 134.068 14.7451C134.628 14.7451 135.137 14.8739 135.571 15.1332C136.008 15.3925 136.353 15.7471 136.604 16.1971C136.856 16.6471 136.982 17.1657 136.982 17.7562C136.982 18.3467 136.858 18.8552 136.61 19.3085ZM159.355 13.8468C159.004 13.248 158.524 12.7846 157.913 12.4584C157.305 12.1339 156.605 11.9699 155.819 11.9699C155.033 11.9699 154.334 12.1422 153.723 12.4902C153.114 12.8381 152.544 13.3567 152.012 14.0425C151.721 13.4102 151.239 12.9084 150.566 12.532C149.892 12.1556 149.138 11.9683 148.3 11.9683C147.684 11.9683 147.109 12.0921 146.577 12.3396C146.045 12.5872 145.51 12.9803 144.971 13.5206V12.3078H141.707V23.1994H144.971V16.5735C144.971 16.2038 145.063 15.8676 145.247 15.5631C145.431 15.2587 145.689 15.0161 146.02 14.8388C146.349 14.6615 146.722 14.5728 147.141 14.5728C147.773 14.5728 148.266 14.7736 148.624 15.1784C148.982 15.5832 149.161 16.1218 149.161 16.7943V23.1978H152.427V16.5384C152.427 16.177 152.519 15.8475 152.703 15.5497C152.887 15.2536 153.139 15.0144 153.464 14.8371C153.787 14.6598 154.161 14.5711 154.586 14.5711C155.202 14.5711 155.695 14.7752 156.063 15.1834C156.433 15.5899 156.617 16.1503 156.617 16.8579V23.1978H159.882V15.9663C159.882 15.1499 159.707 14.444 159.355 13.8435V13.8468Z" fill="#03060D"/>
<path d="M28.2603 10.8538V12.1084L31.5206 13.9903L32.6079 13.363L28.2603 10.8521V10.8538ZM33.6952 15.2465L32.6079 15.8738V19.6393L33.6952 20.2666V15.2465ZM22.8254 13.9919V7.71726L17.3904 4.57909V5.83369L21.738 8.34289V13.363L17.3904 10.8521V12.1067L21.738 14.6176V19.6376L22.8254 20.2649V15.2449L27.173 17.7557V22.7758L28.2603 23.4031V17.1284L22.8254 13.9903V13.9919ZM10.8682 15.8738V19.6393L11.9555 20.2666V15.2465L10.8682 15.8738ZM16.3031 6.46099V10.2265L17.3904 10.8538V5.83369L16.3031 6.46099ZM6.52058 5.83369L10.8682 8.34289V13.363L11.9572 13.9903L11.9538 7.71559L5.43493 3.95179V10.2265L6.52225 10.8538V5.83369H6.52058ZM27.173 6.46099V10.2265L28.2603 10.8538V5.83369L27.173 6.46099ZM6.52225 12.1084L9.78254 13.9903L10.8699 13.363L6.52225 10.8521V12.1067V12.1084ZM27.173 3.95179L22.8254 1.44092V2.69552L26.0856 4.57742L27.173 3.95012V3.95179ZM16.3031 3.95179L11.9555 1.44092V2.69552L15.2158 4.57742L16.3031 3.95012V3.95179ZM27.173 25.2883V29.0538L28.2603 29.6811V24.661L27.173 25.2883ZM17.3904 24.661L21.738 27.1719L21.723 31.9745L17.3904 29.6828V30.9374L22.8254 34.0756V26.5446L17.3904 23.4064V24.661ZM16.3031 25.2883V29.0538L17.3904 29.6811V24.661L16.3031 25.2883ZM6.52058 17.1301L0 13.3646V20.8956L5.43493 24.0337V30.3084L10.8699 33.4466L11.9572 34.0739V26.5429L6.52225 23.4048V17.1301H6.52058ZM5.43326 22.7775L1.08565 20.2666V15.2465L5.43326 17.7574V22.7775ZM10.8682 27.1702V32.1903L6.52058 29.6794V24.6594L10.8682 27.1702ZM22.8254 21.5229L26.0856 23.4048L27.173 22.7775L22.8254 20.2666V21.5212V21.5229ZM11.9555 20.2683V21.5229L15.2158 23.4048L16.3031 22.7775L11.9555 20.2666V20.2683Z" fill="#074DA0"/>
<path d="M6.81969 10.8538L2.47209 13.3646L3.55941 13.9919L6.81969 12.11V10.8554V10.8538ZM1.38477 20.2666L2.47209 19.6393V15.8738L1.38477 15.2465V20.2666ZM12.2546 15.2465V20.2666L13.3419 19.6393V14.6192L17.6895 12.1084V10.8538L13.3419 13.3646V8.34456L17.6895 5.83536V4.58076L12.2546 7.71893L12.258 13.9936L6.81969 17.1318V23.4064L7.90701 22.7791V17.7591L12.2546 15.2482V15.2465ZM24.2118 15.8738L23.1245 15.2465V20.2666L24.2118 19.6393V15.8738ZM18.7785 10.2265V6.46099L17.6912 5.83369V10.8538L18.7785 10.2265ZM23.1262 13.9919L24.2135 13.3646V8.34456L28.5611 5.83536V10.8554L29.6484 10.2281V3.95179L23.1262 7.71726V13.9919ZM7.90534 6.46099L6.81802 5.83369V10.8538L7.90367 10.2265V6.46099H7.90534ZM25.2974 13.9903L28.5577 12.1084V10.8538L24.2101 13.3646L25.2974 13.9919V13.9903ZM12.2546 20.2649L7.90701 22.7758L8.99433 23.4031L12.2546 21.5212V20.2666V20.2649ZM12.2546 2.69384V1.44092L7.90701 3.95179L8.99433 4.57909L12.2546 2.69719V2.69384ZM23.1245 20.2649L18.7769 22.7758L19.8642 23.4031L23.1245 21.5212V20.2666V20.2649ZM23.1245 2.69384V1.44092L18.7769 3.95179L19.8642 4.57909L23.1245 2.69719V2.69384ZM6.81969 29.6811L7.90701 29.0538V25.2883L6.81969 24.661V29.6811ZM13.3419 27.1702L17.6895 24.6594V23.4048L12.2546 26.5429V34.0739L17.6895 30.9357V29.6811L13.3419 32.192V27.1719V27.1702ZM17.6895 29.6811L18.7769 29.0538V25.2883L17.6895 24.661V29.6811ZM34.7304 13.567L28.5594 17.1301V23.4048L23.1245 26.5429V34.0739L29.6467 30.3084V24.0337L35.0817 20.8956V13.3646L34.7304 13.567ZM28.5594 29.6811L24.2118 32.192V27.1719L28.5594 24.661V29.6811ZM33.9943 20.2683L29.6467 22.7791V17.7591L33.9943 15.2482V20.2683Z" fill="#00ECC3"/>
<path d="M13.0445 11.9782V13.2328L17.3921 10.7219L16.3065 10.0946L13.0462 11.9765L13.0445 11.9782ZM13.0445 30.8039V32.0585L17.3921 29.5476L16.3048 28.9203L13.0445 30.8022V30.8039ZM21.7397 13.2328V11.9782L18.4794 10.0963L17.3921 10.7236L21.7397 13.2345V13.2328ZM17.3921 29.5493L21.7397 32.0602V30.8056L18.4794 28.9237L17.3921 29.551V29.5493ZM27.1746 10.0946L23.9144 11.9765V13.2311L28.262 10.7203L27.1746 10.0929V10.0946ZM1.08732 20.1364L5.43493 22.6473V21.3927L2.17464 19.5108L1.08732 20.1381V20.1364ZM29.3476 21.391V22.6456L33.6952 20.1348L32.6079 19.5075L29.3476 21.3894V21.391ZM11.9588 13.8601L10.8699 13.2328L6.52225 15.7437L2.17464 13.2328L6.52225 10.7219L5.43493 10.0946L0 13.2345L6.52225 16.9999L11.9605 13.8618L11.9588 13.8601ZM28.2603 10.7219L32.6079 13.2328L28.2603 15.7437L23.9127 13.2328L22.8254 13.8601L28.2603 16.9983L34.7825 13.2328L29.3476 10.0946L28.2603 10.7219ZM10.8699 19.5075L7.60957 21.3894V22.644L11.9572 20.1331L10.8699 19.5058V19.5075ZM23.9127 19.5075L22.8254 20.1348L27.173 22.6456V21.391L23.9127 19.5091V19.5075ZM10.8749 11.9765L7.60957 10.0946L6.52225 10.7219L10.8699 13.2328L10.8749 11.9782V11.9765ZM6.52225 29.5476L10.8699 32.0585V30.8039L7.60957 28.922L6.52225 29.5493V29.5476ZM23.9127 30.8022V32.0568L28.2603 29.5459L27.173 28.9186L23.9127 30.8005V30.8022ZM22.8254 25.1548L18.4778 22.644L22.8254 20.1331L21.738 19.5058L17.3904 22.0167L13.0428 19.5058L11.9555 20.1331L16.3031 22.644L11.9555 25.1548L7.6079 22.644L6.52058 23.2713L11.9555 26.4094L17.3904 23.2713L22.8254 26.4094L28.2603 23.2713L27.173 22.644L22.8254 25.1548ZM11.9555 7.5871L17.3904 4.44892L22.8254 7.5871L29.3476 3.82162L28.2603 3.19432L22.8254 0.0561523L17.3904 3.19432L11.9555 0.0561523L5.43493 3.82162L6.52225 4.44892L11.9572 7.5871H11.9555ZM22.8254 1.31075L27.173 3.82162L22.8254 6.3325L18.4778 3.82162L22.8254 1.31075ZM11.9555 1.31075L16.3031 3.82162L11.9555 6.3325L7.6079 3.82162L11.9555 1.31075Z" fill="#019280"/>
</g>
<defs>
<clipPath id="clip0_2141_2420">
<rect width="160" height="33.8876" fill="white" transform="translate(0 0.0561523)"/>
</clipPath>
</defs>
</svg>
