<svg width="40" height="40" viewBox="0 0 40 40" fill="none" xmlns="http://www.w3.org/2000/svg">
<rect width="40" height="40" rx="20" fill="#282A30"/>
<path d="M15.8529 12.925C16.4787 13.137 17.074 13.4301 17.6237 13.7967C18.4 13.5983 19.1983 13.4986 19.9995 13.5C20.827 13.5 21.6254 13.6033 22.3737 13.7958C22.9232 13.4296 23.5182 13.1368 24.1437 12.925C24.7245 12.7275 25.552 12.4075 26.0437 12.9517C26.377 13.3217 26.4604 13.9417 26.5195 14.415C26.5862 14.9433 26.602 15.6317 26.427 16.315C27.0962 17.1792 27.4995 18.21 27.4995 19.3333C27.4995 21.035 26.5779 22.5125 25.2137 23.5358C24.5572 24.0221 23.829 24.4033 23.0554 24.6658C23.2337 25.0742 23.3329 25.5258 23.3329 26V28.5C23.3329 28.721 23.2451 28.933 23.0888 29.0893C22.9325 29.2455 22.7206 29.3333 22.4995 29.3333H17.4995C17.2785 29.3333 17.0666 29.2455 16.9103 29.0893C16.754 28.933 16.6662 28.721 16.6662 28.5V27.6742C15.8704 27.7717 15.2029 27.685 14.6354 27.4442C14.042 27.1925 13.6287 26.8025 13.3179 26.4292C13.0229 26.0758 12.7012 25.2792 12.2362 25.1242C12.1324 25.0896 12.0363 25.0349 11.9536 24.9632C11.8709 24.8915 11.8031 24.8042 11.7541 24.7063C11.6552 24.5086 11.6389 24.2798 11.7087 24.07C11.7785 23.8603 11.9288 23.6869 12.1265 23.5879C12.3242 23.489 12.5531 23.4727 12.7629 23.5425C13.3179 23.7275 13.6795 24.1275 13.927 24.4492C14.327 24.9658 14.652 25.6408 15.2854 25.91C15.5462 26.0208 15.9287 26.0933 16.527 26.0117L16.6662 25.9833C16.6678 25.5298 16.7622 25.0815 16.9437 24.6658C16.17 24.4034 15.4419 24.0221 14.7854 23.5358C13.4212 22.5125 12.4995 21.0358 12.4995 19.3333C12.4995 18.2117 12.902 17.1817 13.5695 16.3183C13.3945 15.635 13.4095 14.945 13.4762 14.4158L13.4804 14.3842C13.5412 13.8992 13.612 13.3283 13.952 12.9517C14.4437 12.4075 15.272 12.7283 15.852 12.9258L15.8529 12.925Z" fill="white"/>
</svg>
