<svg width="1190" height="230" viewBox="0 0 1190 230" fill="none" xmlns="http://www.w3.org/2000/svg">
<g clip-path="url(#clip0_2504_685)">
<rect width="1190" height="230" fill="#03060D"/>
<g opacity="0.4" filter="url(#filter0_f_2504_685)">
<path d="M-37.2539 600.498C-83.7774 526.59 -256.889 -99.1192 64.5561 -301.463C386.001 -503.807 1257.49 -416.156 1304.01 -342.248C1350.54 -268.341 895.359 -201.181 573.913 1.16258C271.288 242.765 9.26957 674.406 -37.2539 600.498Z" fill="#185DFF"/>
</g>
<g opacity="0.4" filter="url(#filter1_f_2504_685)">
<path d="M-37.2559 480.942C-83.7794 407.035 -256.891 -218.675 64.5541 -421.019C386 -623.362 1257.49 -535.712 1304.01 -461.804C1350.53 -387.896 895.357 -320.737 573.911 -118.393C271.286 123.209 9.26762 554.85 -37.2559 480.942Z" fill="#1354DF"/>
</g>
<g opacity="0.4" filter="url(#filter2_f_2504_685)">
<ellipse cx="83.5519" cy="-90.47" rx="413.39" ry="240.925" transform="rotate(134.556 83.5519 -90.47)" fill="#00FFB7"/>
</g>
<path opacity="0.2" fill-rule="evenodd" clip-rule="evenodd" d="M379.817 -113.165L326.44 -82.3472L379.815 -51.5308L433.074 -82.2799V-82.3671L433.117 -82.3919L379.817 -113.165ZM325.79 -81.8871L379.092 -51.1132L379.051 -51.0895V11.2539L325.751 -19.5189V-81.8645L325.79 -81.8871ZM379.774 -50.6718V11.0478L379.856 11.0004V-50.6718L379.815 -50.6955L379.774 -50.6718ZM487.907 73.6899V12.6414L487.866 12.6177L487.825 12.6414V73.6876L487.864 73.665L487.907 73.6899ZM488.63 74.1075V13.0591L541.127 43.3679V104.416L488.63 74.1075ZM541.85 104.834V43.7856L541.891 43.8093L541.931 43.7867V104.834L541.89 104.857L541.85 104.834ZM542.654 104.416V43.3691L595.148 13.0613V74.1087L542.654 104.416ZM595.872 73.691V12.6437L595.915 12.6189L595.958 12.6437V73.6887L595.917 73.665L595.872 73.691ZM703.963 12.6183L703.921 12.6426V73.6899L703.964 73.665L704.005 73.6887V12.6426L703.963 12.6183ZM703.197 13.0602L650.707 43.3657V104.413L703.197 74.1075V13.0602ZM649.938 43.8093L649.897 43.7856V104.831L649.94 104.855L649.983 104.831V43.7833L649.938 43.8093ZM649.174 43.3679L596.681 13.0613V74.1064L649.174 104.413V43.3679ZM704.728 -51.0895V10.5816L757.225 -19.7272V-81.4469L704.686 -51.1138L704.728 -51.0895ZM704.005 -50.6718L703.963 -50.6961L703.921 -50.6718V10.9993L703.963 11.0235L704.005 10.9993V-50.6718ZM757.225 -82.2822L703.963 -51.5314L650.707 -82.2788V-82.3671L650.664 -82.3919L703.964 -113.165L757.266 -82.3908L757.225 -82.3671V-82.2822ZM703.239 -51.1138L650.707 -81.4435V-19.7239L703.197 10.5816V-51.0895L703.239 -51.1138ZM649.938 -81.8871L649.897 -81.8634V-20.1438L649.938 -20.1675L649.983 -20.1415V-81.8612L649.938 -81.8871ZM649.174 -82.3671V-82.281L595.915 -51.532L542.654 -82.2822V-82.3671L542.614 -82.3902L595.917 -113.165L649.217 -82.3919L649.174 -82.3671ZM649.174 -81.4457L596.638 -51.1143L596.681 -51.0895V10.5805L649.174 -19.7261V-81.4457ZM595.958 -50.6718L595.915 -50.6967L595.872 -50.6718V10.9981L595.915 11.023L595.958 10.9981V-50.6718ZM595.148 -51.0895L595.191 -51.1143L542.654 -81.4469V-19.7273L595.148 10.5805V-51.0895ZM541.891 -81.8871L541.85 -81.8634V-20.1438L541.891 -20.1675L541.931 -20.1449V-81.8645L541.891 -81.8871ZM541.127 -82.3671V-82.281L487.866 -51.5308L434.607 -82.2799V-82.3671L434.564 -82.3919L487.864 -113.165L541.167 -82.3902L541.127 -82.3671ZM541.127 -81.4457L488.589 -51.1132L488.63 -51.0895V10.5827L541.127 -19.7261V-81.4457ZM434.607 -81.4446L487.143 -51.1132L487.102 -51.0895V10.5827L434.607 -19.725V-81.4446ZM487.825 -50.6718V11.0004L487.866 11.0241L487.907 11.0004V-50.6718L487.866 -50.6955L487.825 -50.6718ZM487.102 13.0591L434.607 43.3668V104.413L487.102 74.1053V13.0591ZM433.841 43.8093L433.798 43.7845V104.88L433.884 104.831V43.7845L433.841 43.8093ZM433.074 43.3668L379.815 12.6177L379.774 12.6414V74.3137L433.074 105.086V43.3668ZM433.841 -81.8871L433.798 -81.8623V-20.1426L433.841 -20.1675L433.884 -20.1427V-81.8623L433.841 -81.8871ZM433.074 -19.725V-81.4446L380.539 -51.1132L380.58 -51.0895V10.5827L433.074 -19.725ZM325.027 -82.3671V-82.2822L271 -51.0895V12.1764L325.027 43.3691V106.009L379.051 137.199V199.217L325.027 230.408V230.493L271 261.685V324.951L325.027 356.144V418.784L379.051 449.974V512.616L433.841 544.249L487.866 513.058L541.891 544.249L595.915 513.059L649.938 544.249L703.963 513.058L757.987 544.249L812.013 513.057L866.04 544.249L920.065 513.058L974.091 544.249L1028.11 513.059L1082.14 544.249L1136.16 513.058L1190.19 544.249L1244.98 512.616V512.53L1299 481.339V418.073L1244.98 386.881V324.24L1190.95 293.05V231.032L1244.98 199.841V199.755L1299 168.564V105.298L1244.98 74.1064V11.4654L1190.95 -19.725V-82.3671L1136.16 -114L1082.14 -82.8084L1028.11 -114L974.089 -82.8096L920.065 -114L866.04 -82.8084L812.014 -114L757.989 -82.8084L703.964 -114L649.94 -82.8096L595.917 -114L541.89 -82.8079L487.864 -114L433.841 -82.8096L379.817 -114L325.027 -82.3671ZM433.074 356.142L379.815 325.393L379.774 325.416V387.089L433.074 417.861V356.142ZM487.907 325.416V386.465L487.864 386.44L487.825 386.463V325.416L487.866 325.393L487.907 325.416ZM488.63 325.834V386.883L541.127 417.191V356.143L488.63 325.834ZM541.85 356.561V417.609L541.89 417.632L541.931 417.609V356.562L541.891 356.584L541.85 356.561ZM542.654 356.144V417.191L595.148 386.884V325.836L542.654 356.144ZM595.872 325.419V386.466L595.917 386.44L595.958 386.464V325.419L595.915 325.394L595.872 325.419ZM703.921 325.418L703.963 325.393L704.005 325.418V386.464L703.964 386.44L703.921 386.465V325.418ZM650.707 356.141L703.197 325.835V386.883L650.707 417.188V356.141ZM649.897 356.561L649.938 356.584L649.983 356.558V417.606L649.94 417.63L649.897 417.606V356.561ZM596.681 325.836L649.174 356.143V417.188L596.681 386.881V325.836ZM704.728 323.357V261.685L704.686 261.661L757.225 231.328V293.048L704.728 323.357ZM703.963 262.079L704.005 262.103V323.774L703.963 323.798L703.921 323.774V262.103L703.963 262.079ZM703.963 261.244L756.756 230.763L703.963 200.283L651.169 230.763L703.963 261.244ZM650.707 231.331L703.239 261.661L703.197 261.685V323.357L650.707 293.051V231.331ZM648.707 230.763L595.915 200.284L543.122 230.763L595.915 261.243L648.707 230.763ZM596.638 261.661L649.174 231.329V293.049L596.681 323.355V261.685L596.638 261.661ZM595.915 262.078L595.958 262.103V323.773L595.915 323.798L595.872 323.773V262.103L595.915 262.078ZM595.191 261.661L595.148 261.685V323.355L542.654 293.048V231.328L595.191 261.661ZM540.66 230.763L487.866 200.283L435.072 230.763L487.866 261.244L540.66 230.763ZM488.589 261.662L541.127 231.329V293.049L488.63 323.358V261.685L488.589 261.662ZM487.143 261.662L434.607 231.33V293.05L487.102 323.358V261.685L487.143 261.662ZM487.825 323.775V262.103L487.866 262.079L487.907 262.103V323.775L487.866 323.799L487.825 323.775ZM434.607 356.142L487.102 325.834V386.88L434.607 417.188V356.142ZM433.798 356.559L433.841 356.584L433.884 356.559V417.606L433.798 417.655V356.559ZM432.61 230.763L379.815 261.244L326.44 230.428L379.234 199.947L432.61 230.763ZM379.092 261.662L325.79 230.888L325.751 230.91V293.256L379.051 324.029V261.685L379.092 261.662ZM380.539 261.662L380.58 261.685V323.358L433.074 293.05V231.33L380.539 261.662ZM379.815 262.079L379.774 262.103V323.823L379.856 323.775V262.103L379.815 262.079ZM325.751 356.562L325.79 356.584L379.051 325.834V387.506L432.609 418.428L379.234 449.245L325.751 418.366V356.562ZM325.027 231.328V293.674L378.586 324.596L325.209 355.413L271.723 324.534V262.103L325.027 231.328ZM271.723 11.7587L325.208 42.6384L378.586 11.8209L325.027 -19.1012V-81.4469L271.723 -50.6718V11.7587ZM325.751 105.591V43.7867L325.79 43.8093L379.051 13.0591V74.7313L432.609 105.653L379.234 136.47L325.751 105.591ZM486.633 324.596L433.841 294.116L381.048 324.596L433.841 355.075L486.633 324.596ZM649.983 419.251V480.921L649.94 480.946L649.897 480.921V419.251L649.94 419.226L649.983 419.251ZM650.707 419.669V481.339L650.664 481.364L703.197 511.694V449.974L650.707 419.669ZM703.921 450.392V512.112L703.964 512.136L704.005 512.113V450.393L703.964 450.417L703.921 450.392ZM704.728 449.975V511.695L757.266 481.363L757.225 481.339V419.667L704.728 449.975ZM757.948 419.249V480.921L757.989 480.945L758.03 480.921V419.249L757.989 419.225L757.948 419.249ZM758.754 417.19L811.25 386.881V325.833L758.754 356.142V417.19ZM757.948 356.562L757.987 356.584L758.03 356.559V417.608L757.989 417.632L757.948 417.608V356.562ZM704.728 325.835L757.225 356.144V417.19L704.728 386.881V325.835ZM812.054 323.777L812.013 323.8L811.973 323.776V262.103L812.013 262.08L812.054 262.103V323.777ZM811.29 261.662L758.754 231.33V293.05L811.25 323.359V261.685L811.29 261.662ZM812.737 261.662L812.777 261.685V323.359L865.275 293.049V231.329L812.737 261.662ZM864.809 230.763L812.013 261.245L759.218 230.763L812.013 200.282L864.809 230.763ZM866.804 231.329V293.049L919.301 323.358V261.685L919.342 261.662L866.804 231.329ZM920.065 262.079L920.024 262.103V323.775L920.065 323.799L920.106 323.775V262.103L920.065 262.079ZM1028.16 325.42V386.466L1028.11 386.44L1028.07 386.465V325.42L1028.11 325.394L1028.16 325.42ZM1028.88 325.837V386.884L1081.37 417.19V356.144L1028.88 325.837ZM1082.1 356.562V417.608L1082.14 417.632L1082.18 417.608V356.559L1082.14 356.584L1082.1 356.562ZM1082.9 356.142V417.19L1135.4 386.883V325.834L1082.9 356.142ZM1136.12 325.416V386.465L1136.16 386.44L1136.2 386.463V325.369L1136.12 325.416ZM1136.93 323.358L1190.19 292.607L1190.23 292.632V231.449L1190.19 231.474L1136.16 200.283L1083.37 230.763L1136.93 261.685V323.358ZM1080.9 230.763L1028.11 200.284L975.322 230.763L1028.11 261.242L1080.9 230.763ZM1028.84 261.66L1081.37 231.328V293.048L1028.88 323.354V261.685L1028.84 261.66ZM1027.39 261.66L974.855 231.329V293.049L1027.35 323.354V261.685L1027.39 261.66ZM1028.07 323.772V262.103L1028.11 262.078L1028.16 262.103V323.772L1028.11 323.797L1028.07 323.772ZM1136.2 323.775L1136.16 323.799L1082.9 293.05V231.33L1136.2 262.103V323.775ZM974.855 356.143L1027.35 325.837V386.883L974.855 417.188V356.143ZM974.046 356.558L974.091 356.584L974.132 356.561V417.606L974.089 417.63L974.046 417.606V356.558ZM920.83 325.834L973.322 356.141V417.188L920.83 386.881V325.834ZM920.065 325.393L920.106 325.416V386.464L920.065 386.44L920.024 386.464V325.416L920.065 325.393ZM973.322 231.331V293.051L920.83 323.358V261.685L920.789 261.662L973.322 231.331ZM972.86 230.763L920.065 261.244L867.271 230.763L920.065 200.283L972.86 230.763ZM866.804 356.143L919.301 325.834V386.881L866.804 417.19V356.143ZM865.999 356.561L866.04 356.584L866.081 356.561V417.608L866.04 417.632L865.999 417.608V356.561ZM812.777 325.833L865.275 356.143V417.19L812.777 386.88V325.833ZM812.013 325.392L812.054 325.415V386.463L812.014 386.44L811.973 386.464V325.415L812.013 325.392ZM757.989 355.077L810.783 324.596L757.989 294.115L705.195 324.596L757.989 355.077ZM702.732 324.596L649.94 294.116L597.148 324.596L649.94 355.075L702.732 324.596ZM596.681 449.975L649.174 419.669V481.339L649.217 481.364L596.681 511.695V449.975ZM595.872 450.391L595.917 450.417L595.958 450.393V512.113L595.917 512.136L595.872 512.11V450.391ZM542.654 419.665L595.148 449.973V511.693L542.614 481.362L542.654 481.339V419.665ZM541.89 419.225L541.931 419.248V480.921L541.89 480.944L541.85 480.921V419.248L541.89 419.225ZM594.686 324.596L541.89 355.077L489.095 324.596L541.89 294.115L594.686 324.596ZM488.63 449.974L541.127 419.665V481.339L541.167 481.362L488.63 511.694V449.974ZM487.825 450.394L487.864 450.417L487.907 450.392V512.112L487.864 512.136L487.825 512.114V450.394ZM433.841 419.226L487.102 449.977V511.696L433.798 480.921V419.251L433.841 419.226ZM379.774 450.392L379.817 450.417L433.074 419.669V481.339L487.102 512.532V512.616L487.143 512.64L433.841 543.414L379.774 512.199V450.392ZM433.841 106.451L487.102 137.201V198.921L433.798 168.146V106.476L433.841 106.451ZM487.825 198.798V137.619L487.864 137.642L487.907 137.617V198.8L487.864 198.775L487.825 198.798ZM488.63 198.919V137.199L541.127 106.89V168.564L541.167 168.587L488.63 198.919ZM541.85 168.146V106.473L541.89 106.45L541.931 106.473V168.146L541.89 168.169L541.85 168.146ZM649.983 168.146V106.476L649.94 106.451L649.897 106.476V168.146L649.94 168.171L649.983 168.146ZM650.707 168.564V106.894L703.197 137.199V198.919L650.664 168.589L650.707 168.564ZM703.921 198.8V137.617L703.964 137.642L704.005 137.618V198.799L703.964 198.775L703.921 198.8ZM704.728 198.92V137.2L757.225 106.891V168.564L757.266 168.588L704.728 198.92ZM757.948 168.146V106.474L757.989 106.45L758.03 106.474V168.146L757.989 168.17L757.948 168.146ZM811.25 74.1064L758.754 104.415V43.3668L811.25 13.058V74.1064ZM757.987 43.8093L757.948 43.7867V104.833L757.989 104.857L758.03 104.833V43.7845L757.987 43.8093ZM757.225 43.3691L704.728 13.0602V74.1064L757.225 104.415V43.3691ZM812.013 11.0246L812.054 11.0015V-50.6718L812.013 -50.695L811.973 -50.6718V11.0015L812.013 11.0246ZM758.754 -81.4446L811.29 -51.1126L811.25 -51.0895V10.5838L758.754 -19.725V-81.4446ZM812.777 -51.0895L812.737 -51.1126L865.275 -81.4457V-19.7261L812.777 10.5838V-51.0895ZM812.013 -51.5303L865.275 -82.281V-82.3671L865.316 -82.3908L812.014 -113.165L758.712 -82.3908L758.754 -82.3671V-82.2799L812.013 -51.5303ZM866.04 -81.8871L865.999 -81.8634V-20.1438L866.04 -20.1675L866.081 -20.1438V-81.8634L866.04 -81.8871ZM920.106 -50.6718L920.065 -50.6955L920.024 -50.6718V11.0004L920.065 11.0241L920.106 11.0004V-50.6718ZM920.83 -51.0895L920.789 -51.1132L973.322 -81.4435V-19.7239L920.83 10.5827V-51.0895ZM920.065 -51.5308L973.322 -82.2788V-82.3671L973.365 -82.3919L920.065 -113.165L866.763 -82.3908L866.804 -82.3671V-82.281L920.065 -51.5308ZM974.091 -81.8871L974.046 -81.8611V-20.1415L974.091 -20.1675L974.132 -20.1438V-81.8634L974.091 -81.8871ZM1028.16 -50.6718L1028.11 -50.6972L1028.07 -50.6718V10.997L1028.11 11.0224L1028.16 10.997V-50.6718ZM1028.88 -51.0895L1028.84 -51.1149L1081.37 -81.4469V-19.7272L1028.88 10.5793V-51.0895ZM1028.11 -51.5325L1081.37 -82.2822V-82.3671L1081.41 -82.3908L1028.11 -113.165L974.812 -82.3919L974.855 -82.3671V-82.281L1028.11 -51.5325ZM1082.14 -81.8871L1082.1 -81.8645V-20.1449L1082.14 -20.1675L1082.18 -20.1427V-81.8623L1082.14 -81.8871ZM1136.2 -50.6718L1082.9 -81.4446V-19.725L1136.16 11.0241L1136.2 11.0004V-50.6718ZM1136.93 -51.0895V10.5827L1190.19 -20.1675L1190.23 -20.1427V-81.9494L1136.16 -113.165L1082.86 -82.3908L1082.9 -82.3671V-82.2799L1136.93 -51.0895ZM1136.2 12.5941L1136.12 12.6415V73.6899L1136.16 73.665L1136.2 73.6876V12.5941ZM1135.4 13.0591L1082.9 43.3668V104.415L1135.4 74.1075V13.0591ZM1082.14 43.8093L1082.1 43.7867V104.833L1082.14 104.857L1082.18 104.833V43.7845L1082.14 43.8093ZM1081.37 43.3691L1028.88 13.0625V74.1087L1081.37 104.415V43.3691ZM1028.16 12.6448L1028.11 12.6194L1028.07 12.6448V73.6899L1028.11 73.665L1028.16 73.691V12.6448ZM974.855 -19.7261L1027.35 10.5793V-51.0895L1027.39 -51.1149L974.855 -81.4457V-19.7261ZM1027.35 13.0625L974.855 43.3679V104.413L1027.35 74.1075V13.0625ZM974.091 43.8093L974.046 43.7833V104.831L974.089 104.855L974.132 104.831V43.7856L974.091 43.8093ZM973.322 43.3657L920.83 13.0591V74.1064L973.322 104.413V43.3657ZM920.106 12.6414L920.065 12.6177L920.024 12.6415V73.6888L920.065 73.665L920.106 73.6887V12.6414ZM866.804 -19.7261L919.301 10.5827V-51.0895L919.342 -51.1132L866.804 -81.4457V-19.7261ZM919.301 13.0591L866.804 43.3679V104.415L919.301 74.1064V13.0591ZM866.04 43.8093L865.999 43.7856V104.833L866.04 104.857L866.081 104.833V43.7856L866.04 43.8093ZM865.275 43.3679L812.777 13.058V74.1053L865.275 104.415V43.3679ZM812.054 12.6403L812.013 12.6172L811.973 12.6403V73.6888L812.014 73.665L812.054 73.6876V12.6403ZM757.987 -81.8871L757.948 -81.8645V-20.1449L757.987 -20.1675L758.03 -20.1427V-81.8623L757.987 -81.8871ZM810.783 11.8209L757.989 42.3016L705.195 11.8209L757.989 -18.6599L810.783 11.8209ZM649.94 -18.6587L702.732 11.8209L649.94 42.3004L597.148 11.8209L649.94 -18.6587ZM649.174 106.894L596.681 137.2V198.92L649.217 168.589L649.174 168.564V106.894ZM595.917 137.642L595.872 137.616V198.801L595.917 198.775L595.958 198.799V137.618L595.917 137.642ZM595.148 137.198L542.654 106.89V168.564L542.614 168.587L595.148 198.918V137.198ZM541.89 -18.6604L594.686 11.8209L541.89 42.3021L489.095 11.8209L541.89 -18.6604ZM433.841 42.3004L486.633 11.8208L433.841 -18.6587L381.048 11.8209L433.841 42.3004ZM379.817 137.642L379.774 137.617V198.8L379.817 198.775L433.841 229.965L486.633 199.486L433.074 168.564V106.894L379.817 137.642ZM1135.4 512.529V512.616L1135.44 512.64L1082.14 543.414L1028.84 512.642L1028.88 512.616V512.528L1082.14 481.78L1135.4 512.529ZM1136.88 512.64L1190.19 543.414L1243.56 512.597L1190.19 481.781L1136.93 512.532V512.616L1136.88 512.64ZM1244.98 511.695L1298.28 480.921V418.491L1244.79 387.612L1191.42 418.428L1244.98 449.35V511.695ZM1190.95 418.995L1244.25 449.768V512.113L1244.21 512.136L1190.91 481.363L1190.95 481.339V418.995ZM1188.96 418.428L1136.16 387.948L1083.37 418.428L1136.16 448.909L1188.96 418.428ZM1189.42 419.668L1136.93 449.977V511.696L1189.46 481.363L1189.42 481.339V419.668ZM1190.15 419.25V480.921L1190.19 480.945L1190.23 480.921V419.201L1190.15 419.25ZM1190.95 417.189L1244.21 386.44L1244.25 386.464V324.658L1190.77 293.78L1137.39 324.596L1190.95 355.518V417.189ZM1190.23 417.607V355.936L1136.93 325.161V386.88L1190.19 417.631L1190.23 417.607ZM1134.93 324.596L1082.14 294.115L1029.34 324.596L1082.14 355.077L1134.93 324.596ZM1082.14 419.225L1082.1 419.249V480.921L1082.14 480.945L1082.18 480.921V419.249L1082.14 419.225ZM1082.9 419.667V481.339L1082.86 481.363L1135.4 511.694V449.974L1082.9 419.667ZM1136.12 450.392V512.112L1136.16 512.136L1136.2 512.114V450.394L1136.16 450.417L1136.12 450.392ZM1298.28 168.146L1244.98 198.92V136.575L1191.42 105.653L1244.79 74.8365L1298.28 105.716V168.146ZM1244.25 136.993L1190.95 106.22V168.564L1190.91 168.588L1244.21 199.361L1244.25 199.338V136.993ZM1136.16 75.1727L1188.95 105.653L1136.16 136.134L1083.37 105.653L1136.16 75.1727ZM1136.93 137.201L1189.42 106.893V168.564L1189.46 168.588L1136.93 198.921V137.201ZM1190.15 168.146V106.475L1190.23 106.426V168.146L1190.19 168.17L1190.15 168.146ZM1244.21 73.665L1190.95 104.414V42.7429L1137.39 11.8208L1190.77 -18.9954L1244.25 11.8831V73.6887L1244.21 73.665ZM1190.23 43.1606V104.832L1190.19 104.856L1136.93 74.1053V12.3855L1190.23 43.1606ZM1136.16 137.642L1136.12 137.617V198.8L1136.16 198.775L1136.2 198.798V137.619L1136.16 137.642ZM1082.18 106.474L1082.14 106.45L1082.1 106.474V168.146L1082.14 168.17L1082.18 168.146V106.474ZM1082.14 42.3016L1134.93 11.8209L1082.14 -18.6598L1029.34 11.8209L1082.14 42.3016ZM1135.4 137.199L1082.9 106.891V168.564L1082.86 168.588L1135.4 198.919V137.199ZM1137.39 199.486L1190.77 230.302L1243.56 199.822L1190.19 169.006L1137.39 199.486ZM703.197 512.529V512.616L703.239 512.641L649.938 543.414L596.638 512.641L596.681 512.616V512.53L649.94 481.781L703.197 512.529ZM704.686 512.641L757.987 543.414L811.29 512.639L811.25 512.616V512.53L757.989 481.78L704.728 512.53V512.616L704.686 512.641ZM812.737 512.639L812.777 512.616V512.532L866.04 481.78L919.301 512.53V512.616L919.342 512.64L866.04 543.414L812.737 512.639ZM865.275 419.667L812.777 449.977V511.696L865.316 481.363L865.275 481.339V419.667ZM811.973 450.393L812.014 450.417L812.054 450.394V512.114L812.014 512.136L811.973 512.113V450.393ZM758.754 419.667L811.25 449.975V511.695L758.712 481.363L758.754 481.339V419.667ZM866.081 419.249V480.921L866.04 480.945L865.999 480.921V419.249L866.04 419.225L866.081 419.249ZM866.804 419.667V481.339L866.763 481.363L919.301 511.695V449.975L866.804 419.667ZM920.024 450.393V512.113L920.065 512.136L920.106 512.113V450.393L920.065 450.417L920.024 450.393ZM920.83 449.975V511.695L973.365 481.364L973.322 481.339V419.669L920.83 449.975ZM974.046 419.251V480.921L974.089 480.946L974.132 480.921V419.251L974.089 419.226L974.046 419.251ZM1028.88 449.973L1081.37 419.667V481.339L1081.41 481.363L1028.88 511.693V449.973ZM1028.07 450.392L1028.11 450.417L1028.16 450.391V512.111L1028.11 512.136L1028.07 512.112V450.392ZM974.855 419.669L1027.35 449.974V511.694L974.812 481.364L974.855 481.339V419.669ZM1026.88 324.596L974.089 294.116L921.297 324.596L974.089 355.075L1026.88 324.596ZM918.834 324.596L866.04 294.115L813.246 324.596L866.04 355.077L918.834 324.596ZM812.013 448.91L864.809 418.428L812.013 387.947L759.218 418.428L812.013 448.91ZM756.756 418.428L703.963 387.948L651.17 418.428L703.963 448.909L756.756 418.428ZM1027.35 512.529V512.616L1027.39 512.642L974.091 543.414L920.789 512.64L920.83 512.616V512.53L974.089 481.781L1027.35 512.529ZM1080.9 418.428L1028.11 387.949L975.322 418.428L1028.11 448.907L1080.9 418.428ZM595.148 512.528V512.616L595.191 512.641L541.891 543.414L488.589 512.64L488.63 512.616V512.529L541.89 481.78L595.148 512.528ZM648.707 418.428L595.915 387.949L543.123 418.428L595.915 448.908L648.707 418.428ZM972.859 418.428L920.065 387.948L867.271 418.428L920.065 448.909L972.859 418.428ZM540.66 418.428L487.866 387.948L435.072 418.428L487.866 448.909L540.66 418.428ZM541.85 292.631V231.45L541.891 231.474L541.931 231.452V292.63L541.891 292.607L541.85 292.631ZM757.948 292.63V231.452L757.987 231.474L758.03 231.449V292.632L757.987 292.607L757.948 292.63ZM865.316 168.588L812.777 198.921V137.201L865.275 106.891V168.564L865.316 168.588ZM812.014 137.642L811.973 137.618V198.799L812.014 198.775L812.054 198.798V137.619L812.014 137.642ZM811.25 137.2L758.754 106.891V168.564L758.712 168.588L811.25 198.92V137.2ZM866.04 42.3016L918.834 11.8209L866.04 -18.6598L813.246 11.8208L866.04 42.3016ZM865.999 106.474L866.04 106.45L866.081 106.474V168.146L866.04 168.17L865.999 168.146V106.474ZM920.065 137.642L920.106 137.618V198.799L920.065 198.775L920.024 198.799V137.618L920.065 137.642ZM920.83 198.92V137.2L973.322 106.894V168.564L973.365 168.589L920.83 198.92ZM974.046 168.146V106.476L974.089 106.451L974.132 106.476V168.146L974.089 168.171L974.046 168.146ZM1081.37 106.891L1028.88 137.198V198.918L1081.41 168.588L1081.37 168.564V106.891ZM1028.16 198.801V137.616L1028.11 137.642L1028.07 137.617V198.8L1028.11 198.775L1028.16 198.801ZM921.297 11.8209L974.089 42.3004L1026.88 11.8209L974.089 -18.6587L921.297 11.8209ZM974.855 106.894L1027.35 137.199V198.919L974.812 168.589L974.855 168.564V106.894ZM866.804 106.891L919.301 137.2V198.92L866.763 168.588L866.804 168.564V106.891ZM864.808 105.653L812.013 136.135L759.218 105.653L812.013 75.1721L864.808 105.653ZM703.963 136.133L756.756 105.653L703.963 75.1732L651.17 105.653L703.963 136.133ZM649.938 231.474L649.897 231.45V292.631L649.938 292.607L649.983 292.633V231.448L649.938 231.474ZM595.915 136.133L648.707 105.653L595.915 75.1738L543.123 105.653L595.915 136.133ZM487.866 136.134L540.66 105.653L487.866 75.1727L435.072 105.653L487.866 136.134ZM433.841 231.474L433.798 231.449V292.632L433.841 292.607L433.884 292.632V231.449L433.841 231.474ZM1028.11 136.132L1080.9 105.653L1028.11 75.1744L975.322 105.653L1028.11 136.132ZM1082.1 292.63V231.452L1082.14 231.474L1082.18 231.449V292.632L1082.14 292.607L1082.1 292.63ZM974.091 231.474L974.046 231.448V292.633L974.091 292.607L974.132 292.631V231.45L974.091 231.474ZM920.065 136.134L972.859 105.653L920.065 75.1727L867.271 105.653L920.065 136.134ZM1082.14 229.967L1134.93 199.486L1082.14 169.005L1029.34 199.486L1082.14 229.967ZM866.04 231.474L865.999 231.45V292.631L866.04 292.607L866.081 292.631V231.45L866.04 231.474ZM974.089 229.965L1026.88 199.486L974.089 169.006L921.297 199.486L974.089 229.965ZM918.834 199.486L866.04 229.967L813.246 199.486L866.04 169.005L918.834 199.486ZM757.989 229.967L810.783 199.486L757.989 169.005L705.195 199.486L757.989 229.967ZM702.732 199.486L649.94 229.965L597.148 199.486L649.94 169.006L702.732 199.486ZM594.686 199.486L541.89 229.967L489.095 199.486L541.89 169.005L594.686 199.486Z" fill="#185DFF"/>
</g>
<defs>
<filter id="filter0_f_2504_685" x="-374.645" y="-675.248" width="1931.03" height="1533.22" filterUnits="userSpaceOnUse" color-interpolation-filters="sRGB">
<feFlood flood-opacity="0" result="BackgroundImageFix"/>
<feBlend mode="normal" in="SourceGraphic" in2="BackgroundImageFix" result="shape"/>
<feGaussianBlur stdDeviation="124.537" result="effect1_foregroundBlur_2504_685"/>
</filter>
<filter id="filter1_f_2504_685" x="-374.647" y="-794.804" width="1931.03" height="1533.22" filterUnits="userSpaceOnUse" color-interpolation-filters="sRGB">
<feFlood flood-opacity="0" result="BackgroundImageFix"/>
<feBlend mode="normal" in="SourceGraphic" in2="BackgroundImageFix" result="shape"/>
<feGaussianBlur stdDeviation="124.537" result="effect1_foregroundBlur_2504_685"/>
</filter>
<filter id="filter2_f_2504_685" x="-502.612" y="-679.223" width="1172.33" height="1177.51" filterUnits="userSpaceOnUse" color-interpolation-filters="sRGB">
<feFlood flood-opacity="0" result="BackgroundImageFix"/>
<feBlend mode="normal" in="SourceGraphic" in2="BackgroundImageFix" result="shape"/>
<feGaussianBlur stdDeviation="124.537" result="effect1_foregroundBlur_2504_685"/>
</filter>
<clipPath id="clip0_2504_685">
<rect width="1190" height="230" fill="white"/>
</clipPath>
</defs>
</svg>
