<svg width="1190" height="230" viewBox="0 0 1190 230" fill="none" xmlns="http://www.w3.org/2000/svg">
<g clip-path="url(#clip0_1402_3571)">
<g opacity="0.4" filter="url(#filter0_f_1402_3571)">
<path d="M-37.2539 600.498C-83.7774 526.59 -256.889 -99.1192 64.556 -301.463C386.001 -503.807 1257.49 -416.156 1304.01 -342.248C1350.54 -268.341 895.359 -201.181 573.913 1.16257C271.288 242.765 9.26962 674.406 -37.2539 600.498Z" fill="#185DFF"/>
</g>
<g opacity="0.4" filter="url(#filter1_f_1402_3571)">
<path d="M-37.2558 480.942C-83.7793 407.034 -256.891 -218.675 64.5541 -421.018C385.999 -623.362 1257.49 -535.712 1304.01 -461.804C1350.53 -387.896 895.357 -320.737 573.911 -118.393C271.286 123.209 9.26767 554.85 -37.2558 480.942Z" fill="#1354DF"/>
</g>
<g opacity="0.4" filter="url(#filter2_f_1402_3571)">
<ellipse cx="83.5519" cy="-90.47" rx="413.39" ry="240.925" transform="rotate(134.556 83.5519 -90.47)" fill="#00FFB7"/>
</g>
<path opacity="0.2" fill-rule="evenodd" clip-rule="evenodd" d="M379.817 -113.165L326.44 -82.3472L379.815 -51.5308L433.074 -82.2799V-82.3671L433.117 -82.3919L379.817 -113.165ZM325.79 -81.8871L379.092 -51.1132L379.051 -51.0895V11.2539L325.751 -19.5189V-81.8645L325.79 -81.8871ZM379.774 -50.6718V11.0478L379.856 11.0004V-50.6718L379.815 -50.6955L379.774 -50.6718ZM487.907 73.6899V12.6414L487.866 12.6177L487.825 12.6414V73.6876L487.864 73.665L487.907 73.6899ZM488.63 74.1075V13.0591L541.127 43.3679V104.416L488.63 74.1075ZM541.85 104.834V43.7856L541.891 43.8093L541.931 43.7867V104.834L541.89 104.857L541.85 104.834ZM542.654 104.416V43.3691L595.148 13.0613V74.1087L542.654 104.416ZM595.872 73.691V12.6437L595.915 12.6189L595.958 12.6437V73.6887L595.917 73.665L595.872 73.691ZM703.963 12.6183L703.921 12.6426V73.6899L703.964 73.665L704.005 73.6887V12.6426L703.963 12.6183ZM703.197 13.0602L650.707 43.3657V104.413L703.197 74.1075V13.0602ZM649.938 43.8093L649.897 43.7856V104.831L649.94 104.855L649.983 104.831V43.7833L649.938 43.8093ZM649.174 43.3679L596.681 13.0613V74.1064L649.174 104.413V43.3679ZM704.728 -51.0895V10.5816L757.225 -19.7272V-81.4469L704.686 -51.1138L704.728 -51.0895ZM704.005 -50.6718L703.963 -50.6961L703.921 -50.6718V10.9993L703.963 11.0235L704.005 10.9993V-50.6718ZM757.225 -82.2822L703.963 -51.5314L650.707 -82.2788V-82.3671L650.664 -82.3919L703.964 -113.165L757.266 -82.3908L757.225 -82.3671V-82.2822ZM703.239 -51.1138L650.707 -81.4435V-19.7239L703.197 10.5816V-51.0895L703.239 -51.1138ZM649.938 -81.8871L649.897 -81.8634V-20.1438L649.938 -20.1675L649.983 -20.1415V-81.8612L649.938 -81.8871ZM649.174 -82.3671V-82.281L595.915 -51.532L542.654 -82.2822V-82.3671L542.614 -82.3902L595.917 -113.165L649.217 -82.3919L649.174 -82.3671ZM649.174 -81.4457L596.638 -51.1143L596.681 -51.0895V10.5805L649.174 -19.7261V-81.4457ZM595.958 -50.6718L595.915 -50.6967L595.872 -50.6718V10.9981L595.915 11.023L595.958 10.9981V-50.6718ZM595.148 -51.0895L595.191 -51.1143L542.654 -81.4469V-19.7273L595.148 10.5805V-51.0895ZM541.891 -81.8871L541.85 -81.8634V-20.1438L541.891 -20.1675L541.931 -20.1449V-81.8645L541.891 -81.8871ZM541.127 -82.3671V-82.281L487.866 -51.5308L434.607 -82.2799V-82.3671L434.564 -82.3919L487.864 -113.165L541.167 -82.3902L541.127 -82.3671ZM541.127 -81.4457L488.589 -51.1132L488.63 -51.0895V10.5827L541.127 -19.7261V-81.4457ZM434.607 -81.4446L487.143 -51.1132L487.102 -51.0895V10.5827L434.607 -19.725V-81.4446ZM487.825 -50.6718V11.0004L487.866 11.0241L487.907 11.0004V-50.6718L487.866 -50.6955L487.825 -50.6718ZM487.102 13.0591L434.607 43.3668V104.413L487.102 74.1053V13.0591ZM433.841 43.8093L433.798 43.7845V104.88L433.884 104.831V43.7845L433.841 43.8093ZM433.074 43.3668L379.815 12.6177L379.774 12.6414V74.3137L433.074 105.086V43.3668ZM433.841 -81.8871L433.798 -81.8623V-20.1426L433.841 -20.1675L433.884 -20.1426V-81.8623L433.841 -81.8871ZM433.074 -19.725V-81.4446L380.539 -51.1132L380.58 -51.0895V10.5827L433.074 -19.725ZM325.027 -82.3671V-82.2822L271 -51.0895V12.1764L325.027 43.3691V106.009L379.051 137.199V199.217L325.027 230.408V230.493L271 261.685V324.951L325.027 356.144V418.784L379.051 449.974V512.616L433.841 544.249L487.866 513.058L541.891 544.249L595.915 513.059L649.938 544.249L703.963 513.058L757.987 544.249L812.013 513.057L866.04 544.249L920.065 513.058L974.091 544.249L1028.11 513.059L1082.14 544.249L1136.16 513.058L1190.19 544.249L1244.98 512.616V512.53L1299 481.339V418.073L1244.98 386.881V324.24L1190.95 293.05V231.032L1244.98 199.841V199.755L1299 168.564V105.298L1244.98 74.1064V11.4654L1190.95 -19.725V-82.3671L1136.16 -114L1082.14 -82.8084L1028.11 -114L974.089 -82.8095L920.065 -114L866.04 -82.8084L812.014 -114L757.989 -82.8084L703.964 -114L649.94 -82.8096L595.917 -114L541.89 -82.8079L487.864 -114L433.841 -82.8096L379.817 -114L325.027 -82.3671ZM433.074 356.142L379.815 325.393L379.774 325.416V387.089L433.074 417.861V356.142ZM487.907 325.416V386.465L487.864 386.44L487.825 386.463V325.416L487.866 325.393L487.907 325.416ZM488.63 325.834V386.883L541.127 417.191V356.143L488.63 325.834ZM541.85 356.561V417.609L541.89 417.632L541.931 417.609V356.562L541.891 356.584L541.85 356.561ZM542.654 356.144V417.191L595.148 386.884V325.836L542.654 356.144ZM595.872 325.419V386.466L595.917 386.44L595.958 386.464V325.419L595.915 325.394L595.872 325.419ZM703.921 325.418L703.963 325.393L704.005 325.418V386.464L703.964 386.44L703.921 386.465V325.418ZM650.707 356.141L703.197 325.835V386.883L650.707 417.188V356.141ZM649.897 356.561L649.938 356.584L649.983 356.558V417.606L649.94 417.63L649.897 417.606V356.561ZM596.681 325.836L649.174 356.143V417.188L596.681 386.881V325.836ZM704.728 323.357V261.685L704.686 261.661L757.225 231.328V293.048L704.728 323.357ZM703.963 262.079L704.005 262.103V323.774L703.963 323.798L703.921 323.774V262.103L703.963 262.079ZM703.963 261.244L756.756 230.763L703.963 200.283L651.169 230.763L703.963 261.244ZM650.707 231.331L703.239 261.661L703.197 261.685V323.357L650.707 293.051V231.331ZM648.707 230.763L595.915 200.284L543.122 230.763L595.915 261.243L648.707 230.763ZM596.638 261.661L649.174 231.329V293.049L596.681 323.355V261.685L596.638 261.661ZM595.915 262.078L595.958 262.103V323.773L595.915 323.798L595.872 323.773V262.103L595.915 262.078ZM595.191 261.661L595.148 261.685V323.355L542.654 293.048V231.328L595.191 261.661ZM540.66 230.763L487.866 200.283L435.072 230.763L487.866 261.244L540.66 230.763ZM488.589 261.662L541.127 231.329V293.049L488.63 323.358V261.685L488.589 261.662ZM487.143 261.662L434.607 231.33V293.05L487.102 323.358V261.685L487.143 261.662ZM487.825 323.775V262.103L487.866 262.079L487.907 262.103V323.775L487.866 323.799L487.825 323.775ZM434.607 356.142L487.102 325.834V386.88L434.607 417.188V356.142ZM433.798 356.559L433.841 356.584L433.884 356.559V417.606L433.798 417.655V356.559ZM432.61 230.763L379.815 261.244L326.44 230.428L379.234 199.947L432.61 230.763ZM379.092 261.662L325.79 230.888L325.751 230.91V293.256L379.051 324.029V261.685L379.092 261.662ZM380.539 261.662L380.58 261.685V323.358L433.074 293.05V231.33L380.539 261.662ZM379.815 262.079L379.774 262.103V323.823L379.856 323.775V262.103L379.815 262.079ZM325.751 356.562L325.79 356.584L379.051 325.834V387.506L432.609 418.428L379.234 449.245L325.751 418.366V356.562ZM325.027 231.328V293.674L378.586 324.596L325.209 355.413L271.723 324.534V262.103L325.027 231.328ZM271.723 11.7587L325.208 42.6384L378.586 11.8209L325.027 -19.1012V-81.4469L271.723 -50.6718V11.7587ZM325.751 105.591V43.7867L325.79 43.8093L379.051 13.0591V74.7313L432.609 105.653L379.234 136.47L325.751 105.591ZM486.633 324.596L433.841 294.116L381.048 324.596L433.841 355.075L486.633 324.596ZM649.983 419.251V480.921L649.94 480.946L649.897 480.921V419.251L649.94 419.226L649.983 419.251ZM650.707 419.669V481.339L650.664 481.364L703.197 511.694V449.974L650.707 419.669ZM703.921 450.392V512.112L703.964 512.136L704.005 512.113V450.393L703.964 450.417L703.921 450.392ZM704.728 449.975V511.695L757.266 481.363L757.225 481.339V419.667L704.728 449.975ZM757.948 419.249V480.921L757.989 480.945L758.03 480.921V419.249L757.989 419.225L757.948 419.249ZM758.754 417.19L811.25 386.881V325.833L758.754 356.142V417.19ZM757.948 356.562L757.987 356.584L758.03 356.559V417.608L757.989 417.632L757.948 417.608V356.562ZM704.728 325.835L757.225 356.144V417.19L704.728 386.881V325.835ZM812.054 323.777L812.013 323.8L811.973 323.776V262.103L812.013 262.08L812.054 262.103V323.777ZM811.29 261.662L758.754 231.33V293.05L811.25 323.359V261.685L811.29 261.662ZM812.737 261.662L812.777 261.685V323.359L865.275 293.049V231.329L812.737 261.662ZM864.809 230.763L812.013 261.245L759.218 230.763L812.013 200.282L864.809 230.763ZM866.804 231.329V293.049L919.301 323.358V261.685L919.342 261.662L866.804 231.329ZM920.065 262.079L920.024 262.103V323.775L920.065 323.799L920.106 323.775V262.103L920.065 262.079ZM1028.16 325.42V386.466L1028.11 386.44L1028.07 386.465V325.42L1028.11 325.394L1028.16 325.42ZM1028.88 325.837V386.884L1081.37 417.19V356.144L1028.88 325.837ZM1082.1 356.562V417.608L1082.14 417.632L1082.18 417.608V356.559L1082.14 356.584L1082.1 356.562ZM1082.9 356.142V417.19L1135.4 386.883V325.834L1082.9 356.142ZM1136.12 325.416V386.465L1136.16 386.44L1136.2 386.463V325.369L1136.12 325.416ZM1136.93 323.358L1190.19 292.607L1190.23 292.632V231.449L1190.19 231.474L1136.16 200.283L1083.37 230.763L1136.93 261.685V323.358ZM1080.9 230.763L1028.11 200.284L975.322 230.763L1028.11 261.242L1080.9 230.763ZM1028.84 261.66L1081.37 231.328V293.048L1028.88 323.354V261.685L1028.84 261.66ZM1027.39 261.66L974.855 231.329V293.049L1027.35 323.354V261.685L1027.39 261.66ZM1028.07 323.772V262.103L1028.11 262.078L1028.16 262.103V323.772L1028.11 323.797L1028.07 323.772ZM1136.2 323.775L1136.16 323.799L1082.9 293.05V231.33L1136.2 262.103V323.775ZM974.855 356.143L1027.35 325.837V386.883L974.855 417.188V356.143ZM974.046 356.558L974.091 356.584L974.132 356.561V417.606L974.089 417.63L974.046 417.606V356.558ZM920.83 325.834L973.322 356.141V417.188L920.83 386.881V325.834ZM920.065 325.393L920.106 325.416V386.464L920.065 386.44L920.024 386.464V325.416L920.065 325.393ZM973.322 231.331V293.051L920.83 323.358V261.685L920.789 261.662L973.322 231.331ZM972.86 230.763L920.065 261.244L867.271 230.763L920.065 200.283L972.86 230.763ZM866.804 356.143L919.301 325.834V386.881L866.804 417.19V356.143ZM865.999 356.561L866.04 356.584L866.081 356.561V417.608L866.04 417.632L865.999 417.608V356.561ZM812.777 325.833L865.275 356.143V417.19L812.777 386.88V325.833ZM812.013 325.392L812.054 325.415V386.463L812.014 386.44L811.973 386.464V325.415L812.013 325.392ZM757.989 355.077L810.783 324.596L757.989 294.115L705.195 324.596L757.989 355.077ZM702.732 324.596L649.94 294.116L597.148 324.596L649.94 355.075L702.732 324.596ZM596.681 449.975L649.174 419.669V481.339L649.217 481.364L596.681 511.695V449.975ZM595.872 450.391L595.917 450.417L595.958 450.393V512.113L595.917 512.136L595.872 512.11V450.391ZM542.654 419.665L595.148 449.973V511.693L542.614 481.362L542.654 481.339V419.665ZM541.89 419.225L541.931 419.248V480.921L541.89 480.944L541.85 480.921V419.248L541.89 419.225ZM594.686 324.596L541.89 355.077L489.095 324.596L541.89 294.115L594.686 324.596ZM488.63 449.974L541.127 419.665V481.339L541.167 481.362L488.63 511.694V449.974ZM487.825 450.394L487.864 450.417L487.907 450.392V512.112L487.864 512.136L487.825 512.114V450.394ZM433.841 419.226L487.102 449.977V511.696L433.798 480.921V419.251L433.841 419.226ZM379.774 450.392L379.817 450.417L433.074 419.669V481.339L487.102 512.532V512.616L487.143 512.64L433.841 543.414L379.774 512.199V450.392ZM433.841 106.451L487.102 137.201V198.921L433.798 168.146V106.476L433.841 106.451ZM487.825 198.798V137.619L487.864 137.642L487.907 137.617V198.8L487.864 198.775L487.825 198.798ZM488.63 198.919V137.199L541.127 106.89V168.564L541.167 168.587L488.63 198.919ZM541.85 168.146V106.473L541.89 106.45L541.931 106.473V168.146L541.89 168.169L541.85 168.146ZM649.983 168.146V106.476L649.94 106.451L649.897 106.476V168.146L649.94 168.171L649.983 168.146ZM650.707 168.564V106.894L703.197 137.199V198.919L650.664 168.589L650.707 168.564ZM703.921 198.8V137.617L703.964 137.642L704.005 137.618V198.799L703.964 198.775L703.921 198.8ZM704.728 198.92V137.2L757.225 106.891V168.564L757.266 168.588L704.728 198.92ZM757.948 168.146V106.474L757.989 106.45L758.03 106.474V168.146L757.989 168.17L757.948 168.146ZM811.25 74.1064L758.754 104.415V43.3668L811.25 13.0579V74.1064ZM757.987 43.8093L757.948 43.7867V104.833L757.989 104.857L758.03 104.833V43.7845L757.987 43.8093ZM757.225 43.3691L704.728 13.0602V74.1064L757.225 104.415V43.3691ZM812.013 11.0247L812.054 11.0015V-50.6718L812.013 -50.695L811.973 -50.6718V11.0015L812.013 11.0247ZM758.754 -81.4446L811.29 -51.1126L811.25 -51.0895V10.5839L758.754 -19.725V-81.4446ZM812.777 -51.0895L812.737 -51.1126L865.275 -81.4457V-19.7261L812.777 10.5839V-51.0895ZM812.013 -51.5303L865.275 -82.281V-82.3671L865.316 -82.3908L812.014 -113.165L758.712 -82.3908L758.754 -82.3671V-82.2799L812.013 -51.5303ZM866.04 -81.8871L865.999 -81.8634V-20.1438L866.04 -20.1675L866.081 -20.1438V-81.8634L866.04 -81.8871ZM920.106 -50.6718L920.065 -50.6955L920.024 -50.6718V11.0004L920.065 11.0241L920.106 11.0004V-50.6718ZM920.83 -51.0895L920.789 -51.1132L973.322 -81.4435V-19.7239L920.83 10.5828V-51.0895ZM920.065 -51.5308L973.322 -82.2788V-82.3671L973.365 -82.3919L920.065 -113.165L866.763 -82.3908L866.804 -82.3671V-82.2811L920.065 -51.5308ZM974.091 -81.8871L974.046 -81.8611V-20.1415L974.091 -20.1675L974.132 -20.1438V-81.8634L974.091 -81.8871ZM1028.16 -50.6718L1028.11 -50.6972L1028.07 -50.6718V10.997L1028.11 11.0224L1028.16 10.997V-50.6718ZM1028.88 -51.0895L1028.84 -51.1149L1081.37 -81.4469V-19.7272L1028.88 10.5794V-51.0895ZM1028.11 -51.5325L1081.37 -82.2822V-82.3671L1081.41 -82.3908L1028.11 -113.165L974.812 -82.3919L974.855 -82.3671V-82.2811L1028.11 -51.5325ZM1082.14 -81.8871L1082.1 -81.8645V-20.1449L1082.14 -20.1675L1082.18 -20.1427V-81.8623L1082.14 -81.8871ZM1136.2 -50.6718L1082.9 -81.4447V-19.725L1136.16 11.0241L1136.2 11.0004V-50.6718ZM1136.93 -51.0895V10.5828L1190.19 -20.1675L1190.23 -20.1427V-81.9494L1136.16 -113.165L1082.86 -82.3908L1082.9 -82.3671V-82.28L1136.93 -51.0895ZM1136.2 73.6876V12.594L1136.12 12.6414V73.6899L1136.16 73.665L1136.2 73.6876ZM1135.4 13.0591L1082.9 43.3668V104.415L1135.4 74.1075V13.0591ZM1082.14 43.8093L1082.1 43.7867V104.833L1082.14 104.857L1082.18 104.833V43.7845L1082.14 43.8093ZM1081.37 43.3691L1028.88 13.0625V74.1086L1081.37 104.415V43.3691ZM1028.16 12.6448L1028.11 12.6194L1028.07 12.6448V73.6899L1028.11 73.665L1028.16 73.691V12.6448ZM974.855 -19.7262L1027.35 10.5794V-51.0895L1027.39 -51.1149L974.855 -81.4458V-19.7262ZM1027.35 13.0625L974.855 43.368V104.413L1027.35 74.1075V13.0625ZM974.091 43.8093L974.046 43.7833V104.831L974.089 104.855L974.132 104.831V43.7856L974.091 43.8093ZM973.322 43.3657L920.83 13.0591V74.1064L973.322 104.413V43.3657ZM920.106 12.6414L920.065 12.6177L920.024 12.6414V73.6888L920.065 73.665L920.106 73.6887V12.6414ZM866.804 -19.7262L919.301 10.5827V-51.0895L919.342 -51.1132L866.804 -81.4458V-19.7262ZM919.301 13.0591L866.804 43.368V104.415L919.301 74.1064V13.0591ZM866.04 43.8093L865.999 43.7856V104.833L866.04 104.857L866.081 104.833V43.7856L866.04 43.8093ZM865.275 43.3679L812.777 13.0579V74.1052L865.275 104.415V43.3679ZM812.054 12.6403L812.013 12.6172L811.973 12.6403V73.6888L812.014 73.665L812.054 73.6876V12.6403ZM757.987 -81.8871L757.948 -81.8645V-20.1449L757.987 -20.1675L758.03 -20.1427V-81.8623L757.987 -81.8871ZM810.783 11.8209L757.989 42.3016L705.195 11.8209L757.989 -18.6599L810.783 11.8209ZM649.94 -18.6587L702.732 11.8209L649.94 42.3004L597.148 11.8209L649.94 -18.6587ZM649.174 106.894L596.681 137.2V198.92L649.217 168.589L649.174 168.564V106.894ZM595.917 137.642L595.872 137.616V198.801L595.917 198.775L595.958 198.799V137.618L595.917 137.642ZM595.148 137.198L542.654 106.89V168.564L542.614 168.587L595.148 198.918V137.198ZM541.89 -18.6604L594.686 11.8209L541.89 42.3021L489.095 11.8209L541.89 -18.6604ZM433.841 42.3004L486.633 11.8208L433.841 -18.6587L381.048 11.8209L433.841 42.3004ZM379.817 137.642L379.774 137.617V198.8L379.817 198.775L433.841 229.965L486.633 199.486L433.074 168.564V106.894L379.817 137.642ZM1135.4 512.529V512.616L1135.44 512.64L1082.14 543.414L1028.84 512.642L1028.88 512.616V512.528L1082.14 481.78L1135.4 512.529ZM1136.88 512.64L1190.19 543.414L1243.56 512.597L1190.19 481.781L1136.93 512.532V512.616L1136.88 512.64ZM1244.98 511.695L1298.28 480.921V418.491L1244.79 387.611L1191.42 418.428L1244.98 449.35V511.695ZM1190.95 418.995L1244.25 449.768V512.113L1244.21 512.136L1190.91 481.363L1190.95 481.339V418.995ZM1188.96 418.428L1136.16 387.948L1083.37 418.428L1136.16 448.909L1188.96 418.428ZM1189.42 419.668L1136.93 449.977V511.696L1189.46 481.363L1189.42 481.339V419.668ZM1190.15 419.25V480.921L1190.19 480.945L1190.23 480.921V419.201L1190.15 419.25ZM1190.95 417.189L1244.21 386.44L1244.25 386.464V324.658L1190.77 293.78L1137.39 324.596L1190.95 355.518V417.189ZM1190.23 417.607V355.936L1136.93 325.161V386.88L1190.19 417.631L1190.23 417.607ZM1134.93 324.596L1082.14 294.115L1029.34 324.596L1082.14 355.077L1134.93 324.596ZM1082.14 419.225L1082.1 419.249V480.921L1082.14 480.945L1082.18 480.921V419.249L1082.14 419.225ZM1082.9 419.667V481.339L1082.86 481.363L1135.4 511.694V449.974L1082.9 419.667ZM1136.12 450.392V512.112L1136.16 512.136L1136.2 512.114V450.394L1136.16 450.417L1136.12 450.392ZM1298.28 168.146L1244.98 198.92V136.575L1191.42 105.653L1244.79 74.8365L1298.28 105.716V168.146ZM1244.25 136.993L1190.95 106.22V168.564L1190.91 168.588L1244.21 199.361L1244.25 199.338V136.993ZM1136.16 75.1727L1188.95 105.653L1136.16 136.134L1083.37 105.653L1136.16 75.1727ZM1136.93 137.201L1189.42 106.893V168.564L1189.46 168.588L1136.93 198.921V137.201ZM1190.15 168.146V106.475L1190.23 106.426V168.146L1190.19 168.17L1190.15 168.146ZM1244.21 73.665L1190.95 104.414V42.7429L1137.39 11.8209L1190.77 -18.9955L1244.25 11.8831V73.6887L1244.21 73.665ZM1190.23 43.1606V104.832L1190.19 104.856L1136.93 74.1052V12.3855L1190.23 43.1606ZM1136.16 137.642L1136.12 137.617V198.8L1136.16 198.775L1136.2 198.798V137.619L1136.16 137.642ZM1082.18 106.474L1082.14 106.45L1082.1 106.474V168.146L1082.14 168.17L1082.18 168.146V106.474ZM1082.14 42.3016L1134.93 11.8209L1082.14 -18.6599L1029.34 11.8208L1082.14 42.3016ZM1135.4 137.199L1082.9 106.891V168.564L1082.86 168.588L1135.4 198.919V137.199ZM1137.39 199.486L1190.77 230.302L1243.56 199.822L1190.19 169.006L1137.39 199.486ZM703.197 512.529V512.616L703.239 512.641L649.938 543.414L596.638 512.641L596.681 512.616V512.53L649.94 481.781L703.197 512.529ZM704.686 512.641L757.987 543.414L811.29 512.639L811.25 512.616V512.53L757.989 481.78L704.728 512.53V512.616L704.686 512.641ZM812.737 512.639L812.777 512.616V512.532L866.04 481.78L919.301 512.53V512.616L919.342 512.64L866.04 543.414L812.737 512.639ZM865.275 419.667L812.777 449.977V511.696L865.316 481.363L865.275 481.339V419.667ZM811.973 450.393L812.014 450.417L812.054 450.394V512.114L812.014 512.136L811.973 512.113V450.393ZM758.754 419.667L811.25 449.975V511.695L758.712 481.363L758.754 481.339V419.667ZM866.081 419.249V480.921L866.04 480.945L865.999 480.921V419.249L866.04 419.225L866.081 419.249ZM866.804 419.667V481.339L866.763 481.363L919.301 511.695V449.975L866.804 419.667ZM920.024 450.393V512.113L920.065 512.136L920.106 512.113V450.393L920.065 450.417L920.024 450.393ZM920.83 449.975V511.695L973.365 481.364L973.322 481.339V419.669L920.83 449.975ZM974.046 419.251V480.921L974.089 480.946L974.132 480.921V419.251L974.089 419.226L974.046 419.251ZM1028.88 449.973L1081.37 419.667V481.339L1081.41 481.363L1028.88 511.693V449.973ZM1028.07 450.392L1028.11 450.417L1028.16 450.391V512.111L1028.11 512.136L1028.07 512.112V450.392ZM974.855 419.669L1027.35 449.974V511.694L974.812 481.364L974.855 481.339V419.669ZM1026.88 324.596L974.089 294.116L921.297 324.596L974.089 355.075L1026.88 324.596ZM918.834 324.596L866.04 294.115L813.246 324.596L866.04 355.077L918.834 324.596ZM812.013 448.91L864.809 418.428L812.013 387.947L759.218 418.428L812.013 448.91ZM756.756 418.428L703.963 387.948L651.17 418.428L703.963 448.909L756.756 418.428ZM1027.35 512.529V512.616L1027.39 512.642L974.091 543.414L920.789 512.64L920.83 512.616V512.53L974.089 481.781L1027.35 512.529ZM1080.9 418.428L1028.11 387.949L975.322 418.428L1028.11 448.907L1080.9 418.428ZM595.148 512.528V512.616L595.191 512.641L541.891 543.414L488.589 512.64L488.63 512.616V512.529L541.89 481.78L595.148 512.528ZM648.707 418.428L595.915 387.949L543.123 418.428L595.915 448.908L648.707 418.428ZM972.859 418.428L920.065 387.948L867.271 418.428L920.065 448.909L972.859 418.428ZM540.66 418.428L487.866 387.948L435.072 418.428L487.866 448.909L540.66 418.428ZM541.85 292.631V231.45L541.891 231.474L541.931 231.452V292.63L541.891 292.607L541.85 292.631ZM757.948 292.63V231.452L757.987 231.474L758.03 231.449V292.632L757.987 292.607L757.948 292.63ZM865.316 168.588L812.777 198.921V137.201L865.275 106.891V168.564L865.316 168.588ZM812.014 137.642L811.973 137.618V198.799L812.014 198.775L812.054 198.798V137.619L812.014 137.642ZM811.25 137.2L758.754 106.891V168.564L758.712 168.588L811.25 198.92V137.2ZM866.04 42.3016L918.834 11.8209L866.04 -18.6599L813.246 11.8209L866.04 42.3016ZM865.999 106.474L866.04 106.45L866.081 106.474V168.146L866.04 168.17L865.999 168.146V106.474ZM920.065 137.642L920.106 137.618V198.799L920.065 198.775L920.024 198.799V137.618L920.065 137.642ZM920.83 198.92V137.2L973.322 106.894V168.564L973.365 168.589L920.83 198.92ZM974.046 168.146V106.476L974.089 106.451L974.132 106.476V168.146L974.089 168.171L974.046 168.146ZM1081.37 106.891L1028.88 137.198V198.918L1081.41 168.588L1081.37 168.564V106.891ZM1028.16 198.801V137.616L1028.11 137.642L1028.07 137.617V198.8L1028.11 198.775L1028.16 198.801ZM921.297 11.8208L974.089 42.3004L1026.88 11.8209L974.089 -18.6587L921.297 11.8208ZM974.855 106.894L1027.35 137.199V198.919L974.812 168.589L974.855 168.564V106.894ZM866.804 106.891L919.301 137.2V198.92L866.763 168.588L866.804 168.564V106.891ZM864.808 105.653L812.013 136.135L759.218 105.653L812.013 75.1721L864.808 105.653ZM703.963 136.133L756.756 105.653L703.963 75.1732L651.17 105.653L703.963 136.133ZM649.938 231.474L649.897 231.45V292.631L649.938 292.607L649.983 292.633V231.448L649.938 231.474ZM595.915 136.133L648.707 105.653L595.915 75.1738L543.123 105.653L595.915 136.133ZM487.866 136.134L540.66 105.653L487.866 75.1727L435.072 105.653L487.866 136.134ZM433.841 231.474L433.798 231.449V292.632L433.841 292.607L433.884 292.632V231.449L433.841 231.474ZM1028.11 136.132L1080.9 105.653L1028.11 75.1743L975.322 105.653L1028.11 136.132ZM1082.1 292.63V231.452L1082.14 231.474L1082.18 231.449V292.632L1082.14 292.607L1082.1 292.63ZM974.091 231.474L974.046 231.448V292.633L974.091 292.607L974.132 292.631V231.45L974.091 231.474ZM920.065 136.134L972.859 105.653L920.065 75.1727L867.271 105.653L920.065 136.134ZM1082.14 229.967L1134.93 199.486L1082.14 169.005L1029.34 199.486L1082.14 229.967ZM866.04 231.474L865.999 231.45V292.631L866.04 292.607L866.081 292.631V231.45L866.04 231.474ZM974.089 229.965L1026.88 199.486L974.089 169.006L921.297 199.486L974.089 229.965ZM918.834 199.486L866.04 229.967L813.246 199.486L866.04 169.005L918.834 199.486ZM757.989 229.967L810.783 199.486L757.989 169.005L705.195 199.486L757.989 229.967ZM702.732 199.486L649.94 229.965L597.148 199.486L649.94 169.006L702.732 199.486ZM594.686 199.486L541.89 229.967L489.095 199.486L541.89 169.005L594.686 199.486Z" fill="#185DFF"/>
<path d="M80.84 79L88.84 51H96.44L104.4 79H99.96L98.12 72.4H87.16L85.32 79H80.84ZM88.24 68.4H97.04L92.96 53.68H92.32L88.24 68.4ZM108.313 79V59.28H112.353V61.6H112.993C113.367 60.9067 113.967 60.2933 114.793 59.76C115.62 59.2267 116.74 58.96 118.153 58.96C119.62 58.96 120.793 59.2667 121.673 59.88C122.58 60.4667 123.26 61.2267 123.713 62.16H124.353C124.807 61.2533 125.46 60.4933 126.313 59.88C127.193 59.2667 128.433 58.96 130.033 58.96C131.313 58.96 132.447 59.2267 133.433 59.76C134.42 60.2667 135.207 61.04 135.793 62.08C136.38 63.0933 136.673 64.36 136.673 65.88V79H132.553V66.2C132.553 65 132.22 64.08 131.553 63.44C130.913 62.7733 129.993 62.44 128.793 62.44C127.513 62.44 126.487 62.8533 125.713 63.68C124.94 64.5067 124.553 65.6933 124.553 67.24V79H120.433V66.2C120.433 65 120.1 64.08 119.433 63.44C118.793 62.7733 117.873 62.44 116.673 62.44C115.393 62.44 114.367 62.8533 113.593 63.68C112.82 64.5067 112.433 65.6933 112.433 67.24V79H108.313ZM142.61 79V59.28H146.65V61.6H147.29C147.664 60.9067 148.264 60.2933 149.09 59.76C149.917 59.2267 151.037 58.96 152.45 58.96C153.917 58.96 155.09 59.2667 155.97 59.88C156.877 60.4667 157.557 61.2267 158.01 62.16H158.65C159.104 61.2533 159.757 60.4933 160.61 59.88C161.49 59.2667 162.73 58.96 164.33 58.96C165.61 58.96 166.744 59.2267 167.73 59.76C168.717 60.2667 169.504 61.04 170.09 62.08C170.677 63.0933 170.97 64.36 170.97 65.88V79H166.85V66.2C166.85 65 166.517 64.08 165.85 63.44C165.21 62.7733 164.29 62.44 163.09 62.44C161.81 62.44 160.784 62.8533 160.01 63.68C159.237 64.5067 158.85 65.6933 158.85 67.24V79H154.73V66.2C154.73 65 154.397 64.08 153.73 63.44C153.09 62.7733 152.17 62.44 150.97 62.44C149.69 62.44 148.664 62.8533 147.89 63.68C147.117 64.5067 146.73 65.6933 146.73 67.24V79H142.61ZM183.027 79.56C181.614 79.56 180.347 79.32 179.227 78.84C178.134 78.36 177.254 77.6533 176.587 76.72C175.947 75.7867 175.627 74.6533 175.627 73.32C175.627 71.96 175.947 70.84 176.587 69.96C177.254 69.0533 178.147 68.3733 179.267 67.92C180.414 67.4667 181.707 67.24 183.147 67.24H189.147V65.96C189.147 64.8133 188.801 63.8933 188.107 63.2C187.414 62.5067 186.347 62.16 184.907 62.16C183.494 62.16 182.414 62.4933 181.667 63.16C180.921 63.8267 180.427 64.6933 180.187 65.76L176.347 64.52C176.667 63.4533 177.174 62.4933 177.867 61.64C178.587 60.76 179.534 60.0533 180.707 59.52C181.881 58.9867 183.294 58.72 184.947 58.72C187.507 58.72 189.521 59.3733 190.987 60.68C192.454 61.9867 193.187 63.84 193.187 66.24V74.36C193.187 75.16 193.561 75.56 194.307 75.56H195.987V79H192.907C191.974 79 191.214 78.76 190.627 78.28C190.041 77.8 189.747 77.1467 189.747 76.32V76.2H189.147C188.934 76.6 188.614 77.0667 188.187 77.6C187.761 78.1333 187.134 78.6 186.307 79C185.481 79.3733 184.387 79.56 183.027 79.56ZM183.627 76.16C185.281 76.16 186.614 75.6933 187.627 74.76C188.641 73.8 189.147 72.4933 189.147 70.84V70.44H183.387C182.294 70.44 181.414 70.68 180.747 71.16C180.081 71.6133 179.747 72.2933 179.747 73.2C179.747 74.1067 180.094 74.8267 180.787 75.36C181.481 75.8933 182.427 76.16 183.627 76.16ZM199.993 79V51H204.113V79H199.993ZM209.268 69.24V68.64C209.268 66.56 209.681 64.7867 210.508 63.32C211.361 61.8533 212.481 60.72 213.868 59.92C215.254 59.12 216.774 58.72 218.428 58.72C220.348 58.72 221.814 59.08 222.828 59.8C223.868 60.52 224.628 61.2933 225.108 62.12H225.748V59.28H229.748V83.04C229.748 84.24 229.388 85.2 228.668 85.92C227.974 86.64 227.014 87 225.788 87H212.508V83.4H224.508C225.281 83.4 225.668 83 225.668 82.2V75.92H225.028C224.734 76.4 224.321 76.8933 223.788 77.4C223.254 77.9067 222.548 78.32 221.668 78.64C220.814 78.96 219.734 79.12 218.428 79.12C216.774 79.12 215.241 78.7333 213.828 77.96C212.441 77.16 211.334 76.0267 210.508 74.56C209.681 73.0667 209.268 71.2933 209.268 69.24ZM219.548 75.52C221.334 75.52 222.801 74.96 223.948 73.84C225.121 72.6933 225.708 71.12 225.708 69.12V68.76C225.708 66.7067 225.134 65.1333 223.988 64.04C222.841 62.92 221.361 62.36 219.548 62.36C217.788 62.36 216.321 62.92 215.148 64.04C214.001 65.1333 213.428 66.7067 213.428 68.76V69.12C213.428 71.12 214.001 72.6933 215.148 73.84C216.321 74.96 217.788 75.52 219.548 75.52ZM241.933 79.56C240.52 79.56 239.253 79.32 238.133 78.84C237.04 78.36 236.16 77.6533 235.493 76.72C234.853 75.7867 234.533 74.6533 234.533 73.32C234.533 71.96 234.853 70.84 235.493 69.96C236.16 69.0533 237.053 68.3733 238.173 67.92C239.32 67.4667 240.613 67.24 242.053 67.24H248.053V65.96C248.053 64.8133 247.707 63.8933 247.013 63.2C246.32 62.5067 245.253 62.16 243.813 62.16C242.4 62.16 241.32 62.4933 240.573 63.16C239.827 63.8267 239.333 64.6933 239.093 65.76L235.253 64.52C235.573 63.4533 236.08 62.4933 236.773 61.64C237.493 60.76 238.44 60.0533 239.613 59.52C240.787 58.9867 242.2 58.72 243.853 58.72C246.413 58.72 248.427 59.3733 249.893 60.68C251.36 61.9867 252.093 63.84 252.093 66.24V74.36C252.093 75.16 252.467 75.56 253.213 75.56H254.893V79H251.813C250.88 79 250.12 78.76 249.533 78.28C248.947 77.8 248.653 77.1467 248.653 76.32V76.2H248.053C247.84 76.6 247.52 77.0667 247.093 77.6C246.667 78.1333 246.04 78.6 245.213 79C244.387 79.3733 243.293 79.56 241.933 79.56ZM242.533 76.16C244.187 76.16 245.52 75.6933 246.533 74.76C247.547 73.8 248.053 72.4933 248.053 70.84V70.44H242.293C241.2 70.44 240.32 70.68 239.653 71.16C238.987 71.6133 238.653 72.2933 238.653 73.2C238.653 74.1067 239 74.8267 239.693 75.36C240.387 75.8933 241.333 76.16 242.533 76.16ZM258.899 79V59.28H262.939V61.6H263.579C263.953 60.9067 264.553 60.2933 265.379 59.76C266.206 59.2267 267.326 58.96 268.739 58.96C270.206 58.96 271.379 59.2667 272.259 59.88C273.166 60.4667 273.846 61.2267 274.299 62.16H274.939C275.393 61.2533 276.046 60.4933 276.899 59.88C277.779 59.2667 279.019 58.96 280.619 58.96C281.899 58.96 283.033 59.2267 284.019 59.76C285.006 60.2667 285.793 61.04 286.379 62.08C286.966 63.0933 287.259 64.36 287.259 65.88V79H283.139V66.2C283.139 65 282.806 64.08 282.139 63.44C281.499 62.7733 280.579 62.44 279.379 62.44C278.099 62.44 277.073 62.8533 276.299 63.68C275.526 64.5067 275.139 65.6933 275.139 67.24V79H271.019V66.2C271.019 65 270.686 64.08 270.019 63.44C269.379 62.7733 268.459 62.44 267.259 62.44C265.979 62.44 264.953 62.8533 264.179 63.68C263.406 64.5067 263.019 65.6933 263.019 67.24V79H258.899ZM81.88 129V125.16H85.64V104.84H81.88V101H93.08C96.8133 101 99.6667 101.947 101.64 103.84C103.64 105.733 104.64 108.587 104.64 112.4V117.64C104.64 121.453 103.64 124.307 101.64 126.2C99.6667 128.067 96.8133 129 93.08 129H81.88ZM90 125.08H93.12C95.5467 125.08 97.3467 124.467 98.52 123.24C99.6933 122.013 100.28 120.187 100.28 117.76V112.24C100.28 109.787 99.6933 107.96 98.52 106.76C97.3467 105.56 95.5467 104.96 93.12 104.96H90V125.08ZM118.882 129.56C116.908 129.56 115.148 129.16 113.602 128.36C112.082 127.533 110.882 126.36 110.002 124.84C109.122 123.32 108.682 121.52 108.682 119.44V118.84C108.682 116.76 109.122 114.973 110.002 113.48C110.882 111.96 112.082 110.787 113.602 109.96C115.148 109.133 116.908 108.72 118.882 108.72C120.855 108.72 122.615 109.133 124.162 109.96C125.708 110.787 126.922 111.96 127.802 113.48C128.682 114.973 129.122 116.76 129.122 118.84V119.44C129.122 121.52 128.682 123.32 127.802 124.84C126.922 126.36 125.708 127.533 124.162 128.36C122.615 129.16 120.855 129.56 118.882 129.56ZM118.882 125.88C120.695 125.88 122.162 125.307 123.282 124.16C124.428 122.987 125.002 121.373 125.002 119.32V118.96C125.002 116.907 124.442 115.307 123.322 114.16C122.202 112.987 120.722 112.4 118.882 112.4C117.095 112.4 115.628 112.987 114.482 114.16C113.362 115.307 112.802 116.907 112.802 118.96V119.32C112.802 121.373 113.362 122.987 114.482 124.16C115.628 125.307 117.095 125.88 118.882 125.88ZM143.411 129.56C141.518 129.56 139.798 129.16 138.251 128.36C136.731 127.56 135.518 126.4 134.611 124.88C133.731 123.36 133.291 121.533 133.291 119.4V118.88C133.291 116.747 133.731 114.933 134.611 113.44C135.518 111.92 136.731 110.76 138.251 109.96C139.798 109.133 141.518 108.72 143.411 108.72C145.304 108.72 146.918 109.067 148.251 109.76C149.584 110.453 150.651 111.373 151.451 112.52C152.278 113.667 152.811 114.933 153.051 116.32L149.051 117.16C148.918 116.28 148.638 115.48 148.211 114.76C147.784 114.04 147.184 113.467 146.411 113.04C145.638 112.613 144.664 112.4 143.491 112.4C142.344 112.4 141.304 112.667 140.371 113.2C139.464 113.707 138.744 114.453 138.211 115.44C137.678 116.4 137.411 117.573 137.411 118.96V119.32C137.411 120.707 137.678 121.893 138.211 122.88C138.744 123.867 139.464 124.613 140.371 125.12C141.304 125.627 142.344 125.88 143.491 125.88C145.224 125.88 146.544 125.44 147.451 124.56C148.358 123.653 148.931 122.507 149.171 121.12L153.171 122.04C152.851 123.4 152.278 124.653 151.451 125.8C150.651 126.947 149.584 127.867 148.251 128.56C146.918 129.227 145.304 129.56 143.411 129.56ZM165.483 129.36C163.989 129.36 162.656 129.027 161.483 128.36C160.309 127.693 159.389 126.747 158.723 125.52C158.056 124.293 157.723 122.827 157.723 121.12V109.28H161.843V120.84C161.843 122.547 162.269 123.813 163.123 124.64C163.976 125.44 165.163 125.84 166.683 125.84C168.363 125.84 169.709 125.28 170.723 124.16C171.763 123.013 172.283 121.373 172.283 119.24V109.28H176.403V129H172.363V126.04H171.723C171.349 126.84 170.683 127.6 169.723 128.32C168.763 129.013 167.349 129.36 165.483 129.36ZM182.493 129V109.28H186.533V111.6H187.173C187.546 110.907 188.146 110.293 188.973 109.76C189.8 109.227 190.92 108.96 192.333 108.96C193.8 108.96 194.973 109.267 195.853 109.88C196.76 110.467 197.44 111.227 197.893 112.16H198.533C198.986 111.253 199.64 110.493 200.493 109.88C201.373 109.267 202.613 108.96 204.213 108.96C205.493 108.96 206.626 109.227 207.613 109.76C208.6 110.267 209.386 111.04 209.973 112.08C210.56 113.093 210.853 114.36 210.853 115.88V129H206.733V116.2C206.733 115 206.4 114.08 205.733 113.44C205.093 112.773 204.173 112.44 202.973 112.44C201.693 112.44 200.666 112.853 199.893 113.68C199.12 114.507 198.733 115.693 198.733 117.24V129H194.613V116.2C194.613 115 194.28 114.08 193.613 113.44C192.973 112.773 192.053 112.44 190.853 112.44C189.573 112.44 188.546 112.853 187.773 113.68C187 114.507 186.613 115.693 186.613 117.24V129H182.493ZM225.83 129.56C223.83 129.56 222.083 129.147 220.59 128.32C219.097 127.467 217.923 126.28 217.07 124.76C216.243 123.213 215.83 121.427 215.83 119.4V118.92C215.83 116.867 216.243 115.08 217.07 113.56C217.897 112.013 219.043 110.827 220.51 110C222.003 109.147 223.723 108.72 225.67 108.72C227.563 108.72 229.217 109.147 230.63 110C232.07 110.827 233.19 111.987 233.99 113.48C234.79 114.973 235.19 116.72 235.19 118.72V120.28H220.03C220.083 122.013 220.657 123.4 221.75 124.44C222.87 125.453 224.257 125.96 225.91 125.96C227.457 125.96 228.617 125.613 229.39 124.92C230.19 124.227 230.803 123.427 231.23 122.52L234.63 124.28C234.257 125.027 233.71 125.813 232.99 126.64C232.297 127.467 231.377 128.16 230.23 128.72C229.083 129.28 227.617 129.56 225.83 129.56ZM220.07 117.12H230.99C230.883 115.627 230.35 114.467 229.39 113.64C228.43 112.787 227.177 112.36 225.63 112.36C224.083 112.36 222.817 112.787 221.83 113.64C220.87 114.467 220.283 115.627 220.07 117.12ZM240.149 129V109.28H244.189V112.24H244.829C245.203 111.44 245.869 110.693 246.829 110C247.789 109.307 249.216 108.96 251.109 108.96C252.603 108.96 253.923 109.293 255.069 109.96C256.243 110.627 257.163 111.573 257.829 112.8C258.496 114 258.829 115.453 258.829 117.16V129H254.709V117.48C254.709 115.773 254.283 114.52 253.429 113.72C252.576 112.893 251.403 112.48 249.909 112.48C248.203 112.48 246.829 113.04 245.789 114.16C244.776 115.28 244.269 116.907 244.269 119.04V129H240.149ZM271.612 129C270.412 129 269.452 128.64 268.732 127.92C268.039 127.2 267.692 126.24 267.692 125.04V112.76H262.252V109.28H267.692V102.76H271.812V109.28H277.692V112.76H271.812V124.32C271.812 125.12 272.185 125.52 272.932 125.52H277.052V129H271.612ZM288.613 129.56C287.2 129.56 285.933 129.32 284.813 128.84C283.72 128.36 282.84 127.653 282.173 126.72C281.533 125.787 281.213 124.653 281.213 123.32C281.213 121.96 281.533 120.84 282.173 119.96C282.84 119.053 283.733 118.373 284.853 117.92C286 117.467 287.293 117.24 288.733 117.24H294.733V115.96C294.733 114.813 294.386 113.893 293.693 113.2C293 112.507 291.933 112.16 290.493 112.16C289.08 112.16 288 112.493 287.253 113.16C286.506 113.827 286.013 114.693 285.773 115.76L281.933 114.52C282.253 113.453 282.76 112.493 283.453 111.64C284.173 110.76 285.12 110.053 286.293 109.52C287.466 108.987 288.88 108.72 290.533 108.72C293.093 108.72 295.106 109.373 296.573 110.68C298.04 111.987 298.773 113.84 298.773 116.24V124.36C298.773 125.16 299.146 125.56 299.893 125.56H301.573V129H298.493C297.56 129 296.8 128.76 296.213 128.28C295.626 127.8 295.333 127.147 295.333 126.32V126.2H294.733C294.52 126.6 294.2 127.067 293.773 127.6C293.346 128.133 292.72 128.6 291.893 129C291.066 129.373 289.973 129.56 288.613 129.56ZM289.213 126.16C290.866 126.16 292.2 125.693 293.213 124.76C294.226 123.8 294.733 122.493 294.733 120.84V120.44H288.973C287.88 120.44 287 120.68 286.333 121.16C285.666 121.613 285.333 122.293 285.333 123.2C285.333 124.107 285.68 124.827 286.373 125.36C287.066 125.893 288.013 126.16 289.213 126.16ZM311.612 129C310.412 129 309.452 128.64 308.732 127.92C308.039 127.2 307.692 126.24 307.692 125.04V112.76H302.252V109.28H307.692V102.76H311.812V109.28H317.692V112.76H311.812V124.32C311.812 125.12 312.185 125.52 312.932 125.52H317.052V129H311.612ZM322.532 129V109.28H326.652V129H322.532ZM324.612 106.6C323.812 106.6 323.132 106.347 322.572 105.84C322.039 105.307 321.772 104.627 321.772 103.8C321.772 102.973 322.039 102.307 322.572 101.8C323.132 101.267 323.812 101 324.612 101C325.439 101 326.119 101.267 326.652 101.8C327.186 102.307 327.452 102.973 327.452 103.8C327.452 104.627 327.186 105.307 326.652 105.84C326.119 106.347 325.439 106.6 324.612 106.6ZM342.007 129.56C340.033 129.56 338.273 129.16 336.727 128.36C335.207 127.533 334.007 126.36 333.127 124.84C332.247 123.32 331.807 121.52 331.807 119.44V118.84C331.807 116.76 332.247 114.973 333.127 113.48C334.007 111.96 335.207 110.787 336.727 109.96C338.273 109.133 340.033 108.72 342.007 108.72C343.98 108.72 345.74 109.133 347.287 109.96C348.833 110.787 350.047 111.96 350.927 113.48C351.807 114.973 352.247 116.76 352.247 118.84V119.44C352.247 121.52 351.807 123.32 350.927 124.84C350.047 126.36 348.833 127.533 347.287 128.36C345.74 129.16 343.98 129.56 342.007 129.56ZM342.007 125.88C343.82 125.88 345.287 125.307 346.407 124.16C347.553 122.987 348.127 121.373 348.127 119.32V118.96C348.127 116.907 347.567 115.307 346.447 114.16C345.327 112.987 343.847 112.4 342.007 112.4C340.22 112.4 338.753 112.987 337.607 114.16C336.487 115.307 335.927 116.907 335.927 118.96V119.32C335.927 121.373 336.487 122.987 337.607 124.16C338.753 125.307 340.22 125.88 342.007 125.88ZM357.376 129V109.28H361.416V112.24H362.056C362.429 111.44 363.096 110.693 364.056 110C365.016 109.307 366.443 108.96 368.336 108.96C369.829 108.96 371.149 109.293 372.296 109.96C373.469 110.627 374.389 111.573 375.056 112.8C375.723 114 376.056 115.453 376.056 117.16V129H371.936V117.48C371.936 115.773 371.509 114.52 370.656 113.72C369.803 112.893 368.629 112.48 367.136 112.48C365.429 112.48 364.056 113.04 363.016 114.16C362.003 115.28 361.496 116.907 361.496 119.04V129H357.376Z" fill="white"/>
<path d="M87.704 165.16C90.184 165.16 92.128 165.848 93.536 167.224C94.96 168.584 95.672 170.536 95.672 173.08C95.672 175.624 94.96 177.584 93.536 178.96C92.128 180.32 90.184 181 87.704 181H82.592V165.16H87.704ZM87.896 179.2C89.704 179.2 91.112 178.664 92.12 177.592C93.144 176.504 93.656 175 93.656 173.08C93.656 171.16 93.144 169.664 92.12 168.592C91.112 167.504 89.704 166.96 87.896 166.96H84.512V179.2H87.896ZM104.545 181.24C103.409 181.24 102.393 180.992 101.497 180.496C100.617 180 99.9289 179.288 99.4329 178.36C98.9369 177.416 98.6889 176.296 98.6889 175C98.6889 173.704 98.9369 172.592 99.4329 171.664C99.9289 170.72 100.609 170 101.473 169.504C102.337 169.008 103.321 168.76 104.425 168.76C105.545 168.76 106.497 169 107.281 169.48C108.081 169.96 108.689 170.616 109.105 171.448C109.521 172.264 109.729 173.184 109.729 174.208C109.729 174.48 109.721 174.728 109.705 174.952C109.689 175.176 109.665 175.376 109.633 175.552H99.9369V173.848H108.793L107.809 174.04C107.809 172.888 107.489 172 106.849 171.376C106.225 170.752 105.401 170.44 104.377 170.44C103.593 170.44 102.913 170.624 102.337 170.992C101.777 171.344 101.337 171.864 101.017 172.552C100.713 173.224 100.561 174.04 100.561 175C100.561 175.944 100.721 176.76 101.041 177.448C101.361 178.136 101.809 178.664 102.385 179.032C102.977 179.384 103.681 179.56 104.497 179.56C105.377 179.56 106.089 179.392 106.633 179.056C107.193 178.72 107.641 178.264 107.977 177.688L109.489 178.576C109.185 179.12 108.793 179.592 108.313 179.992C107.849 180.392 107.297 180.704 106.657 180.928C106.033 181.136 105.329 181.24 104.545 181.24ZM118.348 168.76C119.18 168.76 119.908 168.888 120.532 169.144C121.172 169.4 121.724 169.768 122.188 170.248C122.652 170.728 123.028 171.296 123.316 171.952L121.492 172.816C121.236 172.048 120.844 171.464 120.316 171.064C119.804 170.648 119.132 170.44 118.3 170.44C117.5 170.44 116.812 170.624 116.236 170.992C115.66 171.344 115.22 171.864 114.916 172.552C114.612 173.224 114.46 174.04 114.46 175C114.46 175.944 114.612 176.76 114.916 177.448C115.22 178.136 115.66 178.664 116.236 179.032C116.812 179.384 117.5 179.56 118.3 179.56C118.924 179.56 119.46 179.464 119.908 179.272C120.372 179.08 120.748 178.8 121.036 178.432C121.34 178.064 121.548 177.616 121.66 177.088L123.436 177.712C123.164 178.448 122.788 179.08 122.308 179.608C121.844 180.136 121.276 180.544 120.604 180.832C119.948 181.104 119.196 181.24 118.348 181.24C117.228 181.24 116.228 180.992 115.348 180.496C114.468 180 113.78 179.288 113.284 178.36C112.788 177.416 112.54 176.296 112.54 175C112.54 173.704 112.788 172.592 113.284 171.664C113.78 170.72 114.468 170 115.348 169.504C116.228 169.008 117.228 168.76 118.348 168.76ZM131.826 181.24C130.69 181.24 129.674 180.992 128.778 180.496C127.898 180 127.21 179.288 126.714 178.36C126.218 177.416 125.97 176.296 125.97 175C125.97 173.704 126.218 172.592 126.714 171.664C127.21 170.72 127.89 170 128.754 169.504C129.618 169.008 130.602 168.76 131.706 168.76C132.826 168.76 133.778 169 134.562 169.48C135.362 169.96 135.97 170.616 136.386 171.448C136.802 172.264 137.01 173.184 137.01 174.208C137.01 174.48 137.002 174.728 136.986 174.952C136.97 175.176 136.946 175.376 136.914 175.552H127.218V173.848H136.074L135.09 174.04C135.09 172.888 134.77 172 134.13 171.376C133.506 170.752 132.682 170.44 131.658 170.44C130.874 170.44 130.194 170.624 129.618 170.992C129.058 171.344 128.618 171.864 128.298 172.552C127.994 173.224 127.842 174.04 127.842 175C127.842 175.944 128.002 176.76 128.322 177.448C128.642 178.136 129.09 178.664 129.666 179.032C130.258 179.384 130.962 179.56 131.778 179.56C132.658 179.56 133.37 179.392 133.914 179.056C134.474 178.72 134.922 178.264 135.258 177.688L136.77 178.576C136.466 179.12 136.074 179.592 135.594 179.992C135.13 180.392 134.578 180.704 133.938 180.928C133.314 181.136 132.61 181.24 131.826 181.24ZM140.662 181V169H142.342L142.51 171.688L142.198 171.424C142.454 170.784 142.798 170.272 143.23 169.888C143.662 169.488 144.158 169.2 144.718 169.024C145.294 168.848 145.886 168.76 146.494 168.76C147.358 168.76 148.142 168.928 148.846 169.264C149.55 169.584 150.11 170.08 150.526 170.752C150.958 171.424 151.174 172.28 151.174 173.32V181H149.254V173.992C149.254 172.664 148.966 171.744 148.39 171.232C147.83 170.704 147.134 170.44 146.302 170.44C145.726 170.44 145.15 170.576 144.574 170.848C143.998 171.12 143.518 171.56 143.134 172.168C142.766 172.776 142.582 173.592 142.582 174.616V181H140.662ZM158.189 165.592V177.688C158.189 178.28 158.357 178.72 158.693 179.008C159.029 179.296 159.461 179.44 159.989 179.44C160.453 179.44 160.853 179.36 161.189 179.2C161.525 179.04 161.829 178.824 162.101 178.552L162.773 180.16C162.405 180.496 161.965 180.76 161.453 180.952C160.957 181.144 160.381 181.24 159.725 181.24C159.117 181.24 158.549 181.136 158.021 180.928C157.493 180.704 157.069 180.36 156.749 179.896C156.445 179.416 156.285 178.792 156.269 178.024V166.12L158.189 165.592ZM162.557 169V170.656H153.869V169H162.557ZM165.412 181V169H166.972L167.236 170.968C167.572 170.232 168.06 169.68 168.7 169.312C169.356 168.944 170.148 168.76 171.076 168.76C171.284 168.76 171.508 168.776 171.748 168.808C172.004 168.84 172.22 168.904 172.396 169L172.06 170.752C171.884 170.688 171.692 170.64 171.484 170.608C171.276 170.576 170.98 170.56 170.596 170.56C170.1 170.56 169.596 170.704 169.084 170.992C168.588 171.28 168.172 171.72 167.836 172.312C167.5 172.888 167.332 173.624 167.332 174.52V181H165.412ZM181.888 173.248C181.888 172.352 181.648 171.664 181.168 171.184C180.688 170.688 180.008 170.44 179.128 170.44C178.296 170.44 177.592 170.624 177.016 170.992C176.44 171.344 176.016 171.92 175.744 172.72L174.184 171.76C174.504 170.864 175.096 170.144 175.96 169.6C176.824 169.04 177.896 168.76 179.176 168.76C180.04 168.76 180.824 168.912 181.528 169.216C182.232 169.504 182.784 169.952 183.184 170.56C183.6 171.152 183.808 171.92 183.808 172.864V178.672C183.808 179.248 184.112 179.536 184.72 179.536C185.024 179.536 185.32 179.496 185.608 179.416L185.512 180.928C185.192 181.088 184.776 181.168 184.264 181.168C183.8 181.168 183.384 181.08 183.016 180.904C182.648 180.728 182.36 180.464 182.152 180.112C181.944 179.744 181.84 179.288 181.84 178.744V178.504L182.32 178.576C182.128 179.2 181.8 179.712 181.336 180.112C180.872 180.496 180.352 180.784 179.776 180.976C179.2 181.152 178.632 181.24 178.072 181.24C177.368 181.24 176.712 181.12 176.104 180.88C175.496 180.64 175.008 180.28 174.64 179.8C174.288 179.304 174.112 178.696 174.112 177.976C174.112 177.08 174.408 176.344 175 175.768C175.608 175.176 176.448 174.776 177.52 174.568L182.272 173.632V175.216L178.408 176.008C177.624 176.168 177.04 176.392 176.656 176.68C176.272 176.968 176.08 177.368 176.08 177.88C176.08 178.376 176.272 178.784 176.656 179.104C177.056 179.408 177.616 179.56 178.336 179.56C178.8 179.56 179.24 179.504 179.656 179.392C180.088 179.264 180.472 179.08 180.808 178.84C181.144 178.584 181.408 178.272 181.6 177.904C181.792 177.52 181.888 177.072 181.888 176.56V173.248ZM190.298 163.48V177.952C190.298 178.56 190.41 178.984 190.634 179.224C190.858 179.448 191.218 179.56 191.714 179.56C192.034 179.56 192.298 179.536 192.506 179.488C192.714 179.44 192.994 179.352 193.346 179.224L193.034 180.904C192.778 181.016 192.498 181.096 192.194 181.144C191.89 181.208 191.578 181.24 191.258 181.24C190.282 181.24 189.554 180.976 189.074 180.448C188.61 179.92 188.378 179.112 188.378 178.024V163.48H190.298ZM196.77 166.696C196.338 166.696 195.986 166.568 195.714 166.312C195.458 166.04 195.33 165.688 195.33 165.256C195.33 164.824 195.458 164.48 195.714 164.224C195.986 163.952 196.338 163.816 196.77 163.816C197.202 163.816 197.546 163.952 197.802 164.224C198.074 164.48 198.21 164.824 198.21 165.256C198.21 165.688 198.074 166.04 197.802 166.312C197.546 166.568 197.202 166.696 196.77 166.696ZM197.73 169V181H195.81V169H197.73ZM201.321 181V179.536L207.609 172.168L209.121 170.608L206.985 170.656H201.393V169H211.257V170.464L204.969 177.832L203.481 179.392L205.809 179.344H211.449V181H201.321ZM219.834 181.24C218.698 181.24 217.682 180.992 216.786 180.496C215.906 180 215.218 179.288 214.722 178.36C214.226 177.416 213.978 176.296 213.978 175C213.978 173.704 214.226 172.592 214.722 171.664C215.218 170.72 215.898 170 216.762 169.504C217.626 169.008 218.61 168.76 219.714 168.76C220.834 168.76 221.786 169 222.57 169.48C223.37 169.96 223.978 170.616 224.394 171.448C224.81 172.264 225.018 173.184 225.018 174.208C225.018 174.48 225.01 174.728 224.994 174.952C224.978 175.176 224.954 175.376 224.922 175.552H215.226V173.848H224.082L223.098 174.04C223.098 172.888 222.778 172 222.138 171.376C221.514 170.752 220.69 170.44 219.666 170.44C218.882 170.44 218.202 170.624 217.626 170.992C217.066 171.344 216.626 171.864 216.306 172.552C216.002 173.224 215.85 174.04 215.85 175C215.85 175.944 216.01 176.76 216.33 177.448C216.65 178.136 217.098 178.664 217.674 179.032C218.266 179.384 218.97 179.56 219.786 179.56C220.666 179.56 221.378 179.392 221.922 179.056C222.482 178.72 222.93 178.264 223.266 177.688L224.778 178.576C224.474 179.12 224.082 179.592 223.602 179.992C223.138 180.392 222.586 180.704 221.946 180.928C221.322 181.136 220.618 181.24 219.834 181.24ZM233.35 181.24C232.358 181.24 231.446 180.992 230.614 180.496C229.782 180 229.118 179.288 228.622 178.36C228.126 177.416 227.878 176.296 227.878 175C227.878 173.672 228.142 172.544 228.67 171.616C229.198 170.688 229.894 169.984 230.758 169.504C231.622 169.008 232.55 168.76 233.542 168.76C234.534 168.76 235.39 169.016 236.11 169.528C236.846 170.04 237.334 170.72 237.574 171.568L237.334 171.736V163.48H239.254V181H237.574L237.406 178.096L237.67 177.952C237.558 178.656 237.286 179.256 236.854 179.752C236.438 180.232 235.918 180.6 235.294 180.856C234.686 181.112 234.038 181.24 233.35 181.24ZM233.542 179.56C234.31 179.56 234.974 179.368 235.534 178.984C236.11 178.6 236.55 178.056 236.854 177.352C237.174 176.632 237.334 175.792 237.334 174.832C237.334 173.92 237.174 173.136 236.854 172.48C236.55 171.824 236.118 171.32 235.558 170.968C235.014 170.616 234.374 170.44 233.638 170.44C232.422 170.44 231.478 170.856 230.806 171.688C230.134 172.52 229.798 173.624 229.798 175C229.798 176.376 230.126 177.48 230.782 178.312C231.438 179.144 232.358 179.56 233.542 179.56ZM254.176 179.2H263.248V181H252.256V165.16H254.176V179.2ZM270.904 181.24C269.768 181.24 268.752 180.992 267.856 180.496C266.976 180 266.288 179.288 265.792 178.36C265.296 177.416 265.048 176.296 265.048 175C265.048 173.704 265.296 172.592 265.792 171.664C266.288 170.72 266.968 170 267.832 169.504C268.696 169.008 269.68 168.76 270.784 168.76C271.904 168.76 272.856 169 273.64 169.48C274.44 169.96 275.048 170.616 275.464 171.448C275.88 172.264 276.088 173.184 276.088 174.208C276.088 174.48 276.08 174.728 276.064 174.952C276.048 175.176 276.024 175.376 275.992 175.552H266.296V173.848H275.152L274.168 174.04C274.168 172.888 273.848 172 273.208 171.376C272.584 170.752 271.76 170.44 270.736 170.44C269.952 170.44 269.272 170.624 268.696 170.992C268.136 171.344 267.696 171.864 267.376 172.552C267.072 173.224 266.92 174.04 266.92 175C266.92 175.944 267.08 176.76 267.4 177.448C267.72 178.136 268.168 178.664 268.744 179.032C269.336 179.384 270.04 179.56 270.856 179.56C271.736 179.56 272.448 179.392 272.992 179.056C273.552 178.72 274 178.264 274.336 177.688L275.848 178.576C275.544 179.12 275.152 179.592 274.672 179.992C274.208 180.392 273.656 180.704 273.016 180.928C272.392 181.136 271.688 181.24 270.904 181.24ZM279.74 181V169H281.42L281.588 171.688L281.276 171.424C281.532 170.784 281.876 170.272 282.308 169.888C282.74 169.488 283.236 169.2 283.796 169.024C284.372 168.848 284.964 168.76 285.572 168.76C286.436 168.76 287.22 168.928 287.924 169.264C288.628 169.584 289.188 170.08 289.604 170.752C290.036 171.424 290.252 172.28 290.252 173.32V181H288.332V173.992C288.332 172.664 288.044 171.744 287.468 171.232C286.908 170.704 286.212 170.44 285.38 170.44C284.804 170.44 284.228 170.576 283.652 170.848C283.076 171.12 282.596 171.56 282.212 172.168C281.844 172.776 281.66 173.592 281.66 174.616V181H279.74ZM299.279 181.24C298.287 181.24 297.375 180.992 296.543 180.496C295.711 180 295.047 179.288 294.551 178.36C294.055 177.416 293.807 176.296 293.807 175C293.807 173.672 294.071 172.544 294.599 171.616C295.127 170.688 295.823 169.984 296.687 169.504C297.551 169.008 298.479 168.76 299.471 168.76C300.463 168.76 301.319 169.016 302.039 169.528C302.775 170.04 303.263 170.72 303.503 171.568L303.263 171.736V163.48H305.183V181H303.503L303.335 178.096L303.599 177.952C303.487 178.656 303.215 179.256 302.783 179.752C302.367 180.232 301.847 180.6 301.223 180.856C300.615 181.112 299.967 181.24 299.279 181.24ZM299.471 179.56C300.239 179.56 300.903 179.368 301.463 178.984C302.039 178.6 302.479 178.056 302.783 177.352C303.103 176.632 303.263 175.792 303.263 174.832C303.263 173.92 303.103 173.136 302.783 172.48C302.479 171.824 302.047 171.32 301.487 170.968C300.943 170.616 300.303 170.44 299.567 170.44C298.351 170.44 297.407 170.856 296.735 171.688C296.063 172.52 295.727 173.624 295.727 175C295.727 176.376 296.055 177.48 296.711 178.312C297.367 179.144 298.287 179.56 299.471 179.56ZM310.606 166.696C310.174 166.696 309.822 166.568 309.55 166.312C309.294 166.04 309.166 165.688 309.166 165.256C309.166 164.824 309.294 164.48 309.55 164.224C309.822 163.952 310.174 163.816 310.606 163.816C311.038 163.816 311.382 163.952 311.638 164.224C311.91 164.48 312.046 164.824 312.046 165.256C312.046 165.688 311.91 166.04 311.638 166.312C311.382 166.568 311.038 166.696 310.606 166.696ZM311.566 169V181H309.646V169H311.566ZM316.021 181V169H317.701L317.869 171.688L317.557 171.424C317.813 170.784 318.157 170.272 318.589 169.888C319.021 169.488 319.517 169.2 320.077 169.024C320.653 168.848 321.245 168.76 321.853 168.76C322.717 168.76 323.501 168.928 324.205 169.264C324.909 169.584 325.469 170.08 325.885 170.752C326.317 171.424 326.533 172.28 326.533 173.32V181H324.613V173.992C324.613 172.664 324.325 171.744 323.749 171.232C323.189 170.704 322.493 170.44 321.661 170.44C321.085 170.44 320.509 170.576 319.933 170.848C319.357 171.12 318.877 171.56 318.493 172.168C318.125 172.776 317.941 173.592 317.941 174.616V181H316.021ZM340.984 166.792L341.416 168.496C341.4 168.496 341.376 168.496 341.344 168.496C341.312 168.496 341.28 168.496 341.248 168.496C340.464 168.496 339.856 168.656 339.424 168.976C339.008 169.28 338.8 169.776 338.8 170.464L337.624 169.864C337.624 169.24 337.768 168.696 338.056 168.232C338.344 167.768 338.736 167.416 339.232 167.176C339.728 166.92 340.272 166.792 340.864 166.792C340.88 166.792 340.896 166.792 340.912 166.792C340.944 166.792 340.968 166.792 340.984 166.792ZM337.336 179.464C338.472 179.464 339.36 179.728 340 180.256C340.64 180.768 340.96 181.456 340.96 182.32C340.96 183.104 340.696 183.784 340.168 184.36C339.656 184.936 338.96 185.376 338.08 185.68C337.216 186 336.24 186.16 335.152 186.16C333.264 186.16 331.848 185.84 330.904 185.2C329.976 184.56 329.512 183.792 329.512 182.896C329.512 182.256 329.72 181.68 330.136 181.168C330.568 180.672 331.288 180.392 332.296 180.328L332.128 180.688C331.584 180.544 331.12 180.304 330.736 179.968C330.368 179.616 330.184 179.112 330.184 178.456C330.184 177.8 330.424 177.24 330.904 176.776C331.4 176.296 332.128 176 333.088 175.888L334.36 176.536H334.12C333.336 176.616 332.776 176.816 332.44 177.136C332.12 177.44 331.96 177.776 331.96 178.144C331.96 178.592 332.12 178.928 332.44 179.152C332.776 179.36 333.24 179.464 333.832 179.464H337.336ZM335.128 184.552C336.056 184.552 336.816 184.456 337.408 184.264C338.016 184.072 338.464 183.824 338.752 183.52C339.04 183.216 339.184 182.888 339.184 182.536C339.184 182.104 339.008 181.76 338.656 181.504C338.32 181.248 337.704 181.12 336.808 181.12H333.112C332.6 181.12 332.168 181.248 331.816 181.504C331.464 181.776 331.288 182.144 331.288 182.608C331.288 183.2 331.624 183.672 332.296 184.024C332.984 184.376 333.928 184.552 335.128 184.552ZM334.96 168.76C335.92 168.76 336.768 168.936 337.504 169.288C338.256 169.624 338.84 170.096 339.256 170.704C339.672 171.312 339.88 172.016 339.88 172.816C339.88 173.6 339.672 174.304 339.256 174.928C338.84 175.536 338.256 176.016 337.504 176.368C336.768 176.704 335.92 176.872 334.96 176.872C333.376 176.872 332.16 176.496 331.312 175.744C330.464 174.976 330.04 174 330.04 172.816C330.04 172.016 330.248 171.312 330.664 170.704C331.096 170.096 331.68 169.624 332.416 169.288C333.152 168.936 334 168.76 334.96 168.76ZM334.96 170.32C334.128 170.32 333.432 170.552 332.872 171.016C332.312 171.464 332.032 172.064 332.032 172.816C332.032 173.552 332.312 174.152 332.872 174.616C333.432 175.08 334.128 175.312 334.96 175.312C335.792 175.312 336.488 175.08 337.048 174.616C337.608 174.152 337.888 173.552 337.888 172.816C337.888 172.064 337.608 171.464 337.048 171.016C336.488 170.552 335.792 170.32 334.96 170.32ZM352.194 181V165.16H363.306V166.96H354.114V172.072H361.266V173.872H354.114V179.2H363.666V181H352.194ZM368.29 169L371.866 174.016L371.986 174.184L376.906 181H374.554L370.834 175.792L370.618 175.528L365.89 169H368.29ZM376.834 169L372.082 175.408H371.962L367.834 181H365.602L370.834 174.112H370.978L374.578 169H376.834ZM384.434 168.76C385.266 168.76 385.994 168.888 386.618 169.144C387.258 169.4 387.81 169.768 388.274 170.248C388.738 170.728 389.114 171.296 389.402 171.952L387.578 172.816C387.322 172.048 386.93 171.464 386.402 171.064C385.89 170.648 385.218 170.44 384.386 170.44C383.586 170.44 382.898 170.624 382.322 170.992C381.746 171.344 381.306 171.864 381.002 172.552C380.698 173.224 380.546 174.04 380.546 175C380.546 175.944 380.698 176.76 381.002 177.448C381.306 178.136 381.746 178.664 382.322 179.032C382.898 179.384 383.586 179.56 384.386 179.56C385.01 179.56 385.546 179.464 385.994 179.272C386.458 179.08 386.834 178.8 387.122 178.432C387.426 178.064 387.634 177.616 387.746 177.088L389.522 177.712C389.25 178.448 388.874 179.08 388.394 179.608C387.93 180.136 387.362 180.544 386.69 180.832C386.034 181.104 385.282 181.24 384.434 181.24C383.314 181.24 382.314 180.992 381.434 180.496C380.554 180 379.866 179.288 379.37 178.36C378.874 177.416 378.626 176.296 378.626 175C378.626 173.704 378.874 172.592 379.37 171.664C379.866 170.72 380.554 170 381.434 169.504C382.314 169.008 383.314 168.76 384.434 168.76ZM392.896 181V163.48H394.816V170.8C395.232 170.08 395.784 169.56 396.472 169.24C397.16 168.92 397.912 168.76 398.728 168.76C399.592 168.76 400.376 168.928 401.08 169.264C401.784 169.584 402.344 170.08 402.76 170.752C403.192 171.424 403.408 172.28 403.408 173.32V181H401.488V173.992C401.488 172.664 401.2 171.744 400.624 171.232C400.064 170.704 399.368 170.44 398.536 170.44C397.96 170.44 397.384 170.576 396.808 170.848C396.232 171.12 395.752 171.568 395.368 172.192C395 172.8 394.816 173.616 394.816 174.64V181H392.896ZM414.763 173.248C414.763 172.352 414.523 171.664 414.043 171.184C413.563 170.688 412.883 170.44 412.003 170.44C411.171 170.44 410.467 170.624 409.891 170.992C409.315 171.344 408.891 171.92 408.619 172.72L407.059 171.76C407.379 170.864 407.971 170.144 408.835 169.6C409.699 169.04 410.771 168.76 412.051 168.76C412.915 168.76 413.699 168.912 414.403 169.216C415.107 169.504 415.659 169.952 416.059 170.56C416.475 171.152 416.683 171.92 416.683 172.864V178.672C416.683 179.248 416.987 179.536 417.595 179.536C417.899 179.536 418.195 179.496 418.483 179.416L418.387 180.928C418.067 181.088 417.651 181.168 417.139 181.168C416.675 181.168 416.259 181.08 415.891 180.904C415.523 180.728 415.235 180.464 415.027 180.112C414.819 179.744 414.715 179.288 414.715 178.744V178.504L415.195 178.576C415.003 179.2 414.675 179.712 414.211 180.112C413.747 180.496 413.227 180.784 412.651 180.976C412.075 181.152 411.507 181.24 410.947 181.24C410.243 181.24 409.587 181.12 408.979 180.88C408.371 180.64 407.883 180.28 407.515 179.8C407.163 179.304 406.987 178.696 406.987 177.976C406.987 177.08 407.283 176.344 407.875 175.768C408.483 175.176 409.323 174.776 410.395 174.568L415.147 173.632V175.216L411.283 176.008C410.499 176.168 409.915 176.392 409.531 176.68C409.147 176.968 408.955 177.368 408.955 177.88C408.955 178.376 409.147 178.784 409.531 179.104C409.931 179.408 410.491 179.56 411.211 179.56C411.675 179.56 412.115 179.504 412.531 179.392C412.963 179.264 413.347 179.08 413.683 178.84C414.019 178.584 414.283 178.272 414.475 177.904C414.667 177.52 414.763 177.072 414.763 176.56V173.248ZM421.349 181V169H423.029L423.197 171.688L422.885 171.424C423.141 170.784 423.485 170.272 423.917 169.888C424.349 169.488 424.845 169.2 425.405 169.024C425.981 168.848 426.573 168.76 427.181 168.76C428.045 168.76 428.829 168.928 429.533 169.264C430.237 169.584 430.797 170.08 431.213 170.752C431.645 171.424 431.861 172.28 431.861 173.32V181H429.941V173.992C429.941 172.664 429.653 171.744 429.077 171.232C428.517 170.704 427.821 170.44 426.989 170.44C426.413 170.44 425.837 170.576 425.261 170.848C424.685 171.12 424.205 171.56 423.821 172.168C423.453 172.776 423.269 173.592 423.269 174.616V181H421.349ZM446.313 166.792L446.745 168.496C446.729 168.496 446.705 168.496 446.673 168.496C446.641 168.496 446.609 168.496 446.577 168.496C445.793 168.496 445.185 168.656 444.753 168.976C444.337 169.28 444.129 169.776 444.129 170.464L442.953 169.864C442.953 169.24 443.097 168.696 443.385 168.232C443.673 167.768 444.065 167.416 444.561 167.176C445.057 166.92 445.601 166.792 446.193 166.792C446.209 166.792 446.225 166.792 446.241 166.792C446.273 166.792 446.297 166.792 446.313 166.792ZM442.665 179.464C443.801 179.464 444.689 179.728 445.329 180.256C445.969 180.768 446.289 181.456 446.289 182.32C446.289 183.104 446.025 183.784 445.497 184.36C444.985 184.936 444.289 185.376 443.409 185.68C442.545 186 441.569 186.16 440.481 186.16C438.593 186.16 437.177 185.84 436.233 185.2C435.305 184.56 434.841 183.792 434.841 182.896C434.841 182.256 435.049 181.68 435.465 181.168C435.897 180.672 436.617 180.392 437.625 180.328L437.457 180.688C436.913 180.544 436.449 180.304 436.065 179.968C435.697 179.616 435.513 179.112 435.513 178.456C435.513 177.8 435.753 177.24 436.233 176.776C436.729 176.296 437.457 176 438.417 175.888L439.689 176.536H439.449C438.665 176.616 438.105 176.816 437.769 177.136C437.449 177.44 437.289 177.776 437.289 178.144C437.289 178.592 437.449 178.928 437.769 179.152C438.105 179.36 438.569 179.464 439.161 179.464H442.665ZM440.457 184.552C441.385 184.552 442.145 184.456 442.737 184.264C443.345 184.072 443.793 183.824 444.081 183.52C444.369 183.216 444.513 182.888 444.513 182.536C444.513 182.104 444.337 181.76 443.985 181.504C443.649 181.248 443.033 181.12 442.137 181.12H438.441C437.929 181.12 437.497 181.248 437.145 181.504C436.793 181.776 436.617 182.144 436.617 182.608C436.617 183.2 436.953 183.672 437.625 184.024C438.313 184.376 439.257 184.552 440.457 184.552ZM440.289 168.76C441.249 168.76 442.097 168.936 442.833 169.288C443.585 169.624 444.169 170.096 444.585 170.704C445.001 171.312 445.209 172.016 445.209 172.816C445.209 173.6 445.001 174.304 444.585 174.928C444.169 175.536 443.585 176.016 442.833 176.368C442.097 176.704 441.249 176.872 440.289 176.872C438.705 176.872 437.489 176.496 436.641 175.744C435.793 174.976 435.369 174 435.369 172.816C435.369 172.016 435.577 171.312 435.993 170.704C436.425 170.096 437.009 169.624 437.745 169.288C438.481 168.936 439.329 168.76 440.289 168.76ZM440.289 170.32C439.457 170.32 438.761 170.552 438.201 171.016C437.641 171.464 437.361 172.064 437.361 172.816C437.361 173.552 437.641 174.152 438.201 174.616C438.761 175.08 439.457 175.312 440.289 175.312C441.121 175.312 441.817 175.08 442.377 174.616C442.937 174.152 443.217 173.552 443.217 172.816C443.217 172.064 442.937 171.464 442.377 171.016C441.817 170.552 441.121 170.32 440.289 170.32ZM453.998 181.24C452.862 181.24 451.846 180.992 450.95 180.496C450.07 180 449.382 179.288 448.886 178.36C448.39 177.416 448.142 176.296 448.142 175C448.142 173.704 448.39 172.592 448.886 171.664C449.382 170.72 450.062 170 450.926 169.504C451.79 169.008 452.774 168.76 453.878 168.76C454.998 168.76 455.95 169 456.734 169.48C457.534 169.96 458.142 170.616 458.558 171.448C458.974 172.264 459.182 173.184 459.182 174.208C459.182 174.48 459.174 174.728 459.158 174.952C459.142 175.176 459.118 175.376 459.086 175.552H449.39V173.848H458.246L457.262 174.04C457.262 172.888 456.942 172 456.302 171.376C455.678 170.752 454.854 170.44 453.83 170.44C453.046 170.44 452.366 170.624 451.79 170.992C451.23 171.344 450.79 171.864 450.47 172.552C450.166 173.224 450.014 174.04 450.014 175C450.014 175.944 450.174 176.76 450.494 177.448C450.814 178.136 451.262 178.664 451.838 179.032C452.43 179.384 453.134 179.56 453.95 179.56C454.83 179.56 455.542 179.392 456.086 179.056C456.646 178.72 457.094 178.264 457.43 177.688L458.942 178.576C458.638 179.12 458.246 179.592 457.766 179.992C457.302 180.392 456.75 180.704 456.11 180.928C455.486 181.136 454.782 181.24 453.998 181.24ZM475.381 162.976L476.485 164.08C475.429 165.04 474.589 166.056 473.965 167.128C473.341 168.184 472.893 169.304 472.621 170.488C472.349 171.656 472.213 172.912 472.213 174.256C472.213 175.584 472.349 176.84 472.621 178.024C472.893 179.208 473.341 180.328 473.965 181.384C474.589 182.44 475.429 183.456 476.485 184.432L475.381 185.536C473.685 184.064 472.405 182.384 471.541 180.496C470.677 178.592 470.245 176.512 470.245 174.256C470.245 172 470.677 169.92 471.541 168.016C472.405 166.112 473.685 164.432 475.381 162.976ZM484.571 165.16C487.051 165.16 488.995 165.848 490.403 167.224C491.827 168.584 492.539 170.536 492.539 173.08C492.539 175.624 491.827 177.584 490.403 178.96C488.995 180.32 487.051 181 484.571 181H479.459V165.16H484.571ZM484.763 179.2C486.571 179.2 487.979 178.664 488.987 177.592C490.011 176.504 490.523 175 490.523 173.08C490.523 171.16 490.011 169.664 488.987 168.592C487.979 167.504 486.571 166.96 484.763 166.96H481.379V179.2H484.763ZM498.676 179.2H507.748V181H496.756V165.16H498.676V179.2ZM511.1 181V165.16H522.212V166.96H513.02V172.072H520.172V173.872H513.02V179.2H522.572V181H511.1ZM537.469 181H535.261L530.965 174.472L526.645 181H524.413L529.957 172.936L524.893 165.16H527.149L531.157 171.328L535.213 165.16H537.301L532.165 172.84L537.469 181ZM540.027 185.536L538.923 184.432C539.979 183.456 540.819 182.44 541.443 181.384C542.067 180.328 542.515 179.208 542.787 178.024C543.059 176.84 543.195 175.584 543.195 174.256C543.195 172.912 543.059 171.656 542.787 170.488C542.515 169.304 542.067 168.184 541.443 167.128C540.819 166.056 539.979 165.04 538.923 164.08L540.027 162.976C541.723 164.432 543.003 166.112 543.867 168.016C544.731 169.92 545.163 172 545.163 174.256C545.163 176.512 544.731 178.592 543.867 180.496C543.003 182.384 541.723 184.064 540.027 185.536Z" fill="white"/>
</g>
<defs>
<filter id="filter0_f_1402_3571" x="-374.645" y="-675.248" width="1931.03" height="1533.22" filterUnits="userSpaceOnUse" color-interpolation-filters="sRGB">
<feFlood flood-opacity="0" result="BackgroundImageFix"/>
<feBlend mode="normal" in="SourceGraphic" in2="BackgroundImageFix" result="shape"/>
<feGaussianBlur stdDeviation="124.537" result="effect1_foregroundBlur_1402_3571"/>
</filter>
<filter id="filter1_f_1402_3571" x="-374.647" y="-794.804" width="1931.03" height="1533.22" filterUnits="userSpaceOnUse" color-interpolation-filters="sRGB">
<feFlood flood-opacity="0" result="BackgroundImageFix"/>
<feBlend mode="normal" in="SourceGraphic" in2="BackgroundImageFix" result="shape"/>
<feGaussianBlur stdDeviation="124.537" result="effect1_foregroundBlur_1402_3571"/>
</filter>
<filter id="filter2_f_1402_3571" x="-502.612" y="-679.223" width="1172.33" height="1177.51" filterUnits="userSpaceOnUse" color-interpolation-filters="sRGB">
<feFlood flood-opacity="0" result="BackgroundImageFix"/>
<feBlend mode="normal" in="SourceGraphic" in2="BackgroundImageFix" result="shape"/>
<feGaussianBlur stdDeviation="124.537" result="effect1_foregroundBlur_1402_3571"/>
</filter>
<clipPath id="clip0_1402_3571">
<rect width="1190" height="230" fill="white"/>
</clipPath>
</defs>
</svg>
