<svg width="24" height="24" viewBox="0 0 24 24" fill="none" xmlns="http://www.w3.org/2000/svg">
<path d="M19.302 9.74194C19.302 5.46618 15.8766 2 11.651 2C7.4255 2 4.00008 5.46618 4.00008 9.74194V20.8236C4.00008 21.4733 4.52059 22 5.16279 22H18.1394C18.7815 22 19.302 21.4733 19.302 20.8236V9.74194Z" fill="white"/>
<path fill-rule="evenodd" clip-rule="evenodd" d="M4.90916 21.039V9.7645C4.90916 5.98577 7.92753 2.92251 11.651 2.92251C15.3745 2.92251 18.393 5.98577 18.393 9.7645V21.039C18.393 21.0603 18.376 21.0775 18.3551 21.0775H4.94698C4.92604 21.0775 4.90916 21.0603 4.90916 21.039ZM11.651 2C15.8766 2 19.302 5.47628 19.302 9.7645V21.039C19.302 21.5697 18.8781 22 18.3551 22H4.94698C4.42401 22 4.00008 21.5697 4.00008 21.039V9.7645C4.00008 5.47628 7.4255 2 11.651 2Z" fill="#9E9E9E"/>
</svg>
