<svg version="1.1" xmlns="http://www.w3.org/2000/svg" viewBox="0 0 904.3202581667567 805.41928314913" width="904.3202581667567" height="805.41928314913">
  <!-- svg-source:excalidraw -->
  
  <defs>
    <style class="style-fonts">
      @font-face {
        font-family: "Virgil";
        src: url("https://excalidraw.com/Virgil.woff2");
      }
      @font-face {
        font-family: "Cascadia";
        src: url("https://excalidraw.com/Cascadia.woff2");
      }
    </style>
    
  </defs>
  <g stroke-linecap="round" transform="translate(151.35740377105822 63.730335902958075) rotate(328.16921578947637 83.84570507287083 134.8131580366965)"><path d="M82.61 0.07 L165.7 135.56 L82.91 270.21 L0.99 133.09" stroke="none" stroke-width="0" fill="#1e1e1e" fill-rule="evenodd"></path><path d="M84 0 C110.39 43.08, 138.25 88.31, 167.69 135 M84 0 C101.62 30.72, 121.74 61.36, 167.69 135 M167.69 135 C145.22 173.34, 121.31 210.32, 84 269.63 M167.69 135 C149.69 163.3, 132.21 192.8, 84 269.63 M84 269.63 C54.15 220.75, 20.97 173.66, 0 135 M84 269.63 C58.2 230.03, 33.63 190.3, 0 135 M0 135 C15.59 107.13, 32.12 82.43, 84 0 M0 135 C30.37 83.32, 62.87 31.49, 84 0" stroke="#6be7c6" stroke-width="2" fill="none"></path></g><g stroke-linecap="round" transform="translate(293.09981659187304 62.29072463781799) rotate(31.411230333330945 83.84570507287083 135.15464580448344)"><path d="M85.74 0.14 L166.74 134.1 L84.2 269.11 L-1.71 137.75" stroke="none" stroke-width="0" fill="#1e1e1e" fill-rule="evenodd"></path><path d="M84 0 C115.07 51.23, 149.86 103.22, 167.69 136 M84 0 C117.13 52.18, 149.52 104.92, 167.69 136 M167.69 136 C144.82 168.7, 125.25 203.93, 84 270.31 M167.69 136 C142.92 176.26, 118.46 216.38, 84 270.31 M84 270.31 C51.18 222.48, 22.17 173.78, 0 136 M84 270.31 C66.73 241.89, 49.31 214.47, 0 136 M0 136 C23.74 95.05, 52.63 52.93, 84 0 M0 136 C19.44 103.51, 37.85 72.02, 84 0" stroke="#6be7c6" stroke-width="2" fill="none"></path></g><g stroke-linecap="round" transform="translate(233.16467944609906 -59.07227746974523) rotate(89.74295612264733 72.26267675182748 141.33422702372792)"><path d="M71.74 1.2 L146.44 140.07 L72.78 282.06 L-0.44 142.07" stroke="none" stroke-width="0" fill="#1e1e1e" fill-rule="evenodd"></path><path d="M73 0 C99.21 52.26, 126.46 106.17, 144.53 142 M73 0 C89.64 30.53, 105.25 59.99, 144.53 142 M144.53 142 C126.24 175.9, 111.33 208.86, 73 282.67 M144.53 142 C124.18 184.83, 100.89 229.85, 73 282.67 M73 282.67 C44.07 229.63, 20.05 180.1, 0 142 M73 282.67 C49.59 235.77, 26.24 190.93, 0 142 M0 142 C17.63 109, 34.2 74.84, 73 0 M0 142 C29.21 84.76, 58.44 29.05, 73 0" stroke="#6be7c6" stroke-width="2" fill="none"></path></g><g transform="translate(258.2453140224487 54.34638861483751) rotate(0 47.989952087402344 25)"><text x="47.989952087402344" y="0" font-family="Virgil, Segoe UI Emoji" font-size="20px" fill="#6be7c6" text-anchor="middle" style="white-space: pre;" direction="ltr" dominant-baseline="text-before-edge">Deposit X</text><text x="47.989952087402344" y="25" font-family="Virgil, Segoe UI Emoji" font-size="20px" fill="#6be7c6" text-anchor="middle" style="white-space: pre;" direction="ltr" dominant-baseline="text-before-edge">ERC4626</text></g><g stroke-linecap="round" transform="translate(443.6376318891387 63.73033590295809) rotate(328.16921578947637 83.84570507287083 134.8131580366965)"><path d="M83.13 1.52 L169.22 133.85 L82.13 268.25 L-0.23 133.62" stroke="none" stroke-width="0" fill="#1e1e1e" fill-rule="evenodd"></path><path d="M84 0 C111.59 40.81, 137.61 83.35, 167.69 135 M84 0 C103.67 30.31, 122.23 61.83, 167.69 135 M167.69 135 C144.6 171.44, 122.8 207.21, 84 269.63 M167.69 135 C144.64 176.22, 119.57 214.75, 84 269.63 M84 269.63 C51.83 219.62, 20.38 172.41, 0 135 M84 269.63 C57.61 225.58, 29.58 179.65, 0 135 M0 135 C18.44 102.47, 37.93 72.42, 84 0 M0 135 C20.87 100.1, 42.52 64.39, 84 0" stroke="#6be7c6" stroke-width="2" fill="none"></path></g><g stroke-linecap="round" transform="translate(585.3800447099536 62.29072463781803) rotate(31.411230333330945 83.84570507287083 135.15464580448344)"><path d="M85.52 -1.15 L165.82 134.62 L83.77 268.93 L0.28 137.17" stroke="none" stroke-width="0" fill="#1e1e1e" fill-rule="evenodd"></path><path d="M84 0 C110.38 39.47, 131.37 77.69, 167.69 136 M84 0 C118.12 53.81, 150.33 105.48, 167.69 136 M167.69 136 C139.95 182.45, 109.4 231.29, 84 270.31 M167.69 136 C136.4 188.64, 103.2 243.45, 84 270.31 M84 270.31 C53.34 223.33, 25.31 173.44, 0 136 M84 270.31 C55.03 224.1, 24.96 178.85, 0 136 M0 136 C32.87 82.62, 64.87 31.68, 84 0 M0 136 C21.65 100.46, 43.73 67.17, 84 0" stroke="#6be7c6" stroke-width="2" fill="none"></path></g><g stroke-linecap="round" transform="translate(525.4449075641796 -59.07227746974523) rotate(89.74295612264733 72.26267675182748 141.33422702372792)"><path d="M71.13 -1.38 L144.3 140.62 L73.28 283.84 L1.43 142.15" stroke="none" stroke-width="0" fill="#1e1e1e" fill-rule="evenodd"></path><path d="M73 0 C91.15 36.05, 112.85 74.91, 144.53 142 M73 0 C95.4 43.11, 118.61 88.68, 144.53 142 M144.53 142 C124.3 184.46, 105.28 226.26, 73 282.67 M144.53 142 C121.56 190.21, 96.85 237.74, 73 282.67 M73 282.67 C56.33 247.22, 38.34 214.97, 0 142 M73 282.67 C46.75 234.52, 23.97 187.46, 0 142 M0 142 C15.52 111.43, 31.56 78.28, 73 0 M0 142 C21.47 103.44, 43.19 62.18, 73 0" stroke="#6be7c6" stroke-width="2" fill="none"></path></g><g transform="translate(551.3455418353534 52.90076639307475) rotate(0 47.169952392578125 25)"><text x="47.169952392578125" y="0" font-family="Virgil, Segoe UI Emoji" font-size="20px" fill="#6be7c6" text-anchor="middle" style="white-space: pre;" direction="ltr" dominant-baseline="text-before-edge">Deposit Y</text><text x="47.169952392578125" y="25" font-family="Virgil, Segoe UI Emoji" font-size="20px" fill="#6be7c6" text-anchor="middle" style="white-space: pre;" direction="ltr" dominant-baseline="text-before-edge">ERC4626</text></g><g stroke-linecap="round" transform="translate(-2.6096021667236755 304.2825144416178) rotate(328.16921578947637 83.84570507287083 134.81315803669648)"><path d="M83.98 -1.38 L167.33 133.87 L82.7 267.73 L-0.34 135.43" stroke="none" stroke-width="0" fill="#1e1e1e" fill-rule="evenodd"></path><path d="M84 0 C99.95 30.66, 121.33 59.94, 167.69 135 M84 0 C114.28 50.65, 147.63 102.51, 167.69 135 M167.69 135 C141.06 181.08, 111.85 222.5, 84 269.63 M167.69 135 C140.65 175.55, 116.06 215.79, 84 269.63 M84 269.63 C56.01 224.99, 28.46 176.83, 0 135 M84 269.63 C58.55 231.58, 34.12 191.05, 0 135 M0 135 C20.63 102.2, 42.16 66.14, 84 0 M0 135 C32.53 82.44, 65.57 30.17, 84 0" stroke="#6be7c6" stroke-width="2" fill="none"></path></g><g stroke-linecap="round" transform="translate(139.13281065409126 302.84290317647776) rotate(31.411230333330945 83.84570507287083 135.15464580448344)"><path d="M83.64 -1.13 L166.39 134.1 L83.66 270.74 L-0.47 135.96" stroke="none" stroke-width="0" fill="#1e1e1e" fill-rule="evenodd"></path><path d="M84 0 C113.07 46.96, 142.6 92.66, 167.69 136 M84 0 C112.11 46.97, 140.74 93.77, 167.69 136 M167.69 136 C137.53 184.41, 106.83 234.31, 84 270.31 M167.69 136 C137.49 181.28, 109.18 227.69, 84 270.31 M84 270.31 C60.03 230.3, 33.62 191.13, 0 136 M84 270.31 C52.25 218.72, 20.3 169, 0 136 M0 136 C32.94 82.2, 65.26 31.67, 84 0 M0 136 C21.52 101.97, 42 68.38, 84 0" stroke="#6be7c6" stroke-width="2" fill="none"></path></g><g stroke-linecap="round" transform="translate(79.19767350831705 181.4799010689145) rotate(89.74295612264733 72.26267675182748 141.33422702372792)"><path d="M71.7 -1.9 L144.19 142.43 L72.53 282.63 L0.86 143.74" stroke="none" stroke-width="0" fill="#1e1e1e" fill-rule="evenodd"></path><path d="M73 0 C100.43 48.25, 124.65 97.36, 144.53 142 M73 0 C91.12 33.91, 108.68 69.08, 144.53 142 M144.53 142 C118.73 190.41, 93.94 240.73, 73 282.67 M144.53 142 C126.27 176.92, 107.41 213.84, 73 282.67 M73 282.67 C44.52 230.07, 18.74 175.2, 0 142 M73 282.67 C47.96 233.83, 24.03 184.94, 0 142 M0 142 C26.99 91.2, 50.45 40.19, 73 0 M0 142 C15.39 110.94, 31.17 80.03, 73 0" stroke="#6be7c6" stroke-width="2" fill="none"></path></g><g transform="translate(100.55276551874692 298.57791854958793) rotate(0 54.3399658203125 25)"><text x="54.3399658203125" y="0" font-family="Virgil, Segoe UI Emoji" font-size="20px" fill="#6be7c6" text-anchor="middle" style="white-space: pre;" direction="ltr" dominant-baseline="text-before-edge">AMM Share</text><text x="54.3399658203125" y="25" font-family="Virgil, Segoe UI Emoji" font-size="20px" fill="#6be7c6" text-anchor="middle" style="white-space: pre;" direction="ltr" dominant-baseline="text-before-edge">ERC20</text></g><g stroke-linecap="round" transform="translate(597.1741356558946 304.2825144416179) rotate(328.16921578947637 83.84570507287083 134.8131580366965)"><path d="M84.83 -1.73 L166.58 135.2 L85 268.36 L-0.64 134.78" stroke="none" stroke-width="0" fill="#1e1e1e" fill-rule="evenodd"></path><path d="M84 0 C109.49 41.78, 134.1 78.42, 167.69 135 M84 0 C112.27 44.33, 140.55 89.34, 167.69 135 M167.69 135 C145.86 171.86, 125.23 207.4, 84 269.63 M167.69 135 C137.89 181.66, 108.36 229.18, 84 269.63 M84 269.63 C58.23 228.07, 31.92 190.69, 0 135 M84 269.63 C66.06 239.27, 46.43 210.87, 0 135 M0 135 C17.29 107.94, 37.29 78.43, 84 0 M0 135 C27.41 92.25, 53.93 48.97, 84 0" stroke="#6be7c6" stroke-width="2" fill="none"></path></g><g stroke-linecap="round" transform="translate(738.9165484767095 302.8429031764778) rotate(31.411230333330945 83.84570507287083 135.1546458044834)"><path d="M82.89 0.2 L168.69 134.73 L83.36 270.09 L1.7 134.22" stroke="none" stroke-width="0" fill="#1e1e1e" fill-rule="evenodd"></path><path d="M84 0 C112.62 44.61, 142.54 94.34, 167.69 136 M84 0 C111.7 45.46, 139.09 91.01, 167.69 136 M167.69 136 C147.62 173.44, 125.13 205.64, 84 270.31 M167.69 136 C147.82 168.87, 128.13 200.25, 84 270.31 M84 270.31 C52.81 222.9, 22.68 175.02, 0 136 M84 270.31 C59.53 232.97, 36.46 196.45, 0 136 M0 136 C22.83 101.78, 43.59 65.8, 84 0 M0 136 C19.02 104.59, 39.11 73.07, 84 0" stroke="#6be7c6" stroke-width="2" fill="none"></path></g><g stroke-linecap="round" transform="translate(678.9814113309358 181.47990106891456) rotate(89.74295612264733 72.26267675182748 141.33422702372792)"><path d="M74 -1.27 L143.88 141.78 L74.7 280.89 L-1.72 140.9" stroke="none" stroke-width="0" fill="#1e1e1e" fill-rule="evenodd"></path><path d="M73 0 C101.86 58.12, 130.32 112.92, 144.53 142 M73 0 C92.43 38.95, 111.94 77.81, 144.53 142 M144.53 142 C119.19 195.49, 89.51 250.91, 73 282.67 M144.53 142 C121.15 188.23, 98.63 233.25, 73 282.67 M73 282.67 C56.81 254.24, 42.33 225.12, 0 142 M73 282.67 C58.07 253.58, 43.72 225.04, 0 142 M0 142 C26.53 88.69, 51.44 37.57, 73 0 M0 142 C20.9 102.83, 39.82 65.12, 73 0" stroke="#6be7c6" stroke-width="2" fill="none"></path></g><g transform="translate(692.5535864259315 287.5931916602731) rotate(0 62.06995391845703 37.5)"><text x="62.06995391845703" y="0" font-family="Virgil, Segoe UI Emoji" font-size="20px" fill="#6be7c6" text-anchor="middle" style="white-space: pre;" direction="ltr" dominant-baseline="text-before-edge">Borrow AMM</text><text x="62.06995391845703" y="25" font-family="Virgil, Segoe UI Emoji" font-size="20px" fill="#6be7c6" text-anchor="middle" style="white-space: pre;" direction="ltr" dominant-baseline="text-before-edge">Share</text><text x="62.06995391845703" y="50" font-family="Virgil, Segoe UI Emoji" font-size="20px" fill="#6be7c6" text-anchor="middle" style="white-space: pre;" direction="ltr" dominant-baseline="text-before-edge">Debt-ERC20</text></g><g stroke-linecap="round" transform="translate(151.35740377105822 546.0675928088615) rotate(328.16921578947637 83.84570507287083 134.81315803669648)"><path d="M85.95 -0.26 L168.2 136.49 L84.65 268.46 L-1.11 133.42" stroke="none" stroke-width="0" fill="#1e1e1e" fill-rule="evenodd"></path><path d="M84 0 C108.02 40.04, 130.55 77.64, 167.69 135 M84 0 C105.12 31.89, 124.02 63.7, 167.69 135 M167.69 135 C136.79 187.66, 103.32 240.1, 84 269.63 M167.69 135 C141.94 177.5, 116.98 218.74, 84 269.63 M84 269.63 C53.26 216.29, 18.31 161.63, 0 135 M84 269.63 C64.97 238.42, 46.22 207.86, 0 135 M0 135 C33.57 81.14, 66.5 27.22, 84 0 M0 135 C31.57 82.91, 63.98 34.13, 84 0" stroke="#6be7c6" stroke-width="2" fill="none"></path></g><g stroke-linecap="round" transform="translate(293.09981659187304 544.6279815437215) rotate(31.411230333330945 83.84570507287083 135.1546458044834)"><path d="M84.51 1.49 L168.35 134.84 L82.89 268.73 L1.68 136.41" stroke="none" stroke-width="0" fill="#1e1e1e" fill-rule="evenodd"></path><path d="M84 0 C113.99 48.02, 143.39 98.81, 167.69 136 M84 0 C102.24 30.93, 123.23 62.73, 167.69 136 M167.69 136 C152.86 165.01, 135.32 192.48, 84 270.31 M167.69 136 C150.88 164, 133.82 191.13, 84 270.31 M84 270.31 C56.29 226.49, 27.56 183.64, 0 136 M84 270.31 C59.14 229.09, 34.5 189.5, 0 136 M0 136 C25.51 94.23, 50.35 54.49, 84 0 M0 136 C33.11 85.71, 65.36 33.03, 84 0" stroke="#6be7c6" stroke-width="2" fill="none"></path></g><g stroke-linecap="round" transform="translate(233.16467944609929 423.2649794361581) rotate(89.74295612264733 72.26267675182748 141.33422702372792)"><path d="M73.65 -1.16 L143.41 140.42 L74.68 283.08 L-1.53 143.51" stroke="none" stroke-width="0" fill="#1e1e1e" fill-rule="evenodd"></path><path d="M73 0 C97.73 54.59, 124.06 105.15, 144.53 142 M73 0 C89.37 33.74, 104.3 68.16, 144.53 142 M144.53 142 C119.77 194.55, 91.88 242.54, 73 282.67 M144.53 142 C118.89 196.19, 90.17 252.67, 73 282.67 M73 282.67 C48.94 238.47, 28.1 195.56, 0 142 M73 282.67 C54.9 247.18, 35.08 210.75, 0 142 M0 142 C19.49 104.49, 38.86 67.21, 73 0 M0 142 C14.96 112.13, 29.25 83.81, 73 0" stroke="#6be7c6" stroke-width="2" fill="none"></path></g><g transform="translate(227.54847708135674 533.0713748216976) rotate(0 74.38993835449219 25.00000000000003)"><text x="74.38993835449219" y="0" font-family="Virgil, Segoe UI Emoji" font-size="20px" fill="#6be7c6" text-anchor="middle" style="white-space: pre;" direction="ltr" dominant-baseline="text-before-edge">Borrow X</text><text x="74.38993835449219" y="25" font-family="Virgil, Segoe UI Emoji" font-size="20px" fill="#6be7c6" text-anchor="middle" style="white-space: pre;" direction="ltr" dominant-baseline="text-before-edge">Debt-ERC4626</text></g><g stroke-linecap="round" transform="translate(443.20423063103954 545.138591245457) rotate(328.16921578947637 83.84570507287083 134.8131580366965)"><path d="M85.29 -1.22 L169.37 136.99 L84.54 268.85 L-1.88 135.87" stroke="none" stroke-width="0" fill="#1e1e1e" fill-rule="evenodd"></path><path d="M84 0 C113.28 45.65, 143.49 89.96, 167.69 135 M84 0 C108.85 36.78, 131.98 75.33, 167.69 135 M167.69 135 C138.38 180, 111.85 223.8, 84 269.63 M167.69 135 C142.52 177.16, 115.1 220.06, 84 269.63 M84 269.63 C67.07 240.78, 50.27 210.25, 0 135 M84 269.63 C52.47 219.17, 20.37 166.83, 0 135 M0 135 C17.64 106.64, 35.47 79.95, 84 0 M0 135 C24.74 98.16, 46.9 59.82, 84 0" stroke="#6be7c6" stroke-width="2" fill="none"></path></g><g stroke-linecap="round" transform="translate(584.9466434518544 543.698979980317) rotate(31.411230333330945 83.84570507287083 135.15464580448344)"><path d="M85.67 1.99 L168.23 135.23 L82.12 271.18 L1.19 135.26" stroke="none" stroke-width="0" fill="#1e1e1e" fill-rule="evenodd"></path><path d="M84 0 C113.21 42.89, 138.41 90.71, 167.69 136 M84 0 C112.96 46.06, 140.45 89.57, 167.69 136 M167.69 136 C134.11 189.13, 102.03 242.62, 84 270.31 M167.69 136 C152.09 162.24, 134.23 188.78, 84 270.31 M84 270.31 C64.49 236.41, 44.34 202.84, 0 136 M84 270.31 C53.59 221.2, 22.66 173.53, 0 136 M0 136 C30.44 89.08, 57.63 40.65, 84 0 M0 136 C15.45 107.82, 34.01 79.17, 84 0" stroke="#6be7c6" stroke-width="2" fill="none"></path></g><g stroke-linecap="round" transform="translate(525.0115063060806 422.3359778727535) rotate(89.74295612264733 72.26267675182748 141.3342270237279)"><path d="M73.54 -0.77 L142.65 142.87 L74.19 281.93 L-1.97 143.71" stroke="none" stroke-width="0" fill="#1e1e1e" fill-rule="evenodd"></path><path d="M73 0 C95.02 44.3, 117.32 85.99, 144.53 142 M73 0 C92.42 35.37, 111.57 72.48, 144.53 142 M144.53 142 C121.77 188.81, 96.36 234.17, 73 282.67 M144.53 142 C124.17 179.54, 104.7 219.34, 73 282.67 M73 282.67 C49.95 234.7, 25.65 189.1, 0 142 M73 282.67 C48.23 235.36, 25.11 188.07, 0 142 M0 142 C18.9 101.47, 37.94 63.48, 73 0 M0 142 C26.39 93.06, 51.39 46.41, 73 0" stroke="#6be7c6" stroke-width="2" fill="none"></path></g><g transform="translate(522.81553227815 537.7756056272398) rotate(0 74.38993835449219 24.99999999999997)"><text x="74.38993835449219" y="0" font-family="Virgil, Segoe UI Emoji" font-size="20px" fill="#6be7c6" text-anchor="middle" style="white-space: pre;" direction="ltr" dominant-baseline="text-before-edge">Borrow Y</text><text x="74.38993835449219" y="25" font-family="Virgil, Segoe UI Emoji" font-size="20px" fill="#6be7c6" text-anchor="middle" style="white-space: pre;" direction="ltr" dominant-baseline="text-before-edge">Debt-ERC4626</text></g><g stroke-linecap="round" transform="translate(360.1401822632354 300.14914159486085) rotate(0 95.67169607057969 98.0059126867364)"><path d="M66.61 5.17 C77.1 0.08, 91.11 -0.27, 103.32 0.52 C115.53 1.3, 129.04 4.1, 139.85 9.9 C150.67 15.69, 160.33 25.75, 168.22 35.3 C176.11 44.85, 183.47 55.48, 187.19 67.19 C190.91 78.89, 191.58 92.87, 190.52 105.51 C189.45 118.16, 186.36 131.84, 180.8 143.04 C175.24 154.23, 166.54 164.7, 157.13 172.67 C147.72 180.63, 135.86 186.83, 124.33 190.84 C112.8 194.84, 99.84 197.66, 87.94 196.69 C76.04 195.73, 63.86 191, 52.93 185.03 C42 179.06, 30.51 170.42, 22.37 160.88 C14.23 151.34, 7.91 139.64, 4.09 127.79 C0.28 115.94, -1.59 102.23, -0.5 89.77 C0.59 77.31, 4.96 64.05, 10.65 53.01 C16.34 41.96, 22.73 31.99, 33.66 23.49 C44.59 14.99, 67.57 5.35, 76.24 2 C84.9 -1.35, 85.51 1.68, 85.65 3.38 M138.75 12.04 C149.88 16.22, 162.38 26.51, 170.18 36.04 C177.98 45.58, 182 57.61, 185.57 69.24 C189.13 80.87, 192.55 93.33, 191.58 105.84 C190.62 118.35, 185.48 133.2, 179.77 144.29 C174.06 155.37, 166.68 164.53, 157.32 172.37 C147.97 180.22, 135.62 187.6, 123.66 191.35 C111.7 195.1, 97.64 196.15, 85.57 194.86 C73.5 193.57, 61.98 189.13, 51.24 183.61 C40.5 178.09, 29.18 171.21, 21.13 161.73 C13.07 152.25, 6.5 138.82, 2.88 126.75 C-0.73 114.67, -2.13 101.49, -0.56 89.29 C1.02 77.09, 6.68 64.83, 12.33 53.57 C17.99 42.31, 24.32 29.95, 33.37 21.73 C42.41 13.52, 54.55 7.8, 66.61 4.27 C78.66 0.75, 93.24 -0.34, 105.68 0.58 C118.13 1.5, 135.75 7.62, 141.28 9.78 C146.81 11.95, 139.83 11.82, 138.87 13.58" stroke="none" stroke-width="0" fill="#1e1e1e"></path><path d="M108.59 1.06 C120.12 1.1, 133.41 6.2, 143.82 12.55 C154.23 18.91, 163.72 28.97, 171.06 39.18 C178.4 49.4, 184.66 61.78, 187.88 73.84 C191.1 85.89, 191.84 99.38, 190.36 111.5 C188.89 123.62, 185.03 135.78, 179.02 146.57 C173.01 157.36, 164.16 168.69, 154.3 176.22 C144.44 183.76, 131.67 188.51, 119.86 191.77 C108.05 195.04, 95.48 197.26, 83.45 195.82 C71.41 194.38, 58.14 189.57, 47.65 183.14 C37.17 176.71, 28.09 167.34, 20.53 157.26 C12.96 147.17, 5.68 134.75, 2.27 122.64 C-1.13 110.53, -1.74 96.86, 0.1 84.6 C1.94 72.33, 7.2 59.8, 13.33 49.03 C19.45 38.27, 27.26 27.61, 36.86 20.01 C46.46 12.41, 57.47 6.36, 70.94 3.44 C84.4 0.51, 108.83 1.86, 117.65 2.47 C126.48 3.09, 124.33 5.69, 123.89 7.13 M71.43 4.61 C82.3 -0.12, 97.18 -2.14, 109.18 -0.56 C121.18 1.01, 133.14 7.47, 143.43 14.06 C153.73 20.64, 163.38 29.28, 170.94 38.92 C178.5 48.57, 185.65 59.71, 188.81 71.93 C191.97 84.14, 191.54 99.5, 189.89 112.22 C188.24 124.95, 185.17 137.66, 178.89 148.3 C172.61 158.94, 162.13 168.63, 152.21 176.09 C142.3 183.55, 131.04 189.89, 119.38 193.07 C107.72 196.25, 94.33 196.95, 82.26 195.18 C70.19 193.41, 57.21 188.59, 46.97 182.45 C36.74 176.3, 28.12 168.29, 20.85 158.31 C13.57 148.33, 6.62 134.77, 3.31 122.56 C0.01 110.34, -0.63 97.27, 1.01 85 C2.65 72.73, 6.95 59.51, 13.16 48.93 C19.37 38.34, 28.43 29.13, 38.26 21.48 C48.09 13.83, 66.43 5.77, 72.13 3.03 C77.82 0.3, 72.12 3.53, 72.43 5.05" stroke="#6be7c6" stroke-width="2" fill="none"></path></g><g transform="translate(396.6518245442211 373.35440882442924) rotate(0 59.00994873046875 25)"><text x="59.00994873046875" y="0" font-family="Virgil, Segoe UI Emoji" font-size="20px" fill="#6be7c6" text-anchor="middle" style="white-space: pre;" direction="ltr" dominant-baseline="text-before-edge">Uniswap V2</text><text x="59.00994873046875" y="25" font-family="Virgil, Segoe UI Emoji" font-size="20px" fill="#6be7c6" text-anchor="middle" style="white-space: pre;" direction="ltr" dominant-baseline="text-before-edge">Lending Pool</text></g><g stroke-linecap="round"><g transform="translate(405.00903131655025 312.4818364143622) rotate(0 -12.28814490572529 -18.540024889440616)"><path d="M0 0 C-5.96 -9.05, -12.26 -19.22, -24.58 -37.08 M0 0 C-8.71 -13.11, -17.4 -26.1, -24.58 -37.08" stroke="#6be7c6" stroke-width="2" fill="none"></path></g></g><mask></mask><g stroke-linecap="round"><g transform="translate(494.221064798027 309.08708963685615) rotate(0 8.545699371334763 -15.829483223635435)"><path d="M0 0 C6.9 -12.4, 13.62 -24.46, 17.09 -31.66 M0 0 C5.22 -9.79, 10.62 -19.53, 17.09 -31.66" stroke="#6be7c6" stroke-width="2" fill="none"></path></g></g><mask></mask><g stroke-linecap="round"><g transform="translate(358.81480604698936 396.2484436460133) rotate(0 -31.90284065535053 -0.45414895865928884)"><path d="M0 0 C-23.6 -0.56, -47.51 -0.51, -63.81 -0.91 M0 0 C-12.9 -0.4, -25.6 -0.41, -63.81 -0.91" stroke="#6be7c6" stroke-width="2" fill="none"></path></g></g><mask></mask><g stroke-linecap="round"><g transform="translate(552.0887651627297 398.01248191865386) rotate(0 29.10349406578206 0.12622505855446775)"><path d="M0 0 C13.3 0.21, 26.89 -0.05, 58.21 0.22 M0 0 C16.55 0.1, 33.18 0.35, 58.21 0.22" stroke="#6be7c6" stroke-width="2" fill="none"></path></g></g><mask></mask><g stroke-linecap="round"><g transform="translate(372.4381177393582 525.3878027882942) rotate(0 16.384208041831187 -21.38854684395949)"><path d="M0 0 C8.67 -10.69, 16.84 -22.12, 32.77 -42.78 M0 0 C7.52 -9.84, 14.79 -19.42, 32.77 -42.78" stroke="#6be7c6" stroke-width="2" fill="none"></path></g></g><mask></mask><g stroke-linecap="round"><g transform="translate(540.8019874679636 518.5383331892149) rotate(0 -17.260627037605786 -17.344981241417656)"><path d="M0 0 C-9.58 -9.75, -19.51 -19.36, -34.52 -34.69 M0 0 C-13.2 -13.27, -25.97 -26.43, -34.52 -34.69" stroke="#6be7c6" stroke-width="2" fill="none"></path></g></g><mask></mask></svg>