<svg width="138" height="80" viewBox="0 0 138 80" fill="none" xmlns="http://www.w3.org/2000/svg">
<g clip-path="url(#clip0_3087_69839)">
<mask id="mask0_3087_69839" style="mask-type:luminance" maskUnits="userSpaceOnUse" x="0" y="26" width="138" height="29">
<path d="M138 26H0V55H138V26Z" fill="white"/>
</mask>
<g mask="url(#mask0_3087_69839)">
<path d="M35.0645 38.058C35.0645 32.9275 38.0641 30.582 42.0045 30.582C44.5322 30.582 46.6211 31.6532 47.7994 33.6993C48.9777 31.6532 51.0335 30.582 53.5942 30.582C57.5347 30.582 60.5342 32.9275 60.5342 38.058V47.58H56.8945V38.058C56.8945 35.1741 55.3796 33.9382 53.2576 33.9382C51.1356 33.9382 49.651 35.2455 49.651 38.058V47.58H46.014V38.058C46.014 35.2428 44.4301 33.9382 42.3412 33.9382C40.2523 33.9382 38.7042 35.1769 38.7042 38.058V47.58H35.0645V38.058Z" fill="white"/>
<path d="M63.1611 39.4591C63.1611 34.1941 66.8671 30.5742 72.1542 30.5742C77.3778 30.5742 81.0147 34.0952 81.0147 39.4261V47.5831H77.6786V44.1638C76.6355 46.7125 74.2762 48.0088 71.514 48.0088C67.3306 48.0198 63.1611 45.0372 63.1611 39.4591ZM77.3778 39.2915C77.3778 36.1743 75.2889 33.9277 72.121 33.9277C68.9532 33.9277 66.8312 36.1743 66.8312 39.2915C66.8312 42.4088 68.9559 44.6774 72.121 44.6774C75.2861 44.6774 77.3778 42.4198 77.3778 39.3025V39.2915Z" fill="white"/>
<path d="M83.6416 39.2994C83.6416 34.2706 87.3475 30.582 92.6015 30.582C97.0829 30.582 100.386 33.2626 101.228 37.1187H97.5547C96.7793 35.1961 94.994 33.9355 92.6015 33.9355C89.4364 33.9355 87.3144 36.1821 87.3144 39.2994C87.3144 42.4166 89.4364 44.6742 92.6015 44.6742C94.994 44.6742 96.7793 43.3999 97.5547 41.4883H101.228C100.4 45.3334 97.0884 48.0277 92.6015 48.0277C87.3475 48.0167 83.6416 44.3282 83.6416 39.2994Z" fill="white"/>
<path d="M103.855 37.8904C103.855 32.9605 106.785 30.582 111.098 30.582C115.411 30.582 118.306 32.9605 118.306 37.9591V38.0827H114.702V37.8904C114.702 35.0396 113.253 33.9355 111.098 33.9355C108.943 33.9355 107.492 35.0341 107.492 37.8904V47.58H103.855V37.8904Z" fill="white"/>
<path d="M138 38.129C138 39.6395 137.939 41.1309 137.374 42.5535C136.206 45.5005 134.002 47.2225 130.916 47.8268C129.468 48.0881 127.99 48.1528 126.523 48.019C125.277 47.93 124.053 47.6435 122.898 47.1703C122.308 46.9559 121.781 46.6009 121.362 46.1364C120.943 45.6719 120.645 45.1122 120.494 44.5063C120.284 43.6468 120.146 42.7712 120.083 41.8889C120.011 41.01 120.03 40.1201 120.044 39.2358C120.066 37.5577 120.676 35.1161 121.794 33.9296C122.808 32.5715 124.261 31.6018 125.908 31.1831C127.255 30.8541 128.631 30.6564 130.017 30.5926C131.146 30.5388 132.276 30.5571 133.403 30.6475C135.61 30.8343 136.957 31.9521 137.52 34.0724C137.605 34.3554 137.666 34.6447 137.705 34.9375C137.905 35.9895 138.004 37.0582 138 38.129ZM134.239 39.4582C134.239 36.4042 132.487 34.358 129.664 33.9845C128.654 33.8311 127.622 33.9788 126.696 34.4089C125.771 34.8391 124.995 35.5324 124.465 36.4014C123.89 37.4002 123.637 38.5506 123.739 39.6972C123.888 41.6884 124.733 43.2676 126.609 44.1245C128.485 44.9814 130.4 44.8853 132.128 43.6878C133.651 42.6359 134.195 41.0759 134.239 39.4582Z" fill="white"/>
<path d="M0 48.2135C0 44.2998 2.88362 41.4297 6.97312 41.4297C11.0626 41.4297 13.949 44.2998 13.949 48.2135C13.949 52.1272 11.0654 55 6.97312 55C2.88086 55 0 52.1272 0 48.2135Z" fill="white"/>
<path d="M14.2717 26C7.01433 26 1.89554 31.092 1.89554 38.0378C1.89315 39.0397 2.0061 40.0386 2.23219 41.015C3.66749 40.1729 5.30696 39.7379 6.97293 39.7571C12.0006 39.7571 15.6459 43.3028 15.6459 48.2135C15.6465 48.8218 15.5882 49.4289 15.472 50.0261C22.0754 49.4961 26.645 44.5936 26.645 38.0378C26.645 31.092 21.5235 26 14.2717 26Z" fill="white"/>
</g>
</g>
<defs>
<clipPath id="clip0_3087_69839">
<rect width="138" height="29" fill="white" transform="translate(0 26)"/>
</clipPath>
</defs>
</svg>
