<svg width="134" height="80" viewBox="0 0 134 80" fill="none" xmlns="http://www.w3.org/2000/svg">
<g clip-path="url(#clip0_3087_69871)">
<mask id="mask0_3087_69871" style="mask-type:luminance" maskUnits="userSpaceOnUse" x="0" y="30" width="134" height="20">
<path d="M133.2 30H0V49.8559H133.2V30Z" fill="white"/>
</mask>
<g mask="url(#mask0_3087_69871)">
<path d="M31.3034 30.043C28.7425 30.043 26.3309 31.1025 24.5119 33.028C22.7027 34.9416 21.707 37.4757 21.707 40.1615V49.8549H24.3918V40.1615C24.3918 38.2 25.1182 36.3523 26.4355 34.9576C27.7449 33.5728 29.4728 32.8105 31.3034 32.8105C33.1339 32.8105 34.8618 33.5728 36.1713 34.9576C37.4904 36.3523 38.2149 38.2 38.2149 40.1615V49.8549H40.8997V40.1615C40.8997 37.4757 39.904 34.9416 38.0948 33.028C36.2759 31.1025 33.8642 30.043 31.3034 30.043Z" fill="white"/>
<path d="M31.3033 39.7578C30.5634 39.7578 29.9609 40.3783 29.9609 41.1406V49.8523H32.6457V41.1406C32.6457 40.3783 32.0433 39.7578 31.3033 39.7578Z" fill="white"/>
<path d="M2.89788 32.9752C1.02859 34.8489 0 37.3331 0 39.971C0 42.6089 1.02859 45.0931 2.89788 46.9668C4.75555 48.8304 7.21565 49.856 9.82297 49.856H19.1714V47.0905H9.82297C7.91882 47.0905 6.12507 46.3422 4.77105 44.9854C3.42671 43.6365 2.68674 41.8566 2.68674 39.971C2.68674 38.0854 3.42671 36.3055 4.77105 34.9566C6.12507 33.5978 7.92075 32.8515 9.82297 32.8515H19.1694V30.0859H9.82297C7.21565 30.0859 4.75555 31.1116 2.89788 32.9752Z" fill="white"/>
<path d="M130.396 33.028C128.577 31.1045 126.165 30.043 123.604 30.043C121.043 30.043 118.632 31.1025 116.813 33.028C115.003 34.9416 114.008 37.4757 114.008 40.1615V49.855H116.693V40.1615C116.693 38.2 117.419 36.3523 118.736 34.9576C120.046 33.5728 121.774 32.8105 123.604 32.8105C125.435 32.8105 127.163 33.5728 128.472 34.9576C129.791 36.3523 130.516 38.2 130.516 40.1615V49.855H133.2V40.1615C133.2 37.4757 132.205 34.9416 130.396 33.028Z" fill="white"/>
<path d="M123.604 39.7578C122.864 39.7578 122.262 40.3783 122.262 41.1406V49.8543H124.947V41.1406C124.947 40.3783 124.344 39.7578 123.604 39.7578Z" fill="white"/>
<path d="M65.207 32.8085H73.5326V49.8549H76.2174V32.8085H84.483V30.043H65.207V32.8085Z" fill="white"/>
<path d="M59.9843 45.1089L45.3186 30H43.459V49.8559H46.1419V34.749L60.8076 49.8559H62.6517V30H59.9843V45.1089Z" fill="white"/>
<path d="M108.793 45.1089L94.1272 30H92.2676V49.8559H94.9524V34.749L109.616 49.8559H111.462V30H108.793V45.1089Z" fill="white"/>
<path d="M89.716 30H87.0273V49.8559H89.716V30Z" fill="white"/>
</g>
</g>
<defs>
<clipPath id="clip0_3087_69871">
<rect width="134" height="20" fill="white" transform="translate(0 30)"/>
</clipPath>
</defs>
</svg>
