<svg width="245" height="80" viewBox="0 0 245 80" fill="none" xmlns="http://www.w3.org/2000/svg">
<g clip-path="url(#clip0_3087_69819)">
<path d="M34.6792 47.6492C33.3555 46.8837 32.3347 45.7992 31.633 44.3957C30.9313 42.9922 30.5645 41.3814 30.5645 39.5473C30.5645 37.6973 30.9313 36.0706 31.649 34.6671C32.3666 33.2636 33.3874 32.1951 34.7111 31.4296C36.0348 30.664 37.5818 30.2812 39.3521 30.2812C40.7396 30.2812 41.9677 30.5524 43.0681 31.0787C44.1686 31.605 45.0617 32.3546 45.7475 33.3274C46.4333 34.3003 46.8639 35.4486 47.0234 36.7404L43.4987 36.9318C43.2435 35.7356 42.7332 34.8106 41.9677 34.1568C41.2021 33.5029 40.2612 33.1679 39.1288 33.1679C38.0922 33.1679 37.1991 33.4391 36.4495 33.9813C35.6999 34.5236 35.1257 35.2731 34.727 36.2301C34.3283 37.187 34.1369 38.3034 34.1369 39.5473C34.1369 40.7913 34.3283 41.8918 34.727 42.8647C35.1257 43.8216 35.6999 44.5711 36.4495 45.1134C37.1991 45.6397 38.0922 45.9108 39.1288 45.9108C40.2612 45.9108 41.2021 45.5919 41.9517 44.938C42.7013 44.2841 43.2116 43.3591 43.4668 42.147L46.9915 42.3224C46.816 43.6461 46.3854 44.7944 45.6996 45.7673C45.0138 46.7401 44.1207 47.5057 43.0203 48.016C41.9198 48.5423 40.6918 48.7975 39.3202 48.7975C37.5659 48.7975 36.0029 48.4147 34.6792 47.6492Z" fill="white"/>
<path d="M49.4004 30.4062H52.8931V37.918H60.6441V30.4062H64.1528V48.6513H60.6441V40.9163H52.8931V48.6513H49.4004V30.4062Z" fill="white"/>
<path d="M78.9056 44.3449H70.9951L69.5917 48.651H65.9395L72.6219 30.4219H77.4703L84.1367 48.651H80.3569L78.9056 44.3449ZM71.9361 41.5539H77.9806L75.1418 33.1172H74.7431L71.9361 41.5539Z" fill="white"/>
<path d="M92.1417 33.4043V45.6527H95.4271V48.6351H85.3477V45.6527H88.6331V33.4043H85.3477V30.4219H95.4271V33.4043H92.1417Z" fill="white"/>
<path d="M98.0898 30.4219H102.125L110.769 43.372H111.152V30.4219H114.613V48.651H110.562L101.902 35.6849H101.535V48.651H98.0898V30.4219Z" fill="white"/>
<path d="M120.658 48.0645C119.557 47.5701 118.696 46.8844 118.074 45.9912C117.452 45.0981 117.133 44.0615 117.117 42.8813L120.546 42.7856C120.61 43.8063 120.993 44.6037 121.694 45.1619C122.396 45.7361 123.337 46.0231 124.501 46.0231C125.57 46.0231 126.431 45.7999 127.053 45.3692C127.675 44.9386 127.994 44.3166 127.994 43.5352C127.994 42.9291 127.787 42.4347 127.388 42.0838C126.989 41.717 126.479 41.4459 125.857 41.2705C125.235 41.095 124.358 40.8877 123.241 40.6804C121.886 40.4092 120.801 40.0903 119.988 39.7234C119.174 39.3566 118.568 38.8622 118.138 38.2243C117.723 37.5863 117.516 36.757 117.516 35.7203C117.516 34.6199 117.819 33.663 118.425 32.8337C119.031 32.0043 119.844 31.3664 120.881 30.9198C121.918 30.4733 123.066 30.25 124.326 30.25C125.634 30.25 126.798 30.4733 127.819 30.9358C128.839 31.3983 129.653 32.0362 130.243 32.8656C130.833 33.6949 131.136 34.6677 131.184 35.7682L127.771 35.9596C127.691 35.0346 127.34 34.3169 126.734 33.8065C126.128 33.2962 125.331 33.041 124.342 33.041C123.337 33.041 122.54 33.2483 121.965 33.663C121.375 34.0776 121.088 34.6677 121.088 35.4333C121.088 36.0234 121.264 36.4859 121.615 36.8367C121.965 37.1717 122.428 37.4268 122.986 37.5863C123.544 37.7458 124.326 37.9372 125.347 38.1286L125.666 38.1924C127.005 38.4475 128.106 38.7665 128.935 39.1333C129.764 39.5002 130.418 39.9946 130.865 40.6166C131.311 41.2386 131.535 42.0679 131.535 43.0727C131.535 44.2209 131.232 45.2257 130.61 46.0869C129.988 46.9481 129.142 47.618 128.074 48.0805C127.005 48.543 125.793 48.7822 124.453 48.7822C123.018 48.7982 121.758 48.559 120.658 48.0645Z" fill="white"/>
<path d="M133.959 30.4219H145.984V33.4043H137.452V38.0453H144.421V40.8362H137.452V45.6527H146.287V48.6351H133.959V30.4219Z" fill="white"/>
<path d="M151.806 47.6492C150.482 46.8837 149.462 45.7992 148.76 44.3957C148.058 42.9922 147.691 41.3814 147.691 39.5473C147.691 37.6973 148.058 36.0706 148.776 34.6671C149.494 33.2636 150.514 32.1951 151.838 31.4296C153.162 30.664 154.709 30.2812 156.479 30.2812C157.867 30.2812 159.095 30.5524 160.195 31.0787C161.296 31.605 162.189 32.3546 162.874 33.3274C163.56 34.3003 163.991 35.4486 164.15 36.7404L160.626 36.9318C160.37 35.7356 159.86 34.8106 159.095 34.1568C158.329 33.5029 157.388 33.1679 156.256 33.1679C155.219 33.1679 154.326 33.4391 153.576 33.9813C152.827 34.5236 152.253 35.2731 151.854 36.2301C151.455 37.187 151.264 38.3034 151.264 39.5473C151.264 40.7913 151.455 41.8918 151.854 42.8647C152.253 43.8216 152.827 44.5711 153.576 45.1134C154.326 45.6397 155.219 45.9108 156.256 45.9108C157.388 45.9108 158.329 45.5919 159.079 44.938C159.828 44.2841 160.339 43.3591 160.594 42.147L164.118 42.3224C163.943 43.6461 163.512 44.7944 162.827 45.7673C162.141 46.7401 161.248 47.5057 160.147 48.016C159.047 48.5423 157.819 48.7975 156.447 48.7975C154.693 48.7975 153.13 48.4147 151.806 47.6492Z" fill="white"/>
<path d="M168.249 46.801C167.005 45.4613 166.383 43.5156 166.383 40.9319V30.4219H169.907V41.1233C169.907 42.7182 170.21 43.8983 170.832 44.6639C171.439 45.4294 172.411 45.8281 173.751 45.8281C175.091 45.8281 176.064 45.4454 176.686 44.6639C177.308 43.8983 177.611 42.7182 177.611 41.1233V30.4219H181.135V40.9319C181.135 43.5156 180.513 45.4613 179.269 46.801C178.025 48.1407 176.191 48.8105 173.767 48.8105C171.327 48.7946 169.493 48.1407 168.249 46.801Z" fill="white"/>
<path d="M192.314 42.2397H187.721V48.651H184.229V30.4219H191.932C193.224 30.4219 194.356 30.6611 195.345 31.1555C196.333 31.6499 197.099 32.3357 197.641 33.2129C198.183 34.106 198.455 35.1426 198.455 36.3228C198.455 37.1841 198.263 37.9655 197.896 38.6673C197.53 39.369 196.971 39.9432 196.254 40.3897C195.536 40.8362 194.675 41.1233 193.654 41.2509V41.6496H195.855L199.443 48.6351H195.584L192.314 42.2397ZM191.629 39.3531C192.617 39.3531 193.415 39.0819 193.989 38.5397C194.579 37.9974 194.866 37.2638 194.866 36.3228C194.866 35.7008 194.739 35.1586 194.467 34.712C194.196 34.2655 193.83 33.8987 193.335 33.6594C192.841 33.4202 192.283 33.2926 191.629 33.2926H187.705V39.3531H191.629Z" fill="white"/>
<path d="M207.497 33.4043V45.6527H210.783V48.6351H200.703V45.6527H203.989V33.4043H200.703V30.4219H210.783V33.4043H207.497Z" fill="white"/>
<path d="M217.768 33.4043H212.346V30.4219H226.715V33.4043H221.309V48.6351H217.784V33.4043H217.768Z" fill="white"/>
<path d="M237.769 42.6866V48.6513H234.261V42.7344L227.578 30.4062H231.693L235.792 38.9228H236.174L240.544 30.4062H244.452L237.769 42.6866Z" fill="white"/>
</g>
<path d="M18.4938 37.4538L18.5737 37.4994L18.642 37.4538L20.3858 36.4394L20.6024 36.3141L20.3858 36.1773L15.3823 33.0658L15.3481 33.043H15.3025H14.2882H14.2426L14.2198 33.0658L9.4898 35.7897L9.41002 35.8353V35.9265V37.6931V37.7843L9.4898 37.8299L17.1945 42.2636L14.8239 43.6427L11.0968 41.3973L11.0171 41.3517L10.9373 41.3973L9.12508 42.5599L8.91992 42.6853L9.12508 42.8106L14.2198 45.9678L14.254 45.9906H14.2995H15.3253H15.3709L15.4051 45.9678L20.1123 43.2438L20.192 43.1982V43.107V41.3517V41.2606L20.1123 41.215L12.4076 36.7927L14.8011 35.4136L18.4938 37.4538Z" fill="white"/>
<path d="M18.6415 46.9128L18.5617 46.8672L18.482 46.9128L14.7891 49.0556L6.51455 44.2914V34.7517L14.7891 29.9762L18.5048 31.9935L18.5731 32.0277L18.6415 31.9935L20.7956 30.8424L21.0464 30.717L20.7956 30.5802L15.359 27.6169L15.3362 27.6055H15.302H14.2876H14.2421L14.2193 27.6283L4.77073 33.0763L4.73653 33.0991L4.71374 33.1333L4.20085 34.0109L4.18945 34.0451V34.0907V44.9753V45.0209L4.21225 45.055L4.72514 45.9327L4.74793 45.9669L4.78213 45.9897L14.2193 51.4149L14.2535 51.4377H14.2991H15.3134H15.359L15.3932 51.4149L20.6816 48.3375L20.9096 48.2122L20.6816 48.0868L18.6415 46.9128Z" fill="white"/>
<defs>
<clipPath id="clip0_3087_69819">
<rect width="215" height="19" fill="white" transform="translate(30 30)"/>
</clipPath>
</defs>
</svg>
