<svg width="130" height="80" viewBox="0 0 130 80" fill="none" xmlns="http://www.w3.org/2000/svg">
<g clip-path="url(#clip0_3088_70079)">
<mask id="mask0_3088_70079" style="mask-type:luminance" maskUnits="userSpaceOnUse" x="0" y="21" width="130" height="35">
<path d="M0 21.4258H129.535V56.0002H0V21.4258Z" fill="white"/>
</mask>
<g mask="url(#mask0_3088_70079)">
<path fill-rule="evenodd" clip-rule="evenodd" d="M9.96298 24.9362L22.1927 31.9963C22.4582 32.1484 22.7956 31.9548 22.7956 31.6506V26.2473C22.7956 25.9568 22.6435 25.6913 22.3946 25.5475L15.4465 21.5341C15.3245 21.4631 15.1859 21.4258 15.0447 21.4258C14.9036 21.4258 14.765 21.4631 14.643 21.5341L9.96298 24.2364C9.90221 24.2724 9.85185 24.3236 9.81687 24.3849C9.78189 24.4463 9.7635 24.5157 9.7635 24.5863C9.7635 24.6569 9.78189 24.7263 9.81687 24.7877C9.85185 24.849 9.90221 24.9002 9.96298 24.9362ZM25.007 27.0591L29.687 29.76V29.7448C29.936 29.8887 30.0881 30.1542 30.0881 30.4446V38.4686C30.0881 38.7591 29.936 39.0246 29.687 39.1684L25.007 41.8708C24.7415 42.0312 24.404 41.8293 24.404 41.525V27.4048C24.404 27.0992 24.7415 26.9069 25.007 27.0591ZM5.68543 35.823V49.9598C5.68543 50.2641 5.3466 50.4577 5.08245 50.3056L0.401068 47.6032C0.27866 47.5321 0.177148 47.4299 0.106743 47.3071C0.0363391 47.1842 -0.000474845 47.045 4.62427e-06 46.9034V38.8794C4.62427e-06 38.589 0.152132 38.3248 0.401068 38.1796L5.08245 35.4773C5.3466 35.3168 5.68543 35.5188 5.68543 35.823ZM19.1861 47.0971L24.4137 44.0822H24.404L29.4865 41.1461C29.752 40.9857 30.0895 41.1876 30.0895 41.4918V46.8965C30.0895 47.1856 29.9373 47.4497 29.6884 47.5949L22.7403 51.6083C22.6181 51.6795 22.4793 51.717 22.3379 51.717C22.1965 51.717 22.0576 51.6795 21.9354 51.6083L17.2554 48.906C17.1947 48.87 17.1443 48.8188 17.1093 48.7575C17.0743 48.6961 17.0559 48.6267 17.0559 48.5561C17.0559 48.4855 17.0743 48.4161 17.1093 48.3547C17.1443 48.2934 17.1947 48.2422 17.2554 48.2062L19.1861 47.0971ZM12.834 28.4504L8.15405 25.748C8.03187 25.6768 7.893 25.6393 7.7516 25.6393C7.6102 25.6393 7.47133 25.6768 7.34915 25.748L0.402451 29.7614C0.280083 29.8324 0.178502 29.9343 0.107874 30.0568C0.0372455 30.1794 4.82693e-05 30.3184 4.62427e-06 30.4598V35.8645C4.62427e-06 36.1688 0.337451 36.3707 0.602983 36.2102L12.834 29.1501C12.8948 29.1142 12.9452 29.063 12.9802 29.0016C13.0151 28.9403 13.0335 28.8709 13.0335 28.8002C13.0335 28.7296 13.0151 28.6602 12.9802 28.5989C12.9452 28.5375 12.8948 28.4863 12.834 28.4504ZM7.29245 51.1174V45.7141C7.29245 45.4084 7.63128 45.2162 7.89681 45.3683L20.1265 52.4284C20.187 52.4645 20.237 52.5156 20.2718 52.5768C20.3065 52.6381 20.3248 52.7072 20.3248 52.7776C20.3248 52.848 20.3065 52.9172 20.2718 52.9784C20.237 53.0396 20.187 53.0908 20.1265 53.1268L15.4465 55.8292C15.3245 55.9002 15.1859 55.9377 15.0447 55.9377C14.9036 55.9377 14.7649 55.9002 14.643 55.8292L7.6949 51.8172C7.57258 51.7459 7.47115 51.6437 7.40076 51.5209C7.33037 51.3981 7.29349 51.2589 7.29383 51.1174H7.29245ZM35.9464 38.7549C35.9464 34.2672 38.7995 31.4044 43.131 31.4044C47.4832 31.4044 50.3985 34.1206 50.3985 38.6097C50.3985 43.0975 47.5454 45.9602 43.1932 45.9602C38.841 45.9602 35.9464 43.2441 35.9464 38.7549ZM39.0304 38.4728C39.0304 41.3148 40.5821 43.15 43.1724 43.15C45.6991 43.15 47.3145 41.5762 47.3145 38.9015C47.3145 36.0609 45.6577 34.2243 43.131 34.2243C40.6029 34.2243 39.0304 35.7981 39.0304 38.4728ZM59.7212 43.15C57.1308 43.15 55.5791 41.3148 55.5791 38.4728C55.5791 35.7981 57.1516 34.2243 59.6797 34.2243C61.5882 34.2243 62.9518 35.22 63.5382 36.8782H66.7688C66.087 33.5439 63.4123 31.4044 59.6797 31.4044C55.3482 31.4044 52.4965 34.2672 52.4965 38.7549C52.4965 43.2441 55.3897 45.9602 59.7433 45.9602C63.57 45.9602 66.2654 43.7267 66.8324 40.0978H63.7373C63.3183 42.0271 61.8399 43.139 59.7212 43.139V43.15ZM67.9333 31.9175H82.3107V34.8134H76.5949V45.49H73.6588V34.8134H67.9333V31.9175ZM87.638 31.9175L81.0204 45.4983H84.3672C84.8872 44.4279 85.363 43.3948 85.8083 42.4226L85.8982 42.2262H93.0067L94.5598 45.4983H97.9066L91.2877 31.9175H87.638ZM87.2715 39.3745C87.4181 39.0702 87.555 38.7771 87.6808 38.4935C87.7541 38.3359 87.8274 38.1782 87.9007 38.0316L87.9215 37.9901L88.5424 36.6735L88.5438 36.6708L88.5494 36.6597V36.6583C88.9186 35.8756 89.1482 35.386 89.2118 35.274H89.7249L91.6652 39.3745H87.2715ZM102.446 31.9175L110.081 40.9995V31.9175H113.017V45.49H110.081L102.425 36.4702V45.49H99.479V31.9175H102.446ZM119.529 39.983V42.6148H129.494V45.4887H116.595V31.9175H129.126V34.8134H119.531V36.9958H127.418V39.983H119.529Z" fill="white"/>
</g>
</g>
<defs>
<clipPath id="clip0_3088_70079">
<rect width="130" height="34.5745" fill="white" transform="translate(0 21.4258)"/>
</clipPath>
</defs>
</svg>
