<svg width="162" height="80" viewBox="0 0 162 80" fill="none" xmlns="http://www.w3.org/2000/svg">
<g clip-path="url(#clip0_3088_69969)">
<mask id="mask0_3088_69969" style="mask-type:luminance" maskUnits="userSpaceOnUse" x="0" y="25" width="48" height="31">
<path d="M47.5111 25H0V55.1657H47.5111V25Z" fill="white"/>
</mask>
<g mask="url(#mask0_3088_69969)">
<path d="M0.69535 26.065C0.697113 26.2735 0.761476 26.4769 0.880328 26.6494C0.999178 26.822 1.1672 26.956 1.36321 27.0345C1.55923 27.1131 1.77448 27.1328 1.98182 27.0911C2.18915 27.0493 2.37931 26.948 2.52833 26.8C2.67735 26.6519 2.77856 26.4637 2.81919 26.2591C2.85984 26.0544 2.83809 25.8425 2.7567 25.65C2.67532 25.4575 2.53794 25.2931 2.36186 25.1774C2.18579 25.0617 1.97889 25 1.76727 25C1.62574 25 1.48563 25.0276 1.35499 25.0812C1.22435 25.1349 1.10578 25.2135 1.00613 25.3125C0.906477 25.4115 0.827706 25.529 0.774366 25.6581C0.721025 25.7873 0.69417 25.9256 0.69535 26.065Z" fill="#F0F0F5"/>
<path d="M32.8189 41.436L37.6605 32.2539H41.1263L32.8171 48.6254L24.5098 32.2539H28.0542L32.8189 41.436Z" fill="#F0F0F5"/>
<path d="M11.9163 45.3616V48.2152H8.31641V41.8902H17.0703C17.912 41.8832 18.7278 41.6043 19.393 41.0962C20.0501 40.6374 20.5231 39.9658 20.7293 39.1986C20.7954 38.9771 20.8219 38.746 20.8079 38.5155C20.8079 37.6829 20.4148 37.1372 19.8288 36.5651C19.5323 36.2766 19.1798 36.0501 18.7925 35.8988C18.405 35.7476 17.9907 35.6748 17.5743 35.6849H8.33962V32.2539H17.2044C20.3362 32.2539 22.6801 33.5636 23.9343 36.433C24.2582 37.1527 24.4157 37.9344 24.3952 38.7215C24.3952 40.6579 23.6216 42.2846 22.1889 43.5995C21.2522 44.4312 20.0981 44.988 18.8569 45.2067C18.3518 45.284 17.8405 45.3164 17.3295 45.3036L11.9163 45.3616Z" fill="#F0F0F5"/>
<path d="M3.17022 53.2384C3.71145 53.772 4.44451 54.0739 5.21015 54.0779H43.9332V55.1677H5.19586C4.13676 55.1634 3.12224 54.747 2.37333 54.0091C1.62444 53.2711 1.20183 52.2714 1.1976 51.2279V31.0487H-0.0136719L0.870662 29.5313L1.76392 28.0156L3.55046 31.0435H2.31955V51.2279C2.32329 51.9823 2.62899 52.7048 3.17022 53.2384Z" fill="#F0F0F5"/>
<path d="M46.815 54.1002C46.815 53.8895 46.7515 53.6837 46.6328 53.5085C46.5141 53.3333 46.3452 53.1968 46.1478 53.1162C45.9503 53.0355 45.733 53.0146 45.5234 53.0556C45.3135 53.0968 45.1211 53.1981 44.9698 53.3472C44.8187 53.496 44.7158 53.6858 44.674 53.8924C44.6324 54.099 44.6538 54.3131 44.7356 54.5078C44.8173 54.7024 44.9559 54.8687 45.1336 54.9858C45.3114 55.1028 45.5203 55.1652 45.7342 55.1652C46.0208 55.1652 46.2957 55.053 46.4985 54.8533C46.7012 54.6535 46.815 54.3826 46.815 54.1002Z" fill="#F0F0F5"/>
<path d="M46.2975 28.9397V49.1242L47.516 49.1207L45.7454 52.152L43.959 49.1242H45.1917V28.9397C45.1875 28.1853 44.8813 27.463 44.3397 26.9297C43.7982 26.3963 43.0649 26.0951 42.2993 26.0914H3.57617V25H42.2993C43.3583 25.0046 44.3724 25.4212 45.1213 26.159C45.87 26.8969 46.2928 27.8963 46.2975 28.9397Z" fill="#F0F0F5"/>
</g>
</g>
<path d="M59.8096 47.9235V30.375H66.4291C67.5943 30.375 68.4841 30.4309 69.0985 30.5426C69.9604 30.6862 70.6826 30.9615 71.2652 31.3685C71.8477 31.7675 72.3146 32.3302 72.6657 33.0563C73.0248 33.7825 73.2043 34.5806 73.2043 35.4504C73.2043 36.9427 72.7295 38.2076 71.7799 39.245C70.8302 40.2744 69.1145 40.7892 66.6326 40.7892H62.1318V47.9235H59.8096ZM62.1318 38.7183H66.6686C68.1688 38.7183 69.2342 38.439 69.8646 37.8804C70.4951 37.3218 70.8103 36.5357 70.8103 35.5222C70.8103 34.7881 70.6227 34.1616 70.2477 33.6429C69.8806 33.1162 69.3938 32.7691 68.7873 32.6015C68.3963 32.4977 67.6741 32.4459 66.6207 32.4459H62.1318V38.7183Z" fill="white"/>
<path d="M75.8618 47.9235V35.211H77.8009V37.1382C78.2957 36.2365 78.7506 35.6419 79.1656 35.3546C79.5885 35.0674 80.0514 34.9237 80.5541 34.9237C81.2803 34.9237 82.0185 35.1551 82.7686 35.618L82.0265 37.617C81.4998 37.3058 80.9731 37.1502 80.4464 37.1502C79.9755 37.1502 79.5526 37.2938 79.1775 37.5811C78.8025 37.8604 78.5351 38.2515 78.3755 38.7542C78.1361 39.5203 78.0164 40.3582 78.0164 41.268V47.9235H75.8618Z" fill="white"/>
<path d="M92.3808 47.9235V46.0561C91.3912 47.4925 90.0466 48.2108 88.3468 48.2108C87.5966 48.2108 86.8944 48.0671 86.24 47.7798C85.5936 47.4925 85.1108 47.1334 84.7916 46.7025C84.4804 46.2636 84.2609 45.7289 84.1332 45.0985C84.0455 44.6755 84.0016 44.0052 84.0016 43.0875V35.211H86.1562V42.2615C86.1562 43.3867 86.2001 44.1448 86.2879 44.5359C86.4236 45.1025 86.7108 45.5494 87.1498 45.8765C87.5887 46.1958 88.1313 46.3554 88.7777 46.3554C89.4241 46.3554 90.0306 46.1918 90.5972 45.8646C91.1638 45.5294 91.5628 45.0785 91.7942 44.5119C92.0336 43.9374 92.1533 43.1074 92.1533 42.0221V35.211H94.308V47.9235H92.3808Z" fill="white"/>
<path d="M101.227 47.9235L96.3908 35.211H98.6652L101.394 42.8241C101.69 43.6461 101.961 44.5 102.208 45.3858C102.4 44.7154 102.667 43.9094 103.01 42.9678L105.835 35.211H108.05L103.238 47.9235H101.227Z" fill="white"/>
<path d="M118.656 43.8296L120.882 44.1049C120.531 45.4057 119.881 46.4152 118.931 47.1334C117.981 47.8516 116.768 48.2108 115.292 48.2108C113.433 48.2108 111.956 47.6402 110.863 46.499C109.778 45.3499 109.235 43.7418 109.235 41.675C109.235 39.5363 109.786 37.8764 110.887 36.6953C111.988 35.5143 113.417 34.9237 115.172 34.9237C116.872 34.9237 118.261 35.5023 119.338 36.6594C120.415 37.8165 120.954 39.4445 120.954 41.5433C120.954 41.671 120.95 41.8625 120.942 42.1179H111.461C111.541 43.5144 111.936 44.5838 112.647 45.3259C113.357 46.0681 114.243 46.4392 115.304 46.4392C116.094 46.4392 116.768 46.2317 117.327 45.8167C117.886 45.4017 118.328 44.7394 118.656 43.8296ZM111.581 40.3463H118.68C118.584 39.2769 118.312 38.4749 117.866 37.9402C117.179 37.1103 116.289 36.6953 115.196 36.6953C114.207 36.6953 113.373 37.0265 112.694 37.6889C112.024 38.3512 111.653 39.237 111.581 40.3463Z" fill="white"/>
<path d="M123.599 47.9235V35.211H125.539V37.0185C126.472 35.622 127.821 34.9237 129.584 34.9237C130.351 34.9237 131.053 35.0634 131.691 35.3427C132.338 35.614 132.82 35.9731 133.14 36.42C133.459 36.8669 133.682 37.3976 133.81 38.0121C133.89 38.4111 133.93 39.1093 133.93 40.1069V47.9235H131.775V40.1907C131.775 39.3128 131.691 38.6585 131.524 38.2275C131.356 37.7886 131.057 37.4415 130.626 37.1861C130.203 36.9228 129.704 36.7911 129.13 36.7911C128.212 36.7911 127.418 37.0824 126.748 37.6649C126.085 38.2475 125.754 39.3527 125.754 40.9807V47.9235H123.599Z" fill="white"/>
<path d="M145.493 47.9235V46.3194C144.687 47.5803 143.502 48.2108 141.938 48.2108C140.924 48.2108 139.991 47.9314 139.137 47.3728C138.291 46.8142 137.633 46.0362 137.162 45.0386C136.699 44.0331 136.467 42.88 136.467 41.5792C136.467 40.3104 136.679 39.1612 137.102 38.1318C137.525 37.0943 138.159 36.3003 139.005 35.7497C139.851 35.199 140.797 34.9237 141.842 34.9237C142.608 34.9237 143.29 35.0873 143.889 35.4145C144.488 35.7337 144.974 36.1527 145.349 36.6714V30.375H147.492V47.9235H145.493ZM138.682 41.5792C138.682 43.2072 139.025 44.4241 139.711 45.2302C140.398 46.0362 141.208 46.4392 142.141 46.4392C143.083 46.4392 143.881 46.0561 144.535 45.29C145.198 44.5159 145.529 43.3388 145.529 41.7588C145.529 40.0191 145.194 38.7422 144.523 37.9283C143.853 37.1143 143.027 36.7073 142.046 36.7073C141.088 36.7073 140.286 37.0983 139.64 37.8804C139.001 38.6624 138.682 39.8954 138.682 41.5792Z" fill="white"/>
<path d="M150.09 41.5672C150.09 39.2131 150.744 37.4694 152.053 36.3362C153.146 35.3945 154.479 34.9237 156.051 34.9237C157.798 34.9237 159.227 35.4983 160.336 36.6474C161.445 37.7886 162 39.3687 162 41.3877C162 43.0236 161.753 44.3124 161.258 45.2541C160.771 46.1878 160.057 46.914 159.115 47.4327C158.182 47.9514 157.16 48.2108 156.051 48.2108C154.271 48.2108 152.831 47.6402 151.73 46.499C150.636 45.3578 150.09 43.7139 150.09 41.5672ZM152.304 41.5672C152.304 43.1952 152.659 44.4162 153.369 45.2302C154.08 46.0362 154.974 46.4392 156.051 46.4392C157.12 46.4392 158.01 46.0322 158.72 45.2182C159.43 44.4042 159.786 43.1633 159.786 41.4954C159.786 39.9233 159.426 38.7343 158.708 37.9283C157.998 37.1143 157.112 36.7073 156.051 36.7073C154.974 36.7073 154.08 37.1103 153.369 37.9163C152.659 38.7223 152.304 39.9393 152.304 41.5672Z" fill="white"/>
<defs>
<clipPath id="clip0_3088_69969">
<rect width="48.2652" height="30.1657" fill="white" transform="translate(0 25)"/>
</clipPath>
</defs>
</svg>
