<svg width="171" height="80" viewBox="0 0 171 80" fill="none" xmlns="http://www.w3.org/2000/svg">
<g clip-path="url(#clip0_3088_69899)">
<path d="M30.7648 27.4645V28.4225L28.729 29.5242V28.0513L22.0587 24.1952V24.1832L15.3764 20.3391L8.70611 24.1832V24.1952L2.02384 28.0513V43.4756L2.82619 43.9306V46.2658L0 44.6372V26.8777L7.6882 22.4468H7.70018L15.3764 18.0039L23.0646 22.4468L30.7648 26.8777V27.4645ZM30.7648 42.9486V44.6372L23.0646 49.08L15.3764 53.5109L12.4424 51.8224L14.4064 50.6129L15.3764 51.1877L22.0587 47.3316L28.729 43.4756V41.8948L30.7648 42.9486Z" fill="white"/>
<path fill-rule="evenodd" clip-rule="evenodd" d="M3.67676 29.6562L27.3641 42.2424L3.97614 54.9962L3.67676 29.6562Z" fill="white"/>
<path fill-rule="evenodd" clip-rule="evenodd" d="M33.2075 43.1536L19.1963 35.6929L33.0398 28.1484L33.2075 43.1536Z" fill="white"/>
</g>
<path d="M51.2955 45.1914C48.9519 45.1914 47.198 44.666 46.0337 43.6151C44.8771 42.5643 44.2685 41.2149 44.208 39.5668H46.3286C46.442 40.8066 46.9561 41.7252 47.8708 42.3224C48.7931 42.9121 49.9045 43.2069 51.2048 43.2069C52.4371 43.2069 53.4274 42.9537 54.1758 42.4471C54.9318 41.9406 55.3098 41.2527 55.3098 40.3833C55.3098 39.4685 54.9205 38.8032 54.1418 38.3874C53.3632 37.9716 52.0213 37.5634 50.1161 37.1627C48.2186 36.7545 46.854 36.1912 46.0224 35.473C45.1984 34.7548 44.7863 33.7985 44.7863 32.604C44.7863 31.2584 45.3231 30.1546 46.3966 29.2928C47.4777 28.4309 48.9103 28 50.6945 28C52.5694 28 54.0813 28.4347 55.2305 29.3041C56.3796 30.1735 56.9882 31.402 57.0562 32.9896H54.9129C54.6937 30.9786 53.3178 29.9732 50.7852 29.9732C49.5605 29.9732 48.6117 30.2037 47.9389 30.6649C47.266 31.1261 46.9296 31.7384 46.9296 32.502C46.9296 33.1975 47.198 33.7191 47.7347 34.0669C48.2791 34.4146 49.2883 34.7511 50.7625 35.0761C52.2443 35.4012 53.4198 35.7225 54.2892 36.04C55.1586 36.3576 55.9033 36.8527 56.5232 37.5256C57.1431 38.1909 57.4531 39.0867 57.4531 40.2132C57.4531 41.642 56.8823 42.8289 55.7408 43.7739C54.6068 44.7189 53.125 45.1914 51.2955 45.1914Z" fill="white"/>
<path d="M67.8519 41.7441V39.0792H66.389C63.2894 39.0792 61.7396 39.9221 61.7396 41.608C61.7396 42.2203 61.9664 42.6928 62.42 43.0255C62.8736 43.3506 63.486 43.5131 64.2571 43.5131C64.9602 43.5131 65.6406 43.3543 66.2983 43.0368C66.956 42.7193 67.4739 42.2884 67.8519 41.7441ZM67.8519 43.6718C66.7632 44.6849 65.3608 45.1914 63.6447 45.1914C62.4503 45.1914 61.4675 44.8701 60.6963 44.2275C59.9252 43.5773 59.5397 42.742 59.5397 41.7214C59.5397 38.9091 61.9626 37.5029 66.8086 37.5029H67.8519C67.8519 36.6411 67.8065 36.0174 67.7158 35.6318C67.6251 35.2387 67.3718 34.9136 66.956 34.6566C66.5402 34.3995 65.8787 34.271 64.9715 34.271C63.0664 34.271 62.0836 34.9514 62.0231 36.3122H59.8912C60.05 33.8401 61.7812 32.604 65.0849 32.604C66.6271 32.604 67.8292 32.9102 68.691 33.5226C69.5529 34.1349 69.9838 35.337 69.9838 37.1287V44.9079H67.8519V43.6718Z" fill="white"/>
<path d="M82.8887 32.8762L78.3413 44.9079H76.4362L71.8889 32.8762H74.2022L77.3888 42.2884L80.5753 32.8762H82.8887Z" fill="white"/>
<path d="M92.3916 41.7441V39.0792H90.9287C87.8291 39.0792 86.2793 39.9221 86.2793 41.608C86.2793 42.2203 86.5061 42.6928 86.9597 43.0255C87.4133 43.3506 88.0257 43.5131 88.7968 43.5131C89.4999 43.5131 90.1803 43.3543 90.838 43.0368C91.4957 42.7193 92.0136 42.2884 92.3916 41.7441ZM92.3916 43.6718C91.3029 44.6849 89.9006 45.1914 88.1844 45.1914C86.99 45.1914 86.0072 44.8701 85.236 44.2275C84.4649 43.5773 84.0794 42.742 84.0794 41.7214C84.0794 38.9091 86.5023 37.5029 91.3483 37.5029H92.3916C92.3916 36.6411 92.3462 36.0174 92.2555 35.6318C92.1648 35.2387 91.9115 34.9136 91.4957 34.6566C91.0799 34.3995 90.4184 34.271 89.5112 34.271C87.6061 34.271 86.6233 34.9514 86.5628 36.3122H84.4309C84.5897 33.8401 86.3209 32.604 89.6246 32.604C91.1669 32.604 92.3689 32.9102 93.2307 33.5226C94.0926 34.1349 94.5235 35.337 94.5235 37.1287V44.9079H92.3916V43.6718Z" fill="white"/>
<path d="M99.8419 34.4071C100.908 33.205 102.106 32.604 103.437 32.604C106.151 32.604 107.508 34.082 107.508 37.038V44.9079H105.365V37.1287C105.365 36.1459 105.187 35.439 104.832 35.0081C104.484 34.5772 103.909 34.3617 103.108 34.3617C102.019 34.3617 100.931 35.0043 99.8419 36.2895V44.9079H97.6987V32.8762H99.8419V34.4071Z" fill="white"/>
<path d="M115.298 44.9306C114.83 45.0213 114.319 45.0667 113.767 45.0667C112.89 45.0667 112.248 44.9117 111.84 44.6017C111.431 44.2842 111.178 43.8797 111.08 43.3884C110.982 42.897 110.932 42.2279 110.932 41.3812V34.5545H109.447V32.8762H110.932V29.8824H113.064V32.8762H115.015V34.5545H113.064V41.4946C113.064 42.3186 113.166 42.844 113.371 43.0708C113.582 43.2901 113.869 43.3997 114.232 43.3997C114.603 43.3997 114.958 43.3695 115.298 43.309V44.9306Z" fill="white"/>
<path d="M130.505 45.1914C128.154 45.1914 126.275 44.4203 124.869 42.8781C123.471 41.3283 122.771 39.2341 122.771 36.5957C122.771 33.9573 123.471 31.8669 124.869 30.3247C126.275 28.7749 128.154 28 130.505 28C132.312 28 133.851 28.4876 135.121 29.4629C136.391 30.4381 137.105 31.7233 137.264 33.3184H134.996C134.905 32.2676 134.448 31.4322 133.624 30.8123C132.807 30.1924 131.775 29.8824 130.528 29.8824C128.842 29.8824 127.508 30.4646 126.525 31.6288C125.542 32.7855 125.051 34.4411 125.051 36.5957C125.051 38.7427 125.538 40.3984 126.514 41.5626C127.489 42.7269 128.812 43.309 130.483 43.309C131.783 43.309 132.834 42.9915 133.635 42.3564C134.436 41.7214 134.89 40.8142 134.996 39.6348H137.264C137.105 41.4039 136.41 42.7722 135.177 43.7399C133.945 44.7076 132.388 45.1914 130.505 45.1914Z" fill="white"/>
<path d="M142.185 34.4071C143.251 33.205 144.45 32.604 145.78 32.604C148.494 32.604 149.851 34.082 149.851 37.038V44.9079H147.708V37.1287C147.708 36.1459 147.53 35.439 147.175 35.0081C146.827 34.5772 146.253 34.3617 145.451 34.3617C144.363 34.3617 143.274 35.0043 142.185 36.2895V44.9079H140.042V28.2835H142.185V34.4071Z" fill="white"/>
<path d="M160.59 41.7441V39.0792H159.127C156.028 39.0792 154.478 39.9221 154.478 41.608C154.478 42.2203 154.705 42.6928 155.158 43.0255C155.612 43.3506 156.224 43.5131 156.995 43.5131C157.699 43.5131 158.379 43.3543 159.037 43.0368C159.694 42.7193 160.212 42.2884 160.59 41.7441ZM160.59 43.6718C159.502 44.6849 158.099 45.1914 156.383 45.1914C155.189 45.1914 154.206 44.8701 153.435 44.2275C152.664 43.5773 152.278 42.742 152.278 41.7214C152.278 38.9091 154.701 37.5029 159.547 37.5029H160.59C160.59 36.6411 160.545 36.0174 160.454 35.6318C160.363 35.2387 160.11 34.9136 159.694 34.6566C159.279 34.3995 158.617 34.271 157.71 34.271C155.805 34.271 154.822 34.9514 154.761 36.3122H152.63C152.788 33.8401 154.52 32.604 157.823 32.604C159.365 32.604 160.568 32.9102 161.429 33.5226C162.291 34.1349 162.722 35.337 162.722 37.1287V44.9079H160.59V43.6718Z" fill="white"/>
<path d="M170.569 44.9306C170.101 45.0213 169.59 45.0667 169.038 45.0667C168.162 45.0667 167.519 44.9117 167.111 44.6017C166.702 44.2842 166.449 43.8797 166.351 43.3884C166.253 42.897 166.203 42.2279 166.203 41.3812V34.5545H164.718V32.8762H166.203V29.8824H168.335V32.8762H170.286V34.5545H168.335V41.4946C168.335 42.3186 168.437 42.844 168.642 43.0708C168.853 43.2901 169.141 43.3997 169.503 43.3997C169.874 43.3997 170.229 43.3695 170.569 43.309V44.9306Z" fill="white"/>
<defs>
<clipPath id="clip0_3088_69899">
<rect width="33.2078" height="37" fill="white" transform="translate(0 18)"/>
</clipPath>
</defs>
</svg>
