<svg width="50" height="80" viewBox="0 0 50 80" fill="none" xmlns="http://www.w3.org/2000/svg">
<g clip-path="url(#clip0_3088_69992)">
<path d="M22.2723 33.7148H26.2869C26.5296 33.7148 26.7015 33.9516 26.6266 34.1823L22.217 47.7538C22.1692 47.9009 22.032 48.0006 21.8773 48.0006H18.1221C17.8794 48.0006 17.7074 47.7638 17.7824 47.5331L21.192 37.0395C21.267 36.8087 21.0949 36.572 20.8523 36.572H18.4968C18.1508 36.572 18.007 36.1292 18.2869 35.9259L21.2362 33.7831C21.2973 33.7387 21.3708 33.7148 21.4462 33.7148H22.2723Z" fill="#FAFAFA"/>
<path d="M48.4074 34.1823C48.4824 33.9516 48.3103 33.7148 48.0677 33.7148H33.1737C33.0983 33.7148 33.0249 33.7387 32.9638 33.7831L30.0144 35.9259C29.7346 36.1292 29.8784 36.572 30.2244 36.572H44.1352C44.3778 36.572 44.5498 36.8087 44.4749 37.0395L43.7786 39.1823C43.7308 39.3295 43.5937 39.4291 43.439 39.4291H25.9328C25.7781 39.4291 25.641 39.5288 25.5932 39.6759L23.0402 47.5331C22.9652 47.7638 23.1372 48.0006 23.3799 48.0006H43.6581C43.8128 48.0006 43.95 47.9009 43.9978 47.7538L44.694 45.6109C44.769 45.3801 44.5969 45.1434 44.3543 45.1434H27.3124C27.0697 45.1434 26.8978 44.9067 26.9727 44.6759L27.669 42.5331C27.7168 42.3859 27.854 42.2863 28.0087 42.2863H45.5148C45.6695 42.2863 45.8066 42.1866 45.8544 42.0395L48.4074 34.1823Z" fill="#FAFAFA"/>
<path d="M8.17031 44.9532C8.199 45.2266 8.51299 45.3664 8.73543 45.2048L19.5405 37.3545C19.6015 37.3101 19.675 37.2863 19.7504 37.2863H19.8689C20.1116 37.2863 20.2836 37.523 20.2086 37.7538L18.3675 43.4197C18.3442 43.4915 18.2988 43.554 18.2378 43.5983L12.2726 47.9323C12.2116 47.9767 12.138 48.0006 12.0626 48.0006H2.3482C2.16541 48.0006 2.01213 47.8625 1.99302 47.6807L0.0410572 29.1093C0.0188955 28.8985 0.184229 28.7148 0.396243 28.7148H6.14204C6.32483 28.7148 6.47811 28.8529 6.49721 29.0347L8.17031 44.9532Z" fill="#FAFAFA"/>
<path d="M38.6072 28C38.9531 28 39.097 28.4427 38.817 28.6461L27.0859 37.1692C26.806 37.3726 26.4294 37.0989 26.5363 36.7699L27.6094 33.4675C27.6844 33.2368 27.5123 33 27.2697 33H26.6322C26.2863 33 26.1424 32.5573 26.4223 32.3539L32.3211 28.0682C32.3821 28.0239 32.4556 28 32.531 28H38.6072Z" fill="#FAFAFA"/>
</g>
<defs>
<clipPath id="clip0_3088_69992">
<rect width="48.5714" height="20" fill="white" transform="translate(0 28)"/>
</clipPath>
</defs>
</svg>
